<?xml version="1.0" encoding="utf-8"?>
<!-- Generator: Adobe Illustrator 21.0.0, SVG Export Plug-In . SVG Version: 6.00 Build 0)  -->
<svg version="1.1" id="Layer_1" xmlns="http://www.w3.org/2000/svg" xmlns:xlink="http://www.w3.org/1999/xlink" x="0px" y="0px"
	 viewBox="0 0 6000 1220" enable-background="new 0 0 6000 1220" xml:space="preserve">
<g>
	<path fill="#27374D" d="M4622.41,1216.26c-54.07,0-122.74-1.55-204.96-4.63c-185.22-6.95-441.56-21.79-741.32-42.92
		c-250.91-17.68-522.88-39.18-746.19-58.96c-217.44-19.27-351.9-33.59-368.9-39.3c-18.91-6.35-35.83-2.22-53.22,12.99
		c-15.7,13.73-29.29,34.38-42.43,54.35c-14.3,21.73-27.82,42.26-43.21,52.75c-10.78,7.34-29.45,11.37-55.51,11.98
		c-23.13,0.54-51.95-1.69-83.36-6.46c-62.48-9.48-128-27.65-171-47.43c-52.82-24.29-93.46-9.64-136.5,5.88
		c-27.54,9.93-56.02,20.2-89.74,21.66c-1.14,0.05-2.3,0.07-3.46,0.07c-25.8,0-57.28-11.94-88.23-28.23
		c-12.97-3.43-26.6-8.38-40.84-14.85c-35.42-16.08-73.46-41.74-99.13-60.44c-17.09-12.44-34.44-26.1-44.11-34.51
		c-4.59,12.19-8.08,24.64-11.18,35.7c-6.71,23.96-11.56,41.28-23.22,41.28c-2.21,0-5.84-0.98-14.38-8.65
		c-5.73-5.15-12.93-12.67-20.84-21.76c-17.59-20.23-37.4-46.61-55.78-74.29c-28.69-43.21-78.53-126.95-89.92-202.33
		c-6.79-44.94-4.13-94.84,7.5-140.51c11.94-46.91,32.65-85.93,58.3-109.89c12.37-11.56,25.86-19.67,40.08-24.11
		c15.19-4.74,31.24-5.3,47.69-1.65c78.91,17.5,130.41,93.28,158.07,134c7.28,10.72,15.53,22.85,18.42,24.13
		c1.49,0,3.19-0.33,5.02-0.94c-0.64-5.26-2.27-11.54-4.9-18.8c-2.41-1.18-5.36-4.18-9.73-9.64c-4.61-5.76-10.74-14.3-17.71-24.7
		c-13.44-20.04-28.82-45.09-40.14-65.37c-12.87-23.05-33.9-40.25-52.45-55.42c-13.62-11.14-25.39-20.76-32.28-31.1
		c-3.61-5.41-11.83-8.93-23.16-9.92c-35.7-3.12-95.73,18.89-149.34,75.06c-28.53,29.89-64.46,93.76-106.81,189.85
		c-36.06,81.82-70.16,171.65-95.05,237.25c-7.93,20.88-14.77,38.92-20.62,53.91c-3.11,7.99-5.98,15.49-8.75,22.75
		c-17.59,46.05-29.2,76.47-51.96,90.02c-11.65,6.94-25.85,9.39-44.69,7.7c-17.8-1.59-40.59-7-71.74-17
		c-28.97-9.3-77.08-14.69-142.99-16c-52.92-1.05-117.29,0.51-191.31,4.65c-126.1,7.05-665.31,33.35-666.42,33.47v-4
		c1.12-0.12,539.72-29.74,666.01-36.81c74.21-4.15,138.76-5.72,191.87-4.66c66.62,1.32,115.44,6.83,145.09,16.35
		c59.47,19.1,90.43,21.9,110.42,9.99c20.56-12.25,31.82-41.72,48.85-86.33c2.78-7.27,5.65-14.78,8.77-22.8
		c5.83-14.97,12.67-32.99,20.59-53.85c51.01-134.4,136.4-359.34,203.42-429.56c25.99-27.23,55.54-48.76,85.47-62.25
		c25.36-11.43,50.16-16.78,69.83-15.06c13.6,1.19,23.77,5.86,28.64,13.17c6.29,9.43,17.66,18.72,30.82,29.49
		c19.06,15.59,40.67,33.25,54.22,57.53c10.49,18.8,24.94,42.43,37.7,61.67c6.04,9.11,10.91,16.04,14.76,21.23
		c-2.3-4.78-4.88-9.83-7.74-15.16c-11.59-21.56-27.52-47.1-47.35-75.91c-28.17-40.91-58.68-60.86-71.7-69.37
		c-4.49-2.93-6.08-4.01-7-5.23c-1.35-1.8-2.11-4.81,1.95-8.92c1.85-1.87,4.5-3.91,7.58-6.27c4.6-3.53,9.82-7.53,13.5-11.9
		c5.24-6.2,15.67-35.3,24.05-58.68c1.64-4.57,3.25-9.06,4.79-13.3c-2.66-0.21-5.35-0.77-7.97-1.71
		c-6.48-2.31-11.93-6.69-15.77-12.67c-4.34-6.75-6.5-15.26-6.44-25.27c0.1-16.78,3.18-38.57,8.04-56.84
		c4.09-15.38,11.19-35.13,21.8-41.83c4.45-2.81,9.24-3.16,13.85-1.01c6.27,2.94,10.5,10.44,12.58,22.31
		c1.64,9.36,1.98,21.3,1.02,35.49c-1.78,26.33-7.51,52.63-12.03,62.85c-1.12,2.52-2.42,5.78-3.86,9.55
		c2.31-1.06,4.33-2.55,5.85-4.43c8.48-10.51,18.93-56.97,20.05-86.42c-5.19-13.32-14.02-35.6-19.68-40.53
		c-6.81-5.93-2.36-20.32,3.79-40.23c5.18-16.77,11.06-35.77,11.2-52.62c0.16-17.99,24.39-56.06,64.67-88.61
		c34.66-28.01,106.79-72.11,200.51-52.84c35.65,7.33,66.31,21.7,91.15,42.72c21.21,17.95,38.14,40.67,50.34,67.52
		c9.95,21.91,16.7,46.81,19.51,72.01c2.31,20.7,1.95,40.94-1.01,56.98c-5.5,29.74-26.61,68.84-38.71,89.51
		c-7.76,13.26-16.05,26.2-23.33,36.44c-11.23,15.8-13.87,16.67-15.14,17.09c-1.51,0.5-3.07,0.17-4.17-0.86
		c-1.17-1.1-1.38-2.51-1.32-3.65c-0.86,3.44-1.72,6.9-2.58,10.37c-14.43,58.04-49.51,120.08-69.28,142.55
		c-21.22,24.12-77.04,58.53-109.9,75.26c-14.06,7.16-27.39,10.81-41.12,10.81c-4.54,0-9.12-0.4-13.79-1.2
		c-3.07,5.86-9.72,13.95-19.85,24.13c-6.05,6.09-15.25,14.65-20.6,18.56c2.23,6.27,3.84,12.08,4.69,17.29
		c10.85-6.17,22.87-17.9,24.44-25.75c1.75-8.76,7.35-22.16,15.58-23.2c3.04-0.38,7.43,0.74,11.04,8.26
		c7.97,16.6,11.95,88.27,10.99,119.27c-0.59,19-12.49,37.97-22.06,53.21c-1.48,2.35-2.94,4.68-4.28,6.9
		c3.66,6.37,7.62,12.89,11.51,19.28c17.04,28.02,25.59,42.93,18.18,49.03c-2.06,1.7-9.01,5.41-24.53,13.63
		c-41.73,22.12-128.57,68.14-150.71,98.72c-5.6,7.73-10.16,16.52-14.01,25.64c7.58,6.71,24.61,20.61,46.85,36.75
		c25.06,18.18,62.15,43.13,96.55,58.74c0.83,0.38,1.65,0.75,2.48,1.11c-12.51-7.83-24.49-15.91-35.49-23.67
		c-31.46-22.21-56.06-42.72-67.93-52.96c-8.3-7.16-15.45-13.67-20.67-18.83c-8.45-8.33-8.64-9.9-8.78-11.16
		c-0.25-2.14,1.01-4.13,2.99-6.45c7.97-9.37,35.67-31.86,65.87-53.48c20.69-14.82,57.32-39.75,70.17-40.31
		c4.76-0.21,8.25,0.98,10.79,2.74c0.91-2.68,1.94-5.15,3.11-7.07c2.84-4.66,8.75-8.46,17.71-14.21
		c15.15-9.73,38.04-24.43,68.12-56.28c28.69-30.37,52.78-71.5,74.05-107.78c13.62-23.25,26.49-45.21,38.3-60.11
		c16.98-21.42,37.98-43.3,59.13-61.61c26.87-23.25,53.38-40.53,78.79-51.34c53.8-22.89,102.41-32.58,138.74-38.47
		c27.26-4.42,52.31-2.22,62.33,5.47c3.91,3,5,6.32,5.23,8.58c0.94,9.24-7.94,13.85-10.86,15.37c-6.25,3.24-14.66,5.78-24.39,8.71
		c-2.71,0.82-5.51,1.66-8.34,2.55c-22.59,7.06-34.82,16.28-39.03,19.91c-0.63,0.54-1.31,0.99-2.03,1.37
		c1.81,2.81,3.85,6.1,6.13,9.94c5.85,9.83,14.78,26.04,15.43,30.4c1.35,9.14-0.44,16.6-5.32,22.19c-0.63,0.72-1.38,1.25-2.19,1.56
		c0.56,2.89,1.03,5.64,1.35,8.05c0.18,1.37,0.38,2.72,0.57,4.06c2.16,15.08,4.2,29.33-13.32,43.38
		c-11.91,9.55-32.24,10.34-47.3,7.89c-5.98-0.97-16.49-3.34-19.68-8.29c-1-1.54-1.44-3.31-1.33-5.2c-1.97,0.57-4.04,1.18-6.22,1.82
		c-20.37,6.04-41.79,13.09-49.67,15.94c-1.31,1.01-6.66,7.53-24.46,48.5c-6.4,14.74-13.89,32.7-22.38,53.69
		c23.49-0.39,97.43,1.38,138.92,2.64c27.26,0.83,66.27,2.15,97.35,3.8c46.04,2.43,47.31,3.94,48.78,5.69
		c0.6,0.72,1.31,2.25,2.3,5.21c-0.75-3.13-1.19-5.38-1.28-6.58c-0.16-2.31,1.74-15.46,4.94-35.35c-1.35-4.2-2.35-7.24-2.86-8.72
		c-0.7-2.01-2.01-5.74,10.23-84.02c6.55-41.9,16.27-100.37,28.1-169.09c21.31-123.76,43.68-247.24,46.44-259.21
		c5.66-24.51,11.34-27.43,20.15-30.16l0.63-0.19c2.03-0.63,4.49-0.02,8.49,2.11c9.58,5.11,28.11,19.36,45.08,34.65
		c11.68,10.53,31.77,29.84,35,40.74c0.66,2.21,2.19,7.39-14.94,119.03c-11.82,77-27.67,173.16-38.89,240.26
		c-13.75,82.23-28.56,168.85-40.65,237.65c-5.73,32.64-10.6,59.85-14.09,78.69c-5.71,30.86-6.18,31.51-6.89,32.48
		c-1.75,2.41-6.63,8.12-14.06,9.11c-0.46,0.06-0.91,0.1-1.37,0.13c-1.21,8.15-3.47,17.31-5.8,25
		c-3.71,12.22-11.22,33.22-19.85,36.45c-1.41,0.53-4.7,1.76-73.47-1.12c-40.58-1.7-94.63-4.48-148.3-7.62
		c-57.21-3.35-109.69-6.85-147.78-9.87c-68.81-5.45-71.03-7.55-72.66-9.08c-1.13-1.06-1.55-2.62-1.1-4.06
		c1.42-4.53,33.67-69.48,60.15-121.69c0,0,0,0,0,0c8.21-21.59,17.34-45.37,26.67-69.3c-6.08,12.34-12.67,25.84-19.19,39.19
		c-36.69,75.15-82.35,168.68-103.43,195.94c-17.69,22.88-41.09,35.73-69.54,38.17c-7.56,0.65-15.49,0.56-23.76-0.26
		c25.54,11.18,47.03,16.47,63.97,15.74c32.6-1.41,60.54-11.48,87.57-21.23c44.49-16.04,86.51-31.19,142.06-5.64
		c42.42,19.51,107.18,37.45,169.03,46.84c65.18,9.89,115.13,8.27,133.63-4.33c14.2-9.67,27.32-29.61,41.21-50.72
		c26.58-40.39,56.71-86.17,104.13-70.26c16.23,5.45,153.51,20.01,367.21,38.94c223.26,19.78,495.19,41.27,746.06,58.95
		c299.68,21.12,555.94,35.96,741.08,42.9c106.51,3.99,190.24,5.41,248.85,4.22c31.2-0.64,211.26-5.78,228.39-7.88
		c9.41-1.16,490.38-9.91,500.06-11.32c13.58-1.98-600.36,8.43-586.58,8.25c113.54-1.53,1190.39-16.4,1191.56-18.14
		c-4.04,5.99-1245.96,34.66-1333.27,36.44C4653.26,1216.12,4638.48,1216.26,4622.41,1216.26z M1797.4,1141.28
		c48.76,12.71,86.28,2.49,111.87-30.59c20.62-26.67,68.03-123.77,102.64-194.67c12.53-25.67,23.35-47.83,31.69-64.28
		c11.74-23.14,14.72-27.4,16.6-28.49c42.91-106.39,49.19-108.67,52.38-109.83c8.29-3.02,31.14-10.53,52.47-16.8
		c3.62-1.06,7.04-2.04,10.26-2.95c5.77-6.74,17.04-13.14,29.03-13.69c9.26-0.43,14.31,3.19,16.93,6.3
		c4.15,4.93,4.67,11.37,4.02,14.27c-0.37,1.66-1.5,2.9-3.03,3.32c-2.96,0.82-5.06-1.41-8.54-5.09c-1.56-1.64-3.3-3.49-4.97-4.87
		c-1.39-0.13-7.14,0.13-29.1,6.18c-0.2,0.3-0.37,0.6-0.52,0.89c-0.29,0.57-0.93,1.98-0.46,2.72c0.66,0.98,5.48,3.63,15.51,5.15
		c12.65,1.92,30.9,1.37,40.7-6.5c14.25-11.43,12.74-21.99,10.65-36.6c-0.2-1.36-0.39-2.74-0.58-4.13
		c-0.53-3.97-1.47-8.88-2.59-13.99c-1.54-2.64-3.37-6.76-5.46-13.27c-1.82-5.7-4.41-15.5-4.08-19.12c0.24-2.62,2.08-3.83,3.8-3.86
		c0.03,0,0.07,0,0.1,0c3.19,0,4.23,3.18,5.67,7.57c1.04,3.16,2.32,7.59,3.6,12.47c0.99,3.76,2.08,8.19,3.1,12.68
		c2.2-3.67,2.89-8.42,2.04-14.15c-0.36-1.9-5.45-12.41-13.7-26.41c-3.36-5.7-6.19-10.2-8.53-13.7c-2.52-0.26-4.96-1.07-6.91-2.26
		c-4.47-2.73-6.44-7.23-5.27-12.04c0.65-2.69,2.83-3.81,4.68-3.72c1.5,0.07,3.94,0.18,11.26,10.5c0.56-0.16,1.04-0.4,1.41-0.72
		c5.66-4.89,18.59-14.16,41.64-21.36c2.87-0.9,5.69-1.75,8.41-2.57c16.52-4.98,30.78-9.28,30.07-16.3
		c-0.12-1.19-0.93-2.37-2.39-3.49c-6.86-5.26-27.52-8.77-56.68-4.04c-35.92,5.82-83.96,15.39-137.04,37.98
		c-52.58,22.38-104.23,71.89-135.04,110.76c-11.49,14.5-24.23,36.25-37.72,59.27c-21.46,36.62-45.79,78.13-75.05,109.11
		c-30.7,32.5-54.98,48.1-69.49,57.42c-7.81,5.01-13.45,8.64-15.4,11.85c-1.43,2.36-2.74,6.07-3.85,10.31
		c4.53,10.89,0.09,28.34-3.45,32.76c-1.79,2.24-4.24,2.13-5.75,1.07c-1.42-0.99-3.79-2.66-0.72-21.99c0.39-2.47,1.1-6.53,2.13-10.88
		c-1.71-2.49-4.36-3.57-8.22-3.41c-8.2,0.36-36.32,17.18-71.64,42.86c-15.11,10.99-29.74,22.3-41.18,31.85
		c-13.35,11.14-17.51,15.82-18.79,17.55c5.97,7.72,46.2,44.22,96.58,79.5C1754.34,1116.5,1776.77,1130.4,1797.4,1141.28z
		 M1527.21,536.95c-22.16,0-42.75,8.76-61.41,26.19c-50.16,46.84-77.48,151.71-63.55,243.93c11.11,73.52,59.89,155.71,87.98,198.17
		c18.07,27.31,37.61,53.46,55.04,73.63c19.23,22.26,28.45,28.69,30.67,28.99c6.07-0.07,11.17-18.29,16.11-35.91
		c3.38-12.07,7.21-25.74,12.44-39.08c-0.93-0.94-1.54-1.66-1.79-2.12c-0.1-0.18-0.21-0.37-0.34-0.59c-1.63-2.76-5.03-8.5-1.51-19.77
		c3.88-12.43,15.43-28.81,34.3-48.66c26.84-28.22,74.3-55.75,141.07-81.81c0.82-0.32,1.63-0.64,2.34-0.91
		c-1.2-2.19-3.43-5.6-5.32-8.5c-6.43-9.83-14.42-22.07-14.58-30.7c-0.07-4.15,2.15-9.21,5.58-15.2c-1.75-3.13-3.41-6.22-4.94-9.23
		c-14.99-29.52-25.85-88.91-28.59-118.72c-2.18,0.58-4.21,0.87-6.05,0.82c-5.33-0.12-10.36-7.12-24.1-27.34
		c-27.09-39.87-77.52-114.08-153.58-130.95C1540.25,537.69,1533.66,536.95,1527.21,536.95z M1959.26,1070.11
		c17.22,3.46,102.5,10.1,215.18,16.68c112.44,6.57,209.62,10.61,217.28,9.06c2.58-1.15,8.91-10.63,15.29-31.66
		c2.61-8.6,4.55-17.11,5.58-24.03c-2.34-0.88-4.67-2.24-6.97-4.09c-2.98-2.38-7.3-10.1-18.63-50.07
		c-7.31-25.77-15.39-57.41-22.51-85.33c-6.94-27.17-14.1-55.21-16.42-60.88c-6.93-1.7-47.78-4.57-143.1-7.44
		c-67.96-2.04-126.41-2.96-139.46-2.54c-4.94,12.27-10.19,25.5-15.75,39.66c-2.45,6.24-4.9,12.5-7.33,18.74
		c3.01-5.78,5.96-11.41,8.78-16.72c19.68-37.17,21.09-37.64,23.04-38.29c0.88-0.29,2.73-0.91,39.92-0.29
		c23.49,0.39,52.62,1.15,79.91,2.1c22.36,0.77,54.3,2.04,79.43,3.68c11.43,0.75,20.39,1.51,26.64,2.26
		c10.42,1.25,12.62,2.3,13.61,4.61c1.9,4.42,11.7,61.76,17.72,99.12c2.93,18.16,7.02,44.18,9.85,65c1.27,9.34,2.16,16.68,2.63,21.82
		c0.8,8.65,0.57,10.69-1.36,12.14c-1.2,0.9-1.65,1.24-18.26,1.3c-9.61,0.03-23.13-0.06-40.19-0.29c-33-0.44-76.95-1.35-120.58-2.49
		c-47.04-1.23-90.07-2.63-121.16-3.95c-56.68-2.41-58.48-3.76-59.93-4.85c-1.39-1.04-1.93-2.82-1.33-4.42
		c0.07-0.18,0.27-0.73,0.6-1.62c1.32-3.54,2.91-7.83,4.75-12.77C1973.13,1041.33,1962.88,1062.28,1959.26,1070.11z M1989.42,1027.69
		c15.83,1.96,82.93,4.73,173.93,7.11c83.41,2.18,158.83,3.29,173.66,2.6c-0.3-8.02-3.84-36.11-13.28-94.43
		c-7.57-46.75-14.57-85.78-16.46-93.44c-6.6-1.81-40.09-4.68-115.95-7.26c-55.87-1.9-106.02-2.66-114.19-2.1
		c-3.95,5.36-21.35,37.23-59.36,112.15C2005.42,984.79,1995.16,1012.26,1989.42,1027.69z M2364.43,813.37
		c-1.71,11.07-2.62,17.82-2.57,19.34c0.88,12.7,52.84,176.2,57.96,190.84c0.87,2.49,1.08,6.09,0.83,10.3
		c4.07-0.73,7.05-3.96,8.39-5.7c3-10.47,31.33-170.93,60.96-348.24c11.06-66.17,26.7-161.06,38.41-237.32
		c15.03-97.89,15.69-114.17,15.25-116.59c-2.2-7.25-17.27-23.82-38.43-42.25c-21.24-18.5-37.62-29.37-41.31-30.14l-0.22,0.07
		c-6.34,1.97-10.17,3.15-15.17,24.79c-2.7,11.71-24.83,133.8-45.94,256.38c-19.67,114.17-29.56,176.78-34.46,211.07
		c8.83-51.69,20.36-116.81,29.59-168.04c11.82-65.55,22.94-125.67,31.32-169.29c4.64-24.13,8.4-43.06,11.2-56.28
		c4.81-22.75,5.54-23.39,6.75-24.44c0.83-0.72,2.66-1.78,5.62-0.72c7.09,2.53,23.42,19.39,35.87,33.08
		c6.52,7.17,13.17,14.82,18.25,21.01c8.52,10.37,8.75,11.78,8.92,12.81c0.17,1,0.36,2.14-14.7,88.91
		c-8.93,51.46-21.04,120.35-33.23,188.99c-13.05,73.52-25.09,140.54-33.89,188.73c-4.92,26.93-8.83,47.97-11.61,62.55
		c-4.77,24.96-5.02,25.22-6.08,26.27c-0.83,0.83-1.99,1.27-3.15,1.09c-2.39-0.36-3.36-2.09-5-5.93c-0.98-2.29-2.26-5.63-3.83-9.94
		c-2.75-7.57-6.5-18.52-11.14-32.56c-8.5-25.69-18.59-57.38-25.95-80.52C2366.15,818.77,2365.27,816,2364.43,813.37z
		 M2364.41,870.89c1.99,7.67,4.35,16.89,7.18,27.97c7.06,27.66,15.07,59.01,22.31,84.6c11.03,38.96,15.09,45.77,16.32,46.89
		c1.07,0.85,2.12,1.56,3.17,2.11c0.13-2.88-0.03-5.12-0.51-6.49C2409.41,1016.02,2380.13,924.52,2364.41,870.89z M2428.94,1028.45
		C2428.94,1028.45,2428.94,1028.45,2428.94,1028.45C2428.94,1028.45,2428.94,1028.45,2428.94,1028.45z M1768.53,832.09
		c-1.58,3.13-2.56,5.76-2.53,7.58c0.12,6.51,8.1,18.73,13.38,26.81c5.9,9.03,7.91,12.3,7.21,15.22c-0.28,1.17-1.01,2.14-2.03,2.73
		c-0.61,0.35-1.68,0.77-5.66,2.33c-65.76,25.67-112.33,52.59-138.42,80.03c-18.1,19.03-29.07,34.43-32.62,45.79
		c-2.01,6.43-1.12,10.01-0.03,12.27c3.73-8.4,8.12-16.51,13.41-23.82c10.19-14.07,32.92-31.77,69.48-54.1
		c29.91-18.27,62.3-35.44,83.74-46.8c11.46-6.08,21.39-11.34,23.21-12.74c0.16-0.47,0.63-3.14-4.39-13.12
		c-3.76-7.47-9.37-16.71-15.32-26.48C1774.8,842.59,1771.59,837.32,1768.53,832.09z M1633.29,1019.37
		C1633.29,1019.37,1633.29,1019.37,1633.29,1019.37C1633.29,1019.37,1633.29,1019.37,1633.29,1019.37z M2410.18,945.46
		C2410.18,945.46,2410.18,945.46,2410.18,945.46C2410.18,945.46,2410.18,945.46,2410.18,945.46z M2366.99,797.24
		c1.84,5.73,4.25,13.31,7.08,22.18c10.24,32.17,29.68,93.25,38.24,116.26c6.17-30.91,24.39-131.06,48.36-266.06
		c25.26-142.26,46.19-262.86,47.62-274.3c-2.06-3.36-13.01-16.82-26.98-32.05c-16.73-18.25-25.74-25.98-29.55-28.39
		c-4.74,17.1-23.64,115.72-47.41,247.74C2387.98,673.45,2374.11,753.33,2366.99,797.24z M1737.83,693.92
		c2.33,28.42,13.08,88.73,28.01,118.13c0.88,1.74,1.81,3.5,2.78,5.29c0.7-1.13,1.42-2.28,2.16-3.46
		c9.1-14.49,20.41-32.52,20.94-49.53c0.93-29.99-3.15-101.02-10.27-115.86c-1.43-2.97-2.81-4.23-3.5-4.15
		c-2.4,0.3-7.36,7.72-9.29,17.35c-1.35,6.77-7.83,15.49-17.33,23.33C1746.8,688.77,1742.19,691.79,1737.83,693.92z M1589.66,480.74
		c1.04,0.73,2.54,1.71,4.02,2.68c13.39,8.75,44.74,29.26,73.73,71.36c22.86,33.19,49.2,74.72,62.2,106.79
		c4.21-3.37,11.77-10.08,19.72-18.21c8.71-8.91,13.52-15.07,15.95-18.95c-13.68-3.52-28.24-10.37-44.68-20.66
		c-22.64-14.17-35.27-36.96-41.88-53.58c-6.91-17.39-9.82-34.96-8.1-39.86c0.61-1.75,2.06-2.89,3.78-3c4-0.26,6.22,3.59,16.9,25.21
		c6.41,12.97,13.67,27.68,19.12,34.57c7.26,9.17,28.14,23.44,43.39,33.87c9.19,6.28,16.45,11.25,19.17,13.96
		c0.81,0.81,1.66,2.11,1.79,4.05c16.94,2.73,32.55-0.42,49.6-9.11c32.34-16.47,87.14-50.18,107.72-73.57
		c19.28-21.91,53.52-82.57,67.67-139.47c1.22-4.9,2.44-9.79,3.65-14.64c5.51-22.11,10.72-42.99,14.43-59.27
		c2.37-10.39,3.72-17.17,4.48-21.6c0,0,0,0,0,0c-6.71,8.51-15.81,20.26-25.33,20.26c-0.77,0-1.54-0.08-2.31-0.24
		c-7.03-1.46-10.33-9.43-13.24-16.47c-1.65-3.98-3.9-9.43-5.94-10.19c-0.17-0.06-0.67-0.25-1.89,0.35c-1.34,0.67-2.69,1.36-4,2.04
		c-8.3,4.28-16.14,8.32-22.43,5.8c-3.04-1.22-5.26-3.78-6.58-7.61c-3.8-10.97-18.33-62.43-21.97-86.48
		c-1.99-13.11-5.93-21.79-10.83-23.82c-2.62-1.09-5.86-0.23-9.62,2.54c-3.73,2.75-6.12,6.47-8.44,10.06
		c-2.94,4.56-5.98,9.27-11.46,10.28c-4.71,0.86-10.04-1.15-17.29-6.51c-7.29-5.39-13.37-11.91-18.74-17.67
		c-12.69-13.61-17.79-17.79-25.21-11.36c-14.2,12.32-48.09,37.93-78.53,54.17c-19.76,10.54-39.01,46.16-48.25,63.27
		c-5.42,10.03-6.08,11.26-8.34,11.8c-1.02,0.25-2.1,0.05-2.98-0.54c-0.38-0.25-0.69-0.5-1.03-0.95c-1.02,9.42-2.43,17.78-3.2,21.99
		c-3.54,19.48-10.21,45.39-17.38,54.27c-3.6,4.46-8.91,7.39-14.81,8.51c-1.85,5.05-3.83,10.56-5.85,16.21
		c-11.28,31.45-19.7,54.24-25.35,60.94c-4.2,4.97-9.99,9.41-14.65,12.99C1594.25,476.82,1591.14,479.2,1589.66,480.74z
		 M1678.54,523.47c3.47,18.47,15.73,55.12,45.95,74.04c14.14,8.85,26.64,15.02,38.28,18.62c-3.49-2.54-8.22-5.77-13.11-9.12
		c-16.51-11.28-37.05-25.33-45.01-35.37c-5.94-7.5-13.38-22.57-19.95-35.87C1682.72,531.76,1680.53,527.31,1678.54,523.47z
		 M2026.15,288.06c0.88,0,1.68,0.29,2.28,0.69c2.54,1.7,2.49,5.1,1.4,12.09c-0.74,4.79-2.09,11.51-4.12,20.53
		c-3.68,16.39-9.07,38.05-14.8,61.04c1.66-5.59,4.48-14.34,7.84-24.78c5.39-16.74,12.09-37.58,17.18-55.18
		c6.31-21.82,7.52-29.84,7.62-32.76c-3.18,0.58-10,3.62-14.32,5.54c-12.92,5.76-21.8,9.33-27.37,6.56c-2.07-1.03-3.45-2.83-4-5.21
		c-1.24-5.36-1.74-25.21-2.33-48.18c-0.45-17.57-1.08-42.2-2.2-53.95c-8.54,11.72-18.93,23.26-29.1,23.26c-0.04,0-0.07,0-0.11,0
		c-3.13-0.03-7.65-1.23-11.39-6.83c-3.04-4.56-6.14-10.45-9.42-16.68c-8.99-17.09-20.18-38.35-32.94-35.26
		c-6.42,1.56-14.79,4.48-23.65,7.57c-9.36,3.27-19.04,6.64-26.7,8.45c-4.68,1.1-15.63,3.69-18.35-3.24
		c-1.47-3.75-0.99-13.31,0.07-31.29c0.62-10.46,1.31-22.31,1.27-31.88c-0.05-11.08-1.11-15.16-1.72-16.59
		c-4.69,2.88-15.05,15.98-23.47,26.62c-18.04,22.8-29.59,36.66-37.85,36.89c-2.17,0.06-4.06-0.76-5.48-2.36
		c-3.57-4.04-6.05-12.24-8.92-21.74c-3.49-11.54-8.26-27.33-14.72-29.56c-0.7-0.24-2.82-0.97-6.82,1.85
		c-19.92,14.03-55.31,52.58-65.45,96.32c-10.21,44.01-8.34,63.71-1.67,82.85c1.84,5.29,2.33,12.99,2.11,21.19
		c0.06,0.15,0.12,0.3,0.17,0.45c0.8,2.05,1.6,4.12,2.32,5.93c0.71-1.3,1.48-2.73,2.25-4.14c9.59-17.75,29.55-54.68,51.26-66.26
		c28.32-15.11,62.18-40.22,77.18-53.23c6.08-5.28,12.54-6.15,19.19-2.59c5.39,2.88,10.4,8.26,16.21,14.48
		c5.15,5.52,10.99,11.78,17.73,16.77c5.26,3.89,9.17,5.63,11.6,5.19c2.24-0.41,3.97-2.94,6.61-7.03c2.43-3.76,5.44-8.45,10.26-12
		c7.44-5.49,13.24-4.88,16.79-3.41c7.55,3.13,12.83,13.33,15.28,29.5c3.52,23.21,18.01,74.69,21.65,85.17
		c0.9,2.61,2.01,3.05,2.37,3.2c3.17,1.27,10.16-2.33,16.33-5.51c1.33-0.69,2.71-1.4,4.09-2.08c2.7-1.34,5.31-1.56,7.74-0.65
		c5.03,1.88,7.52,7.9,10.16,14.27c2.21,5.35,4.72,11.41,7.95,12.08c5.74,1.19,14.68-10.16,20.02-16.95
		c2.97-3.77,5.32-6.75,7.29-8.21C2024.39,288.32,2025.31,288.06,2026.15,288.06z M1642.02,251.9c-1.29,0-2.57,0.42-3.9,1.26
		c-13.98,8.83-26.21,58.25-26.42,92.51c-0.1,15.72,6.22,27.01,17.33,30.97c2.67,0.95,5.47,1.4,8.18,1.35
		c2.15-5.78,4.09-10.76,5.69-14.37c4.17-9.43,9.72-35.2,11.42-60.38c1.9-28.08-1.61-47.01-9.38-50.65
		C1643.94,252.13,1642.98,251.9,1642.02,251.9z M2044.6,262.25c1.5,0,2.76,0.33,3.87,1.05c2.75,1.79,3.09,5.44,1.35,14.46
		c-1.1,5.71-3.04,13.43-5.93,23.58c-5.21,18.34-12.38,40.63-18.15,58.54c-2,6.2-3.8,11.8-5.27,16.46
		c6.71-8.97,16.67-23.75,27.55-42.46c11.54-19.87,31.69-57.4,36.89-85.52c5.56-30.09,2.17-80.29-17.97-124.62
		c-17.84-39.28-55.96-89.57-136.28-106.08C1839.91-1,1769.91,41.83,1736.26,69.02c-12.7,10.26-30.97,26.93-45.84,48.02
		c-10.02,14.2-16.04,27.26-16.1,34.94c-0.16,17.93-6.2,37.48-11.53,54.73c-2.65,8.57-5.15,16.66-6.27,22.78
		c-1.39,7.59-0.13,9.37,0.29,9.73c3.19,2.78,6.59,8.46,10.14,15.85c-4.39-17.72-4.36-38.51,4.51-76.76
		c5.82-25.1,19.25-46.97,29.5-60.91c11.82-16.08,26.35-30.94,38.87-39.75c4.69-3.31,9.22-4.24,13.45-2.79
		c10.01,3.45,14.76,19.17,19.36,34.38c2.37,7.84,4.82,15.94,7.29,18.88c0.73-0.07,3.82-0.97,12.05-9.84
		c6.2-6.67,13.27-15.61,20.11-24.26c13.18-16.67,21.56-27,27.29-29.3c2.09-0.84,4.19-0.61,5.92,0.64c5.84,4.21,5.9,19.8,3.8,55.49
		c-0.65,11.08-1.46,24.78-0.64,27.91c0.67,0.25,3.35,0.78,12.12-1.52c6.93-1.82,15.48-4.8,23.74-7.68
		c9.03-3.15,17.56-6.13,24.34-7.77c8.43-2.05,16.4,1.67,24.35,11.35c6.32,7.69,11.9,18.29,16.81,27.63
		c3.19,6.06,6.2,11.78,9.03,16.02c2.11,3.17,4.06,3.55,5.33,3.56c3.6,0.04,8.79-3.38,14.58-9.59c5.26-5.64,9.71-12.1,12.11-15.57
		l0.67-0.97c1.1-1.58,2.92-2.28,4.64-1.76c2.96,0.89,3.6,4.28,4.18,8.98c0.42,3.45,0.79,8.27,1.13,14.74
		c0.61,11.85,1.01,27.19,1.38,42.03c0.53,20.69,1.07,42.08,2.14,46.72c0.04,0.17,0.08,0.26,0.1,0.28l0,0c0.01,0,1.25,0.83,6.88-0.91
		c4.25-1.32,9.33-3.59,14.24-5.78C2034.85,264.69,2040.56,262.25,2044.6,262.25z"/>
</g>
</svg>
