<?xml version="1.0" encoding="utf-8"?>
<!-- Generator: Adobe Illustrator 21.0.0, SVG Export Plug-In . SVG Version: 6.00 Build 0)  -->
<svg version="1.1" id="Layer_1" xmlns="http://www.w3.org/2000/svg" xmlns:xlink="http://www.w3.org/1999/xlink" x="0px" y="0px"
	 viewBox="0 0 6000 687.5" enable-background="new 0 0 6000 687.5" xml:space="preserve">
<g>
	<path fill="#526D82" d="M3690.52,670.06c-47.11-0.96-83.74-6.63-85.92-9.86c0.63,0.94,8.04,0.03,9.46-0.02
		c7.44-0.26,14.1,0.78,21.43,1.84c5.22,0.76,10.74,1.21,15.82,1.84c9.24,1.14,22.46,1.89,39.29,2.23
		c31.62,0.65,76.79-0.12,134.26-2.28c99.88-3.75,238.14-11.75,399.82-23.15c135.34-9.54,282.05-21.13,402.5-31.81
		c115.29-10.22,189.35-18.07,198.11-21.01c25.58-8.59,41.84,16.11,56.18,37.91c7.5,11.39,14.58,22.15,22.23,27.36
		c9.98,6.8,36.93,7.67,72.09,2.34c33.37-5.06,68.31-14.75,91.19-25.27c29.97-13.78,52.64-5.61,76.64,3.04
		c14.58,5.26,29.66,10.69,47.24,11.45c9.14,0.39,20.73-2.46,34.51-8.49c-4.46,0.44-8.74,0.49-12.82,0.14
		c-15.35-1.32-27.97-8.25-37.52-20.59c-11.37-14.71-36.01-65.17-55.8-105.71c-3.52-7.2-7.07-14.49-10.35-21.14
		c5.04,12.91,9.96,25.74,14.39,37.39c0.12,0.23,0.24,0.47,0.35,0.7c14.22,28.05,31.34,62.53,32.1,64.96
		c0.24,0.78,0.02,1.61-0.59,2.19c-0.87,0.83-2.07,1.96-39.2,4.9c-20.55,1.63-48.87,3.52-79.73,5.32
		c-28.96,1.69-58.12,3.19-80.01,4.11c-37.1,1.55-38.88,0.89-39.64,0.6c-4.65-1.74-8.71-13.07-10.71-19.67
		c-1.26-4.15-2.48-9.09-3.13-13.49c-0.25-0.01-0.49-0.04-0.74-0.07c-4.01-0.54-6.64-3.62-7.58-4.92c-0.38-0.53-0.64-0.87-3.72-17.53
		c-1.88-10.16-4.51-24.84-7.6-42.45c-6.52-37.12-14.51-83.85-21.93-128.21c-6.05-36.2-14.61-88.08-20.98-129.62
		c-9.24-60.23-8.42-63.03-8.06-64.22c1.74-5.88,12.58-16.3,18.88-21.98c9.15-8.25,19.15-15.94,24.32-18.69
		c2.16-1.15,3.49-1.48,4.58-1.14l0.34,0.1c4.75,1.47,7.82,3.05,10.87,16.27c1.49,6.46,13.56,73.08,25.06,139.85
		c6.38,37.08,11.63,68.62,15.16,91.22c6.61,42.23,5.9,44.25,5.52,45.33c-0.28,0.8-0.82,2.44-1.55,4.7
		c1.73,10.73,2.75,17.82,2.66,19.07c-0.04,0.65-0.28,1.86-0.69,3.55c0.54-1.6,0.92-2.42,1.24-2.81c0.79-0.94,1.48-1.76,26.31-3.07
		c16.77-0.89,37.82-1.6,52.52-2.05c22.38-0.68,62.27-1.63,74.95-1.42c-4.58-11.33-8.62-21.02-12.07-28.97
		c-9.6-22.11-12.49-25.62-13.19-26.17c-4.25-1.54-15.81-5.34-26.79-8.6c-1.18-0.35-2.29-0.68-3.36-0.98
		c0.06,1.02-0.18,1.97-0.71,2.8c-1.72,2.67-7.39,3.95-10.62,4.47c-8.12,1.32-19.09,0.9-25.52-4.25c-9.46-7.58-8.35-15.27-7.19-23.4
		c0.1-0.72,0.21-1.45,0.31-2.19c0.17-1.3,0.43-2.78,0.73-4.34c-0.44-0.17-0.84-0.45-1.18-0.84c-2.64-3.01-3.6-7.04-2.87-11.97
		c0.35-2.35,5.17-11.09,8.32-16.4c1.23-2.07,2.33-3.85,3.31-5.36c-0.39-0.2-0.76-0.45-1.1-0.74c-2.27-1.96-8.87-6.93-21.06-10.74
		c-1.53-0.48-3.04-0.93-4.5-1.37c-5.25-1.58-9.79-2.95-13.16-4.7c-1.58-0.82-6.37-3.31-5.86-8.29c0.12-1.22,0.71-3.01,2.82-4.63
		c5.41-4.15,18.92-5.33,33.63-2.95c19.6,3.17,45.82,8.4,74.85,20.75c13.71,5.83,28.01,15.15,42.51,27.7
		c11.41,9.88,22.74,21.68,31.9,33.24c6.37,8.04,13.32,19.89,20.67,32.43c11.47,19.58,24.47,41.76,39.95,58.15
		c16.23,17.18,28.58,25.12,36.75,30.36c4.83,3.1,8.02,5.15,9.55,7.67c0.63,1.04,1.19,2.37,1.68,3.82c1.37-0.95,3.25-1.59,5.82-1.48
		c6.94,0.3,26.7,13.76,37.86,21.75c16.29,11.66,31.23,23.8,35.54,28.85c1.07,1.25,1.75,2.32,1.61,3.48
		c-0.08,0.68-0.18,1.52-4.74,6.02c-2.82,2.78-6.68,6.29-11.15,10.16c-6.4,5.53-19.68,16.59-36.65,28.57
		c-5.93,4.19-12.4,8.55-19.15,12.77c0.44-0.2,0.89-0.4,1.34-0.6c18.56-8.42,38.57-21.88,52.09-31.69
		c12-8.71,21.19-16.21,25.28-19.83c-2.07-4.92-4.54-9.66-7.56-13.83c-11.94-16.49-58.79-41.33-81.31-53.26
		c-8.37-4.44-12.12-6.44-13.23-7.35c-4-3.29,0.62-11.33,9.81-26.45c2.1-3.45,4.24-6.97,6.21-10.4c-0.73-1.2-1.51-2.45-2.31-3.72
		c-5.16-8.22-11.59-18.45-11.9-28.71c-0.52-16.72,1.63-55.39,5.93-64.35c1.95-4.06,4.31-4.66,5.95-4.45
		c4.44,0.56,7.46,7.79,8.4,12.51c0.85,4.24,7.33,10.57,13.18,13.89c0.46-2.81,1.33-5.95,2.53-9.33c-2.89-2.11-7.85-6.73-11.12-10.02
		c-5.47-5.5-9.05-9.86-10.71-13.02c-2.52,0.43-4.99,0.65-7.44,0.65c-7.41,0-14.6-1.97-22.19-5.83
		c-17.73-9.03-47.84-27.59-59.29-40.6c-10.67-12.12-29.59-45.6-37.38-76.91c-0.46-1.87-0.93-3.74-1.39-5.59
		c0.04,0.62-0.08,1.38-0.71,1.97c-0.59,0.56-1.44,0.73-2.25,0.46c-0.68-0.22-2.11-0.69-8.17-9.22c-3.93-5.53-8.4-12.51-12.59-19.66
		c-6.53-11.15-17.92-32.25-20.88-48.29c-1.6-8.66-1.79-19.58-0.55-30.74c1.52-13.6,5.16-27.03,10.53-38.85
		c6.58-14.49,15.72-26.75,27.16-36.43c13.4-11.34,29.94-19.09,49.17-23.05c50.56-10.4,89.48,13.4,108.17,28.51
		c21.73,17.56,34.81,38.1,34.89,47.81c0.08,9.09,3.25,19.35,6.04,28.39c3.32,10.74,5.72,18.5,2.05,21.7
		c-3.05,2.66-7.82,14.68-10.62,21.87c0.6,15.89,6.24,40.95,10.82,46.62c0.82,1.02,1.91,1.82,3.15,2.39
		c-0.78-2.03-1.48-3.79-2.08-5.15c-2.44-5.51-5.53-19.7-6.49-33.91c-0.52-7.65-0.33-14.1,0.55-19.15c1.12-6.4,3.4-10.45,6.79-12.04
		c2.48-1.16,5.07-0.98,7.47,0.54c5.73,3.62,9.56,14.27,11.76,22.57c2.62,9.86,4.28,21.61,4.34,30.67c0.03,5.4-1.14,9.99-3.48,13.63
		c-2.07,3.23-5.01,5.59-8.51,6.83c-1.41,0.5-2.86,0.81-4.3,0.92c0.83,2.29,1.7,4.71,2.58,7.18c4.52,12.61,10.15,28.31,12.98,31.66
		c1.99,2.35,4.8,4.51,7.29,6.42c1.66,1.27,3.09,2.37,4.09,3.38c2.19,2.22,1.78,3.84,1.05,4.81c-0.5,0.66-1.36,1.24-3.78,2.82
		c-7.03,4.6-23.49,15.36-38.69,37.43c-10.7,15.54-19.3,29.32-25.55,40.95c-1.54,2.87-2.94,5.6-4.18,8.18
		c2.08-2.8,4.7-6.54,7.96-11.46c6.88-10.38,14.68-23.13,20.34-33.27c7.31-13.1,18.97-22.63,29.25-31.04
		c7.1-5.81,13.24-10.82,16.63-15.91c2.63-3.94,8.11-6.46,15.45-7.1c10.61-0.93,23.99,1.96,37.67,8.13
		c16.14,7.28,32.09,18.89,46.11,33.58c36.16,37.88,82.22,159.24,109.75,231.75c4.27,11.26,7.96,20.98,11.11,29.05
		c1.69,4.32,3.23,8.38,4.73,12.3c9.19,24.07,15.26,39.97,26.36,46.58c10.79,6.43,27.49,4.92,59.57-5.39
		c16-5.14,42.33-8.11,78.28-8.82c28.65-0.57,63.48,0.28,103.52,2.52c68.14,3.81,128.58,10.43,129.18,10.5l-0.43,3.94
		c-0.6-0.07-60.94-6.67-128.97-10.48c-39.94-2.23-74.66-3.08-103.21-2.51c-35.56,0.71-61.51,3.61-77.14,8.63
		c-16.81,5.4-29.1,8.31-38.7,9.17c-10.16,0.91-17.83-0.41-24.11-4.15c-12.28-7.31-18.54-23.73-28.03-48.57
		c-1.49-3.91-3.04-7.96-4.72-12.27c-3.15-8.09-6.85-17.82-11.12-29.09c-13.43-35.39-31.83-83.85-51.28-128
		c-22.85-51.84-42.23-86.3-57.62-102.43c-28.93-30.31-61.31-42.18-80.57-40.5c-6.11,0.53-10.55,2.43-12.5,5.35
		c-3.72,5.58-10.07,10.77-17.42,16.78c-10.01,8.18-21.36,17.46-28.3,29.9c-6.11,10.94-14.4,24.46-21.66,35.27
		c-3.76,5.61-7.07,10.22-9.56,13.33c-2.36,2.94-3.95,4.57-5.25,5.2c-1.42,3.92-2.3,7.3-2.64,10.14c0.99,0.33,1.9,0.5,2.71,0.5
		c1.56-0.69,6.01-7.24,9.94-13.02c14.93-21.96,42.71-62.85,85.28-72.29c8.88-1.97,17.53-1.67,25.73,0.89
		c7.67,2.4,14.95,6.77,21.63,13.01c13.84,12.92,25.01,33.98,31.45,59.29c6.27,24.64,7.71,51.56,4.05,75.8
		c-6.14,40.67-33.03,85.85-48.51,109.16c-9.92,14.93-20.6,29.17-30.09,40.08c-4.26,4.91-8.15,8.97-11.24,11.74
		c-4.61,4.14-6.57,4.67-7.76,4.67c-6.29,0-8.91-9.34-12.53-22.27c-1.67-5.97-3.55-12.69-6.03-19.26
		c-5.21,4.53-14.58,11.9-23.8,18.62c-13.85,10.09-34.38,23.93-53.48,32.61c-7.68,3.49-15.04,6.16-22.04,8.01
		c-16.7,8.79-33.68,15.23-47.6,15.23c-0.63,0-1.25-0.01-1.87-0.04c-18.19-0.79-33.56-6.33-48.42-11.68
		c-23.22-8.37-45.15-16.28-73.64-3.17c-23.2,10.67-58.55,20.47-92.25,25.59c-16.94,2.57-32.5,3.78-44.97,3.49
		c-14.06-0.33-24.13-2.5-29.95-6.46c-8.31-5.66-15.6-16.74-23.31-28.46c-7.09-10.77-14.42-21.92-22.89-29.32
		c-9.39-8.2-18.51-10.43-28.71-7.01c-9.17,3.08-81.71,10.81-199.02,21.2c-120.48,10.68-267.21,22.27-402.58,31.81
		c-161.72,11.4-300.02,19.41-399.95,23.15c-44.36,1.66-81.41,2.5-110.58,2.5C3705.76,670.29,3697.78,670.21,3690.52,670.06z
		 M5274.63,607.46c27.18-19.03,48.88-38.72,52.11-42.89c-0.69-0.93-2.93-3.46-10.14-9.47c-6.17-5.15-14.06-11.25-22.22-17.18
		c-19.06-13.85-34.23-22.93-38.65-23.12c-2.08-0.09-3.51,0.5-4.43,1.84c0.56,2.35,0.94,4.54,1.15,5.87
		c1.66,10.43,0.38,11.33-0.39,11.86c-0.82,0.57-2.13,0.63-3.1-0.58c-1.91-2.38-4.31-11.8-1.86-17.67c-0.6-2.29-1.31-4.29-2.08-5.56
		c-1.05-1.73-4.1-3.69-8.31-6.39c-7.83-5.03-20.93-13.44-37.49-30.98c-15.79-16.71-28.91-39.11-40.49-58.87
		c-7.28-12.42-14.15-24.15-20.35-31.97c-16.62-20.97-44.49-47.68-72.85-59.76c-28.63-12.18-54.55-17.35-73.93-20.49
		c-15.73-2.55-26.88-0.66-30.58,2.18c-0.79,0.61-1.23,1.24-1.29,1.88c-0.39,3.79,7.31,6.11,16.22,8.79c1.47,0.44,2.99,0.9,4.54,1.39
		c12.44,3.89,19.41,8.89,22.46,11.53c0.2,0.17,0.46,0.3,0.76,0.39c3.95-5.57,5.26-5.63,6.07-5.67c1-0.05,2.17,0.56,2.53,2.01
		c0.63,2.6-0.43,5.02-2.84,6.5c-1.05,0.64-2.37,1.08-3.73,1.22c-1.26,1.89-2.79,4.32-4.6,7.39c-4.45,7.55-7.19,13.22-7.39,14.25
		c-0.46,3.09-0.09,5.65,1.1,7.63c0.55-2.42,1.14-4.81,1.67-6.84c0.69-2.63,1.38-5.02,1.94-6.73c0.78-2.37,1.34-4.08,3.06-4.08
		c0.02,0,0.04,0,0.06,0c0.93,0.02,1.92,0.67,2.05,2.08c0.18,1.95-1.22,7.24-2.2,10.32c-1.12,3.52-2.11,5.74-2.94,7.16
		c-0.61,2.76-1.11,5.41-1.4,7.55c-0.1,0.75-0.21,1.5-0.31,2.23c-1.13,7.88-1.95,13.58,5.74,19.75c5.29,4.24,15.14,4.54,21.96,3.5
		c5.41-0.82,8.01-2.25,8.37-2.78c0.26-0.4-0.09-1.16-0.25-1.47c-0.08-0.16-0.17-0.32-0.28-0.48c-11.85-3.27-14.95-3.4-15.7-3.33
		c-0.9,0.75-1.84,1.74-2.68,2.63c-1.88,1.99-3.01,3.19-4.61,2.74c-0.82-0.23-1.44-0.9-1.63-1.79c-0.35-1.56-0.07-5.04,2.17-7.7
		c1.41-1.68,4.14-3.63,9.13-3.4c6.47,0.3,12.55,3.75,15.66,7.39c1.74,0.49,3.58,1.02,5.53,1.59c11.51,3.38,23.84,7.44,28.31,9.06
		c1.72,0.63,5.11,1.86,28.26,59.26c1.01,0.59,2.62,2.89,8.96,15.37c4.5,8.87,10.34,20.83,17.1,34.68
		c18.68,38.25,44.25,90.64,55.38,105.03c13.8,17.85,34.05,23.37,60.35,16.51C5249.68,623.96,5261.78,616.46,5274.63,607.46z
		 M5373.66,304.99c-41.04,9.1-68.24,49.14-82.86,70.65c-7.41,10.91-10.12,14.69-13,14.75c-0.99,0.02-2.09-0.13-3.27-0.44
		c-1.48,16.08-7.34,48.13-15.42,64.05c-0.83,1.63-1.72,3.29-2.67,4.98c1.85,3.23,3.05,5.96,3.01,8.2
		c-0.08,4.65-4.4,11.26-7.86,16.56c-1.02,1.56-2.23,3.41-2.87,4.59c0.38,0.15,0.82,0.32,1.26,0.49
		c36.02,14.06,61.63,28.91,76.11,44.14c10.19,10.71,16.41,19.54,18.51,26.25c1.9,6.08,0.07,9.18-0.81,10.66
		c-0.07,0.12-0.13,0.22-0.18,0.32c-0.14,0.25-0.46,0.64-0.96,1.15c2.82,7.2,4.89,14.57,6.71,21.08c2.66,9.51,5.41,19.33,8.69,19.37
		c1.2-0.16,6.17-3.63,16.55-15.64c9.4-10.88,19.94-24.99,29.69-39.72c15.15-22.9,41.47-67.25,47.47-106.91
		c7.52-49.75-7.22-106.33-34.29-131.6c-10.07-9.4-21.17-14.13-33.13-14.13C5380.83,303.79,5377.28,304.19,5373.66,304.99z
		 M5136.54,561.46c0.99,2.66,1.85,4.98,2.56,6.89c0.18,0.48,0.29,0.78,0.32,0.87c0.32,0.86,0.04,1.82-0.72,2.38
		c-0.78,0.59-1.76,1.32-32.33,2.61c-16.77,0.71-39.98,1.47-65.37,2.13c-23.54,0.62-47.25,1.11-65.06,1.34
		c-9.21,0.12-16.5,0.17-21.68,0.16c-8.97-0.03-9.21-0.21-9.85-0.7c-1.04-0.78-1.16-1.88-0.73-6.55c0.26-2.77,0.73-6.73,1.42-11.77
		c1.53-11.24,3.73-25.27,5.31-35.07c3.25-20.15,8.54-51.09,9.56-53.48c0.53-1.25,1.72-1.81,7.34-2.48c3.37-0.41,8.2-0.82,14.37-1.22
		c13.56-0.89,30.79-1.57,42.85-1.99c14.72-0.51,30.44-0.92,43.11-1.13c20.06-0.33,21.06,0,21.54,0.16
		c1.05,0.35,1.81,0.6,12.43,20.66c1.52,2.86,3.11,5.9,4.74,9.02c-1.31-3.37-2.63-6.74-3.95-10.11c-3-7.64-5.83-14.78-8.5-21.4
		c-7.04-0.22-38.57,0.27-75.24,1.37c-51.43,1.54-73.46,3.09-77.2,4.01c-1.25,3.06-5.12,18.19-8.86,32.85
		c-3.85,15.06-8.2,32.13-12.15,46.04c-6.12,21.57-8.44,25.73-10.05,27.01c-1.24,0.99-2.5,1.73-3.76,2.2
		c0.56,3.73,1.6,8.32,3.01,12.97c3.44,11.35,6.86,16.46,8.25,17.08c4.13,0.84,56.56-1.34,117.22-4.89
		c60.79-3.55,106.8-7.13,116.09-9C5149.27,587.21,5143.74,575.91,5136.54,561.46z M5119.66,527.89
		c-20.51-40.42-29.9-57.61-32.03-60.51c-4.41-0.3-31.46,0.11-61.61,1.13c-40.93,1.39-59,2.94-62.56,3.92
		c-1.02,4.13-4.8,25.19-8.88,50.41c-5.09,31.46-7,46.62-7.16,50.95c8,0.37,48.69-0.22,93.69-1.4c49.1-1.29,85.3-2.78,93.84-3.84
		C5131.85,560.23,5126.32,545.41,5119.66,527.89z M4931.2,457.39c-3.97,12.48-9.41,29.58-14,43.44c-2.51,7.57-4.53,13.48-6.01,17.57
		c-0.84,2.32-1.54,4.13-2.06,5.36c-0.83,1.94-1.34,2.88-2.46,3.15c-0.7,0.17-1.43-0.03-1.94-0.54c-0.57-0.57-0.71-0.7-3.28-14.17
		c-1.5-7.86-3.61-19.22-6.26-33.75c-4.75-26-11.24-62.16-18.29-101.82c-6.58-37.04-13.11-74.2-17.93-101.96
		c-8.12-46.81-8.02-47.42-7.93-47.97c0.09-0.56,0.22-1.32,4.81-6.91c2.74-3.34,6.33-7.47,9.85-11.34
		c6.72-7.39,15.53-16.48,19.35-17.85c1.6-0.57,2.58,0,3.03,0.39c0.65,0.57,1.05,0.91,3.64,13.19c1.51,7.13,3.54,17.34,6.04,30.36
		c4.52,23.53,10.52,55.97,16.9,91.33c4.98,27.64,11.2,62.77,15.97,90.66c-2.64-18.5-7.98-52.28-18.59-113.88
		c-11.39-66.14-23.33-132-24.79-138.32c-2.69-11.67-4.76-12.31-8.18-13.37l-0.12-0.04c-1.99,0.41-10.83,6.28-22.29,16.26
		c-11.41,9.94-19.54,18.88-20.73,22.79c-0.23,1.3,0.12,10.09,8.23,62.9c6.32,41.14,14.76,92.33,20.72,128.03
		c15.99,95.66,31.27,182.23,32.89,187.88c0.72,0.94,2.33,2.68,4.52,3.08c-0.14-2.27-0.02-4.21,0.45-5.56
		c2.76-7.9,30.8-96.11,31.27-102.96c0.03-0.82-0.46-4.46-1.39-10.44C4932.18,454.34,4931.7,455.84,4931.2,457.39z M4906.49,567.62
		c-0.26,0.74-0.34,1.95-0.27,3.5c0.56-0.3,1.13-0.68,1.71-1.14c0.67-0.6,2.86-4.28,8.81-25.3c3.91-13.8,8.23-30.72,12.04-45.64
		c1.53-5.97,2.8-10.95,3.88-15.09C4924.16,512.89,4908.36,562.26,4906.49,567.62z M4897.82,568.96
		C4897.82,568.96,4897.82,568.96,4897.82,568.96C4897.82,568.96,4897.82,568.96,4897.82,568.96z M5249.04,471.49
		c-3.21,5.27-6.24,10.26-8.27,14.29c-2.71,5.38-2.46,6.83-2.37,7.08c0.98,0.76,6.34,3.6,12.52,6.88
		c11.56,6.13,29.04,15.39,45.18,25.25c19.73,12.05,31.99,21.6,37.49,29.19c2.85,3.94,5.22,8.32,7.24,12.85
		c0.58-1.22,1.06-3.15-0.02-6.62c-1.91-6.12-7.83-14.43-17.6-24.7c-14.08-14.8-39.2-29.33-74.68-43.18
		c-2.15-0.84-2.72-1.07-3.06-1.26c-0.56-0.32-0.95-0.84-1.1-1.47c-0.38-1.57,0.7-3.34,3.89-8.21c2.85-4.36,7.16-10.95,7.22-14.46
		c0.02-0.99-0.51-2.4-1.36-4.09C5252.47,465.84,5250.74,468.69,5249.04,471.49z M5327.08,564.07
		C5327.08,564.07,5327.09,564.06,5327.08,564.07C5327.09,564.06,5327.09,564.07,5327.08,564.07z M4907.95,524.19
		C4907.95,524.19,4907.95,524.19,4907.95,524.19C4907.95,524.19,4907.95,524.19,4907.95,524.19z M4911.1,328.43
		c-12.83-71.23-23.02-124.43-25.58-133.66c-2.06,1.3-6.92,5.47-15.94,15.31c-7.54,8.22-13.44,15.48-14.56,17.29
		c0.77,6.17,12.06,71.24,25.69,147.99c12.93,72.83,22.76,126.87,26.09,143.54c4.62-12.41,15.11-45.37,20.63-62.72
		c1.52-4.79,2.83-8.88,3.82-11.97C4927.4,420.53,4919.92,377.44,4911.1,328.43z M5263.4,383.68c-5.12-4.23-8.62-8.94-9.35-12.59
		c-1.04-5.19-3.71-9.2-5.01-9.36c-0.37-0.04-1.12,0.63-1.89,2.24c-3.84,8.01-6.04,46.33-5.54,62.51c0.28,9.18,6.39,18.9,11.3,26.72
		c0.4,0.64,0.79,1.26,1.17,1.86c0.52-0.96,1.02-1.92,1.5-2.85c8.05-15.86,13.85-48.4,15.11-63.73
		C5268.33,387.33,5265.84,385.7,5263.4,383.68z M5346.85,270.35c-2.51-1.93-5.64-4.33-7.9-7.01c-3.05-3.61-7.59-15.91-13.68-32.88
		c-1.09-3.04-2.16-6.02-3.16-8.74c-3.19-0.61-6.05-2.19-7.99-4.59c-3.86-4.79-7.46-18.76-9.37-29.28
		c-0.41-2.27-1.18-6.79-1.72-11.87c-0.18,0.24-0.35,0.38-0.56,0.51c-0.48,0.32-1.07,0.42-1.63,0.28c-1.2-0.3-1.57-0.99-4.48-6.36
		c-4.99-9.23-15.37-28.45-26.03-34.14c-16.43-8.76-34.71-22.57-42.37-29.22c-4-3.47-6.76-1.21-13.6,6.13
		c-2.9,3.1-6.18,6.62-10.11,9.53c-3.91,2.89-6.79,3.97-9.33,3.51c-2.96-0.54-4.6-3.09-6.18-5.54c-1.25-1.94-2.54-3.95-4.55-5.43
		c-2.03-1.5-3.78-1.96-5.19-1.37c-2.64,1.09-4.77,5.78-5.84,12.85c-1.97,12.98-9.8,40.74-11.85,46.66c-0.72,2.07-1.91,3.45-3.55,4.1
		c-3.39,1.36-7.62-0.82-12.1-3.13c-0.71-0.36-1.44-0.74-2.16-1.1c-0.65-0.33-0.93-0.22-1.02-0.19c-1.1,0.41-2.32,3.35-3.21,5.5
		c-1.57,3.79-3.35,8.09-7.14,8.88c-0.42,0.09-0.83,0.13-1.25,0.13c-5.05,0-9.88-6.13-13.48-10.7c-0.06-0.08-0.12-0.16-0.18-0.23
		c0.41,2.39,1.14,6.05,2.42,11.65c2,8.79,4.81,20.05,7.79,31.98c0.65,2.61,1.31,5.25,1.97,7.9c7.63,30.7,26.11,63.43,36.51,75.25
		c11.1,12.62,40.67,30.81,58.11,39.69c9.2,4.69,17.62,6.39,26.76,4.91c0.07-1.05,0.53-1.75,0.96-2.19
		c1.47-1.47,5.38-4.14,10.34-7.53c8.23-5.62,19.49-13.33,23.41-18.27c2.94-3.72,6.86-11.65,10.32-18.65
		c5.76-11.67,6.96-13.74,9.12-13.6c0.93,0.06,1.71,0.68,2.04,1.62c0.92,2.64-0.64,12.12-4.37,21.5
		c-3.56,8.97-10.38,21.26-22.59,28.91c-8.87,5.55-16.73,9.25-24.11,11.15c1.31,2.1,3.9,5.42,8.61,10.23
		c4.29,4.39,8.36,8.01,10.64,9.82c7.01-17.3,21.22-39.71,33.56-57.62c15.64-22.71,32.56-33.77,39.78-38.5
		c0.8-0.52,1.61-1.05,2.17-1.44C5349.83,272.64,5348.15,271.35,5346.85,270.35z M5299.35,303.15c-3.54,7.18-7.56,15.31-10.76,19.35
		c-4.29,5.42-15.37,13-24.28,19.08c-2.64,1.8-5.19,3.55-7.07,4.92c6.28-1.94,13.03-5.27,20.65-10.04
		c16.3-10.2,22.92-29.98,24.79-39.94C5301.6,298.59,5300.41,300.99,5299.35,303.15z M5116.57,170.02c1.07,0.79,2.33,2.39,3.93,4.43
		c2.88,3.66,7.71,9.79,10.8,9.14c1.74-0.36,3.09-3.63,4.29-6.52c1.42-3.44,2.76-6.68,5.48-7.7c1.31-0.49,2.72-0.37,4.17,0.35
		c0.75,0.37,1.49,0.75,2.21,1.12c3.33,1.71,7.1,3.66,8.81,2.97c0.2-0.08,0.79-0.32,1.28-1.72c1.96-5.65,9.78-33.43,11.68-45.95
		c1.32-8.73,4.17-14.23,8.25-15.92c1.92-0.79,5.04-1.12,9.06,1.84c2.6,1.91,4.23,4.44,5.53,6.47c1.42,2.21,2.35,3.57,3.56,3.79
		c1.31,0.24,3.42-0.7,6.26-2.8c3.64-2.69,6.79-6.07,9.57-9.05c3.13-3.36,5.84-6.26,8.74-7.81c3.59-1.92,7.07-1.45,10.35,1.4
		c8.09,7.02,26.36,20.57,41.64,28.72c11.72,6.25,22.48,26.17,27.66,35.75c0.41,0.76,0.83,1.53,1.21,2.23
		c0.39-0.98,0.82-2.1,1.25-3.2c0.03-0.08,0.06-0.16,0.09-0.24c-0.12-4.42,0.15-8.58,1.14-11.43c3.6-10.33,4.6-20.95-0.9-44.7
		c-5.47-23.59-24.56-44.39-35.31-51.96c-2.16-1.52-3.3-1.13-3.68-1c-3.48,1.2-6.06,9.72-7.94,15.95c-1.55,5.12-2.89,9.55-4.81,11.73
		c-0.76,0.87-1.78,1.31-2.95,1.28c-4.46-0.12-10.69-7.6-20.42-19.9c-4.54-5.74-10.13-12.81-12.66-14.36
		c-0.33,0.77-0.91,2.97-0.93,8.95c-0.02,5.16,0.35,11.56,0.69,17.2c0.57,9.7,0.83,14.86,0.04,16.88c-1.47,3.74-7.38,2.34-9.9,1.75
		c-4.14-0.98-9.36-2.8-14.41-4.56c-4.78-1.67-9.29-3.24-12.76-4.08c-6.88-1.67-12.92,9.8-17.77,19.02c-1.77,3.36-3.44,6.54-5.08,9
		c-2.02,3.02-4.45,3.67-6.14,3.69c-0.02,0-0.04,0-0.06,0c-5.48,0-11.09-6.23-15.7-12.55c-0.61,6.34-0.95,19.63-1.19,29.11
		c-0.32,12.4-0.59,23.1-1.26,26c-0.3,1.28-1.04,2.25-2.16,2.81c-3,1.5-7.8-0.43-14.77-3.54c-2.33-1.04-6.01-2.68-7.73-2.99
		c0.06,1.58,0.71,5.9,4.11,17.67c2.74,9.5,6.36,20.74,9.27,29.77c1.81,5.64,3.33,10.35,4.23,13.37c-3.09-12.4-6-24.09-7.99-32.93
		c-1.09-4.87-1.82-8.49-2.22-11.08c-0.59-3.77-0.62-5.61,0.76-6.52c0.32-0.22,0.75-0.37,1.23-0.37
		C5115.59,169.52,5116.08,169.66,5116.57,170.02z M5320.81,150.38c-4.19,1.96-6.09,12.18-5.06,27.33
		c0.92,13.59,3.91,27.49,6.16,32.57c0.86,1.95,1.91,4.63,3.07,7.75c1.46,0.02,2.97-0.22,4.41-0.73c5.99-2.14,9.4-8.23,9.35-16.71
		c-0.11-18.48-6.71-45.15-14.25-49.91c-0.72-0.45-1.41-0.68-2.1-0.68C5321.86,150,5321.34,150.13,5320.81,150.38z M5115.09,158.98
		c2.65,1.18,5.39,2.4,7.68,3.12c3.03,0.94,3.71,0.49,3.71,0.49l0,0c0.01-0.01,0.03-0.06,0.05-0.15c0.58-2.5,0.87-14.04,1.16-25.21
		c0.2-8,0.42-16.28,0.75-22.68c0.18-3.49,0.38-6.09,0.61-7.95c0.31-2.53,0.66-4.37,2.25-4.84c0.93-0.28,1.91,0.1,2.5,0.95l0.36,0.52
		c1.29,1.87,3.7,5.36,6.53,8.4c3.12,3.35,5.93,5.2,7.87,5.18c0.69-0.01,1.74-0.21,2.88-1.92c1.53-2.29,3.15-5.38,4.87-8.64
		c2.65-5.04,5.66-10.76,9.07-14.91c4.29-5.22,8.59-7.22,13.14-6.12c3.65,0.89,8.26,2.49,13.13,4.19c4.46,1.56,9.07,3.17,12.81,4.15
		c4.73,1.24,6.18,0.96,6.54,0.82c0.44-1.69,0-9.08-0.35-15.06c-1.13-19.25-1.1-27.67,2.05-29.94c0.93-0.67,2.07-0.8,3.2-0.35
		c3.1,1.24,7.61,6.81,14.73,15.81c3.69,4.66,7.51,9.49,10.85,13.09c4.44,4.78,6.11,5.27,6.5,5.31c1.33-1.59,2.65-5.96,3.93-10.19
		c2.48-8.2,5.05-16.69,10.45-18.55c2.28-0.79,4.72-0.28,7.26,1.5c6.75,4.76,14.59,12.77,20.97,21.45
		c5.53,7.52,12.78,19.32,15.92,32.86c4.79,20.64,4.8,31.85,2.43,41.41c1.91-3.99,3.75-7.05,5.47-8.55c0.23-0.2,0.91-1.16,0.15-5.25
		c-0.61-3.3-1.96-7.67-3.39-12.29c-2.88-9.31-6.14-19.85-6.22-29.53c-0.04-4.14-3.28-11.19-8.69-18.85
		c-8.03-11.38-17.88-20.37-24.73-25.91c-18.15-14.67-55.92-37.78-104.88-27.71c-43.33,8.91-63.9,36.04-73.52,57.23
		c-10.86,23.92-12.69,51-9.69,67.23c2.81,15.17,13.67,35.42,19.9,46.14c5.87,10.1,11.24,18.07,14.86,22.91
		c-0.79-2.52-1.77-5.54-2.84-8.88c-3.11-9.66-6.98-21.69-9.79-31.58c-1.56-5.48-2.6-9.64-3.2-12.72c-0.94-4.87-0.76-6.83,0.73-7.8
		c0.6-0.39,1.28-0.57,2.09-0.57C5107.36,155.59,5110.44,156.9,5115.09,158.98z"/>
</g>
</svg>
