<?xml version="1.0" encoding="utf-8"?>
<!-- Generator: Adobe Illustrator 21.0.0, SVG Export Plug-In . SVG Version: 6.00 Build 0)  -->
<svg version="1.1" id="Layer_1" xmlns="http://www.w3.org/2000/svg" xmlns:xlink="http://www.w3.org/1999/xlink" x="0px" y="0px"
	 viewBox="0 0 6000 266" enable-background="new 0 0 6000 266" xml:space="preserve">
<g>
	<path fill="none" d="M1171.09,247.91c-0.65,0.22-1.23,0.45-1.8,0.68c0.96,0.1,1.92,0.19,2.9,0.28c0.35-0.07,0.71-0.13,1.07-0.2
		L1171.09,247.91z"/>
	<path fill="none" d="M2811.64,252.52c2.8-0.35,5.57-0.72,8.25-1.12C2815.87,251.53,2813.16,251.92,2811.64,252.52z"/>
	<path fill="none" d="M3572.38,224.91c-5.58-4.02-20.94,0.36-28.64,1.77C3556.83,228.94,3563.57,232.67,3572.38,224.91z"/>
	<path fill="none" d="M4119.76,119.37c-0.01,0-0.02,0-0.03,0c-0.42,0.92,0.37,1.87,3.44,2.87l3.37-0.77
		C4123.59,120.93,4121.25,120.26,4119.76,119.37z"/>
	<path fill="none" d="M3552.22,210.06c1.7,0.18,3.35,0.38,4.98,0.6c0.63-0.53,1.45-1.1,2.52-1.71
		C3557.03,209.26,3554.52,209.64,3552.22,210.06z"/>
	<path fill="none" d="M3570.52,186.61c0.31,1.36-2.12,2.64-7.97,3.86C3561.13,189,3564.48,187.77,3570.52,186.61
		c-0.21-0.91-1.4-1.85-4.41-2.81c-6.72,4.11-15.94,5.06-26.04,4.65c-0.03,0.02-0.06,0.04-0.09,0.07c4.58,1.21,9.82,2.69,15.63,4.31
		c6.16-1.68,12.02-3.27,17.19-4.68c1.63-0.93,3.07-1.81,4.31-2.64C3574.7,185.88,3572.45,186.24,3570.52,186.61z"/>
	<path fill="none" d="M4532.1,113.11l-1.35,0.82c1.18,0,2.36-0.07,3.55-0.18L4532.1,113.11z"/>
	<path fill="none" d="M4647.15,125.46l-0.51-0.2c-5.1,0.88-10.06,2.07-14.91,3.42C4637.23,127.87,4642.33,126.73,4647.15,125.46z"/>
	<path fill="none" d="M3581.19,185.66c-2.28,0.78-5.25,1.63-8.38,2.5c-2.81,1.56-5.93,3.29-9.18,5.1l22.2-4.95
		c1.65,3.75-6.86,6.03-15.67,8.43c3.29,0.86,6.53,1.76,9.85,2.57C3591.3,193.81,3599.13,188.29,3581.19,185.66z"/>
	<path fill="none" d="M3596.7,202.87c11.92,2.11,22.24,2.81,28.29,0.33C3614.24,201.86,3604.84,201.98,3596.7,202.87z"/>
	<path fill="none" d="M3948.17,115.81c-0.05-0.44-0.15-0.89,0-1.31c-1.29,0.25-2.65,0.64-4.03,1.09
		C3945.48,115.67,3946.82,115.74,3948.17,115.81z"/>
	<path fill="none" d="M4111.46,118.61c-5.09-0.26-9.33-0.09-12.93,0.44c-0.21,0.49-0.41,0.98-0.68,1.47
		C4103.41,120.18,4107.68,119.44,4111.46,118.61z"/>
	<path fill="none" d="M4119.88,119.38c1.14,0.37,2.46,0.59,3.87,0.73c-0.35-0.13-0.63-0.27-1.01-0.4
		C4121.71,119.57,4120.86,119.5,4119.88,119.38z"/>
	<path fill="none" d="M4230.36,109.74c0.8-0.45,1.71-0.86,2.29-1.37c-0.3-0.25-0.73-0.49-1.14-0.73c-1.26,0.42-2.52,0.84-3.75,1.22
		C4229.06,109.16,4229.84,109.45,4230.36,109.74z"/>
	<path fill="none" d="M1069.39,252.21l-0.34-0.23c-0.2,0.09-0.34,0.16-0.53,0.24C1068.81,252.22,1069.1,252.22,1069.39,252.21z"/>
	<path fill="none" d="M4121.55,111.02c0.17-0.15,0.33-0.24,0.55-0.36C4112.85,109.75,4108.03,108.88,4121.55,111.02z"/>
	<path fill="none" d="M1104.86,252.5c-2.04-1.49-2.36-2.99,4.24-4.77c-13.5,1.11-19.07,2.47-23.44,4.44
		C1092.3,252.2,1098.75,252.3,1104.86,252.5z"/>
	<path fill="none" d="M1924.36,138.63c8.42,0.68,16.88,1.32,25.42,1.83C1942.35,134.96,1934.37,136.63,1924.36,138.63z"/>
	<path fill="none" d="M4593.19,160.02l7.7,7.03c5.48-2.19,11.18-4.54,16.96-7.01L4593.19,160.02z"/>
	<path fill="none" d="M3474.13,131.12l-8.21,6.79c2.28-0.27,4.67-0.74,7.25-1.56c0.96,0.24,1.92,0.36,2.88,0.55l4.7-0.97l3.74-5.75
		C3480.92,130.31,3477.38,130.64,3474.13,131.12z"/>
	<path fill="none" d="M3533.4,200l26.61-5.94c-1.48-0.41-2.97-0.83-4.4-1.22c-7.58,2.03-15.42,4.18-22.37,6.34
		C3533.3,199.45,3533.29,199.74,3533.4,200z"/>
	<path fill="none" d="M4478.26,111.24c-0.48,0.11-0.97,0.23-1.53,0.33c1.42,0.33,2.9,0.69,4.41,1.05L4478.26,111.24z"/>
	<path fill="none" d="M4471.67,116.65c6.57,1.82,15.3,2.44,29.41,0.58c-0.97-0.2-1.88-0.35-2.86-0.57
		C4490.68,115.86,4482.02,115.66,4471.67,116.65z"/>
	<path fill="none" d="M4276.67,104.88l-1.35-3.43c-8.06-1.5-15.41-1.09-22.29,0.15C4261.73,102.88,4268.79,102.65,4276.67,104.88z"
		/>
	<path fill="none" d="M4488.4,105.73l4.92-0.65c-1.59,2.42,1.02,6.3-11.37,5.02l0.45,2.83c5.11,1.24,10.56,2.59,15.82,3.74
		c1.25,0.13,2.41,0.31,3.63,0.46c2.15-0.29,4.23-0.55,6.64-0.96c-17.57-3.79,5.46-10.71-15.65-12.14
		C4490.92,104.56,4489.49,105.14,4488.4,105.73z"/>
	<path fill="none" d="M4491.62,103.94c-2.96-0.16-6.79-0.21-11.48-0.16C4479.06,104.57,4480.97,104.8,4491.62,103.94z"/>
	<path fill="none" d="M4701.78,161.25c-26.13-0.03-26.97,4.45-40.9,8.91l4.11,1.13l-17.62,1.08c-10.81,0,27.19-6.11,16.22-10.13
		c-17.62,6.13-27.85,13.31-25.06,17.96l76.7-12.96C4712.79,166.02,4715.74,162.72,4701.78,161.25z"/>
	<path fill="none" d="M4139.37,106l23.5-0.62c-16.39,3.04-10.05,5.41-2.81,8.41l7.87-1.8c-2.79-0.91-8.07-1.18-12.49-1.35
		c3.75-0.09,8.97-0.59,14.79-1.06c1.53-3.73,2.04-7.79-5.2-11.91c-20.77-5.32-26.73,1.17-37.63,6.5
		C4131.56,104.62,4135.62,105.23,4139.37,106z"/>
	<path fill="none" d="M3836.97,113.21c-3.56-2.32-5.27-4.32,5.33-5.37l7.1,3.18l0.37-1.43l0.03,1.61l6.35,2.85
		c2.8,0.11,5.52,0.17,8.09,0.16c-10.97-5.37-32.26-12.26-34.05-12.88c-1.98,2.33-3.26,6.81-3.86,12.21
		C3829.28,113.18,3832.93,113.12,3836.97,113.21z"/>
	<path fill="none" d="M3732.95,111.13c5.6-4.5,10.37-8.61,13.61-11.8l-19.55,5.21l-4.77-4.65c-8.81,2.13-17.35,7.22-25.08,13.28
		C3709.19,112.53,3722.31,112.33,3732.95,111.13z"/>
	<path fill="none" d="M4065.85,109.74l10.69-1.58c-8.61,5.3,6.54-3.67,17.87-2.74c0.4-0.11,0.87-0.18,1.28-0.28
		c-0.82-1.63-3.91-2.79-13.08-1.59c-7.01,1.37-13.54,3.2-19.41,5.34C4064.06,109.18,4064.95,109.46,4065.85,109.74z"/>
	<path fill="none" d="M4165.66,88.98c0.15-0.14,0.29-0.22,0.48-0.33C4159.37,87.36,4155.91,86.3,4165.66,88.98z"/>
	<path fill="none" d="M4546.91,110.28c-1.17-1.39-2.2-2.78-3.12-4.24l-10.26,6.2L4546.91,110.28z"/>
	<path fill="none" d="M3660.42,123.31c0.16-0.19,0.32-0.39,0.48-0.53c-0.87-0.03-1.65,0.04-2.47,0.05L3660.42,123.31z"/>
	<path fill="none" d="M5525.26,105.73c0.25,0.14,0.61,0.24,0.84,0.38c0.21-0.16,0.27-0.28,0.45-0.44
		C5526.11,105.7,5525.69,105.72,5525.26,105.73z"/>
	<path fill="none" d="M4714.4,163.49l6.19,1.66C4724.16,163.13,4727.79,161.29,4714.4,163.49z"/>
	<path fill="none" d="M4903.24,122.73l0.01,0.03c1.66-0.25,3.09-0.51,4.42-0.78c-4.66-0.63-9.34-1.24-13.87-1.81
		c1.36,1.29,0.65,2.61-5.9,4.14c6.53-0.46,11.44-0.97,15.33-1.54L4903.24,122.73z"/>
	<path fill="none" d="M4552.08,116.19c0.24-0.1,0.48-0.17,0.71-0.26c-0.2-0.17-0.38-0.32-0.57-0.48L4552.08,116.19z"/>
	<path fill="none" d="M5474.55,100.09l-14.5-1c10.66-0.66,20.78,0.3,31.73,1.17c5.3,0.15,10.3,0.44,14.88,0.91
		c5.9,0.23,12.19,0.22,18.99-0.16c-9.69-2.31-40.01,1.71-27.61-6.1c7.31,1.54,10.73,3.57,26.09,4.18l-5.91-6.56
		c7.64,0.27,14.7,0.57,21.43,0.88c2.69-4.5,6.36-9.62-12.59-13.69c-63.44-4.71-54.85,12.89-113.69,17.69
		C5427.56,100.9,5451.71,100.17,5474.55,100.09z"/>
	<path fill="none" d="M4635.01,113.12c-0.2-0.12-0.35-0.23-0.54-0.35c-20.78,1.57-43.32,0.14-47.7,6.37
		C4602.59,118.1,4618.67,115.58,4635.01,113.12z"/>
	<path fill="none" d="M5352.87,95.85c3.51,2.9,10.99,5.78,22.44,6.23l5.41-5.47l6.63,4.05c8.22-0.12,9.7-1.09,9.23-2.3
		c-1.3,0.04-2.4,0.12-3.75,0.15c-7.11,2.04,14.76-9.71-27.96-4.66C5360.76,94.47,5356.78,95.15,5352.87,95.85z"/>
	<path fill="none" d="M5526.52,70.65c-13.84-0.59-21.03-1.3-0.85,0.38C5525.93,70.87,5526.17,70.78,5526.52,70.65z"/>
	<path fill="none" d="M4435.24,97c1.34,0.28,2.73,0.53,4.08,0.73c1.54-0.02,3.46-0.09,6.13-0.23c-0.83,0.22-1.43,0.47-2.07,0.72
		c0.18,0.02,0.34,0.05,0.53,0.06l33.95-4.7c-0.29-0.11-0.53-0.21-0.88-0.34c-4.76-0.73-9.31-1.58-13.45-2.6
		c-5.07-0.3-10.17-0.76-15.18-1.54c-4.37,0.23-9,0.53-14.16,1.55C4446.38,92.91,4436.61,95.69,4435.24,97z"/>
	<path fill="none" d="M4471.56,91.38c0.05-0.13,0.11-0.26,0.19-0.41c-0.64,0-1.31-0.07-1.96-0.08
		C4470.39,91.05,4470.97,91.21,4471.56,91.38z"/>
	<path fill="none" d="M4399.53,89.61l-2.45,6.53l-11.27,2.88c1.01,1.56,1.92,3.14,2.68,4.73c0.19-0.01,0.31-0.02,0.5-0.03
		c1.93,0.8,4.4,1.54,7.16,2.22c6.84-2.39,6.61-4.09,6.62-5.9c-0.6-0.35-1.16-0.68-1.75-1.03l1.88-0.02
		c0.44-1.88,2.52-4.03,14.09-7.23c4.18,1.37,7.56,2.43,10.72,3.35c2.34-1.52,4.81-3.14,6.29-5.16c-12.32,0.65-19.27,0.8-24.8-0.07
		l-5.54,0.67l1.91-0.82l-27.18-0.87c-0.12,0.35-0.19,0.7-0.29,1.04c2.79,2.56,5.39,5.63,7.52,8.85L4399.53,89.61z"/>
	<path fill="none" d="M4433.54,103.95c13.23,1.42,20.26,4.86,26.73,8.06l-0.82-0.67c-1.22-2.02,0.45-2.59,3.91-2.3
		c-1.36-4.07,9.9-7.15,13.37-12.11c-16.14,1.36-25.29,1.89-32.81,1.34l-1.17,0.16C4438.48,100.26,4438.06,102.58,4433.54,103.95z"/>
	<path fill="none" d="M4476.71,96.9c0.53-0.73,1.02-1.49,1.07-2.33C4474.8,95.41,4466.42,96.07,4476.71,96.9z"/>
	<path fill="none" d="M4435.78,87.52c1.26,0.44,0.9-0.03-0.21-0.79c-0.03,0.33-0.24,0.61-0.34,0.92
		C4435.38,87.61,4435.7,87.58,4435.78,87.52z"/>
	<path fill="none" d="M4415.84,109.31c3.81,0.47,7.57,0.87,11.02,1.18c12.08-2.94-5.86-6.75-16.47-6.9
		c-0.61,0.03-1.15,0.04-1.78,0.07C4411.2,105.43,4413.64,107.34,4415.84,109.31z"/>
	<path fill="none" d="M4408.53,103.61c0.59-0.02,1.21-0.03,1.86-0.02c4.52-0.23,8.6-0.3,12.29-0.24c-1.29-1.81-0.92-3.33,0.4-4.73
		l-20.18,0.37c-0.05,0.38-0.09,0.7-0.13,1.05C4404.74,101.13,4406.67,102.34,4408.53,103.61z"/>
	<path fill="none" d="M4434.01,89.91c0.53-0.71,1.03-1.44,1.22-2.27C4432.85,88.34,4426.46,88.63,4434.01,89.91z"/>
	<path fill="none" d="M4478.48,94.42c1.78,0.36,1.18-0.08-0.47-0.78c0.04,0.33-0.17,0.62-0.22,0.93
		C4477.96,94.53,4478.38,94.49,4478.48,94.42z"/>
	<path fill="none" d="M4435.6,86.64l-0.12,0.01c0.04,0.02,0.07,0.05,0.1,0.07C4435.57,86.69,4435.6,86.67,4435.6,86.64z"/>
	<path fill="none" d="M4222.4,175.86c-7.98,4.57-20.02,5.84-34.32,5.63l12.32,11.41c0.52,0.04,1.25,0.1,1.83,0.15
		C4221.6,189.6,4224.47,183.02,4222.4,175.86z"/>
	<path fill="none" d="M3520.61,206.24c8.44,1.5,16.14,2.3,23.2,2.98c0.1-0.81,0.43-1.64,0.97-2.49L3520.61,206.24z"/>
	<path fill="none" d="M3705.63,227.48c1.14-0.45,2.87-0.43,5.55,0.45c0.84-0.08,1.47-0.03,2.27-0.09l-0.74-2.08l-2.74,0.08
		C3707.03,226.12,3705.49,226.79,3705.63,227.48z"/>
	<path fill="none" d="M3721.48,227.72c-2.46-0.11-5.06-0.12-8.02,0.12l0.33,0.93L3721.48,227.72z"/>
	<path fill="none" d="M4548.78,93.34c-1.21,0.21-2.38,0.44-3.66,0.63c-0.75,0.38-1.55,0.72-2.35,1.07L4548.78,93.34z"/>
	<polygon fill="none" points="4478.02,93.56 4477.86,93.58 4478,93.64 	"/>
	<path fill="none" d="M3271.09,187c-0.3-0.13-0.54-0.24-0.85-0.38c-0.35,0.06-0.63,0.16-0.9,0.26
		C3269.92,186.93,3270.49,186.96,3271.09,187z"/>
	<path fill="none" d="M1888.52,188.94c-4.77,0.82-5.07,2.05-3.86,3.37c10.58,0.96,19.57,1.9,25.89,2.02l-0.83-5.19
		C1901.23,192.1,1894.83,194.78,1888.52,188.94z"/>
	<path fill="none" d="M3657.42,87.96c-2.28-0.59-4.88-1.86-7.59-3.4c-4.22-1.33-9.21-2.02-15.76-0.96l3.07,6.78
		C3644.69,88.83,3652.37,88.07,3657.42,87.96z"/>
	<path fill="none" d="M3229.12,186.45l0.51,0.69c5.07-0.76,10.52-1.54,26.08-0.96c-0.79-3.07-2.08-6.22-3.37-9.27
		c-6.47-1.31-12.45-2.52-17.49-3.1l-12.37,9.36l1.04,2c-1.14-0.17-2.03-0.29-3.1-0.45l-4.59,3.47c6.1-0.01,9.52-0.43,12.76-0.91
		L3229.12,186.45z"/>
	<path fill="none" d="M3182.09,196.13c-2.51,0.63-5.29,1.21-8.26,1.76C3177.35,197.74,3180.12,197.18,3182.09,196.13z"/>
	<path fill="none" d="M3326.03,188.41c-2.57-1.21-5.18-2.45-7.79-3.67c-2.03,1.12-3.7,2.6-4.96,4.24
		C3317.99,189.13,3322.22,189.06,3326.03,188.41z"/>
	<path fill="none" d="M1801.16,248.59c-2.02,0.15-3.78,0.39-5.46,0.66c1.56,0.26,3.23,0.51,4.98,0.73
		C1800.83,249.51,1800.97,249.05,1801.16,248.59z"/>
	<path fill="none" d="M3446.94,221.01c-5.56,1.2-11.38,2.28-19.87,3.81c2.8,0.36,5.85,0.65,9.41,0.78
		C3441.35,224.1,3444.17,222.53,3446.94,221.01z"/>
	<path fill="none" d="M3516.65,206.16l-1.27-0.03c-6.13,3.56-5.85,6.87,6.99,9.42l25.41,2.95c-11.42-0.8-19.6-1.8-25.41-2.95
		l-22.06-2.57l1.18,0.37c-8.56-0.34-13.33-0.61-16.61-2.16l-0.52-0.06c-5.61,1.59-10.27,2.89-14.35,4.03l-1.36,8.27
		c20.57-0.36,37.01-2,37.11,4.79c16.86-3.82,28.45-3.11,37.22-1.66C3570.98,222.33,3530.6,211.02,3516.65,206.16z"/>
	<path fill="none" d="M3305.73,218.84c8.72,1.12,17.79,2.04,27,2.8C3321.89,220.17,3312.35,218.79,3305.73,218.84z"/>
	<path fill="none" d="M1914.74,187.53l-1.82,6.84c2.61-0.05,4.61-0.3,5.82-0.86l4.85,6.86c9.44-3.14,16.62-5.48,22.98-7.21
		c0-0.33-0.02-0.67-0.04-1c-3.73,1.73-9.99,2.48-23.77,0.04l2.36-6.71C1921.32,185.8,1917.9,186.6,1914.74,187.53z"/>
	<path fill="none" d="M2006.16,162.24c0.17,0.09,0.46,0.17,0.72,0.24c0.35-0.29,0.76-0.58,1.25-0.87L2006.16,162.24z"/>
	<path fill="none" d="M2432.98,160.44c-1.16,2.53-1.25,5.32-0.74,8.23l8.27,0.29c-0.21-4.79-4.76-9.36,18.5-5.05l-4.25-5.88
		C2446.77,159.94,2439.32,161.43,2432.98,160.44z"/>
	<path fill="none" d="M3381.17,224.66c13.85-0.48,17.76-1.93,17.46-3.68c-5.82,2-12.28,3.07-19.01,3.55
		C3380.14,224.58,3380.63,224.6,3381.17,224.66z"/>
	<path fill="none" d="M1332.02,242.84l-0.11,1.07c1.41,1,4.02,1.92,7.23,2.53l17.3-0.23c3.1-1.22,5.69-2.47,6.73-3.53
		C1350.86,240.66,1340.8,241.19,1332.02,242.84z"/>
	<path fill="none" d="M2948.64,150.24c-0.01-0.03-0.03-0.05-0.05-0.08c-2.2,0.37-3.62,0.88-4.4,1.48
		C2946.02,151.21,2947.59,150.74,2948.64,150.24z"/>
	<path fill="none" d="M2946.53,157.65c0.26,0.24,0.52,0.49,0.77,0.72c4.44,0.04,10.3,1.37,15.4,2.45c3.45-1.47,6.29-2.95,8.21-4.41
		c-0.1-0.11-0.13-0.18-0.24-0.29c0.17,0.02,0.35,0.03,0.51,0.05c2.26-1.82,3.02-3.61,1.55-5.31c-6.2,0.38-12.4,0.07-19.35-1.23
		c-1.81,0.11-3.28,0.27-4.53,0.47c-0.08,0.04-0.11,0.09-0.2,0.13C2949.71,152.56,2948.67,155.08,2946.53,157.65z"/>
	<path fill="none" d="M2702.45,156.18c-1.73-0.28-3.7-0.9-6.03-2.01c2.83,0.19,3.31-0.93,6.17-0.73l-7.5-3.06
		c-1.07,0.19-2.1,0.39-2.97,0.63c-1,2.89-3.41,4.83-6.84,6.08c0.04,0.42,0.08,0.85,0.24,1.28
		C2690.06,157.28,2696.06,156.67,2702.45,156.18z"/>
	<path fill="none" d="M3178.77,137.86l-1.05-1.99c-0.44,0.25-0.85,0.49-1.26,0.73C3176.63,137.02,3177.33,137.44,3178.77,137.86z"/>
	<path fill="none" d="M1887.72,135.24c4.75-4.48-11.47-7.63,0.55-11.4c-17.1,1.28-17.78,3.77-25.48,8.47l-5.04-5.24
		c-3.07,1.58-5.36,2.91-7.19,4.06C1862.86,132.57,1875.24,133.96,1887.72,135.24z"/>
	<path fill="none" d="M1259.32,208.09l-5.48-1.65C1250.8,208.48,1247.7,210.33,1259.32,208.09z"/>
	<path fill="none" d="M1952.76,143.1c-0.89-0.93-1.79-1.69-2.7-2.38c-3.11,8.49,55,4.17,43.29,16.63l-2.54-1.46
		c-11.25-0.02-9.02,3.49-2.04,6.42c9.78-2.31,18.48-6.06,29.25-5.79c2.87-2.14,1.46-4.2-14.2-6.08l32.91-4.07
		c0.64-0.58,1.31-1.11,1.98-1.63c-0.26-0.11-0.55-0.2-0.79-0.34c1.06-0.55,2.19-1.02,3.35-1.44c10.29-6.38,23.94-6.5,39.46-4.36
		c2.95-0.9,5-2.38,5.54-4.94c-7.41-3.4-14.19,2.03-21.34-1.28c-4.72,1.54-7.39,1.93-1.28-0.57c0.43,0.26,0.89,0.38,1.28,0.57
		c5.07-1.62,12.47-4.56,14.44-6.79c-24.55-6.41-38.84,6.57-53.87,9.43l26.46-2.48c-2.35,11.12-11.92,1.85-19.5,10.56
		c-13.1-6.03-23.61,2.6-34.31-1.12c2.86,0.08,3.07-1.02,5.94-0.94c-28.8,0.18-36.46-18-47.91-18.37
		c-11.22-1.49-32.63,4.51-25.01,9.25C1921.9,134.98,1969.49,128.72,1952.76,143.1z"/>
	<path fill="none" d="M1232.26,85.75c1.14,0.12,2.27,0.22,3.4,0.33C1234.65,85.8,1233.47,85.72,1232.26,85.75z"/>
	<path fill="none" d="M1460.42,202.09c-9.53-1.37-20.1-2.43-33.65-0.73c0.03,0.03,0.03,0.06,0.06,0.09
		C1437.97,201.64,1449.16,201.86,1460.42,202.09z"/>
	<path fill="none" d="M1780.44,177.8c12.3,4.85-7.55,9.64,5.31,12.68c8.81-4.08,15.87-8.93,17.46-12.77
		C1797.96,176.89,1790.83,176.77,1780.44,177.8z"/>
	<path fill="none" d="M2005.51,88.27l-3.93-1.79C1999.07,88.43,1996.53,90.19,2005.51,88.27z"/>
	<path fill="none" d="M2223.98,144.91c-0.52-0.34-1.05-0.72-1.59-1.18c-1.66,0.54-2.46,1.11-2.75,1.7
		C2220.69,145.14,2222.12,144.96,2223.98,144.91z"/>
	<path fill="none" d="M2107.24,143.35l0.95-4.49c-2.57,1.52-5.08,2.53-7.54,3.2C2102.83,142.49,2105.03,142.92,2107.24,143.35z"/>
	<path fill="none" d="M2222.36,155.3c13.24,2.41,24.47,5.01,32.13,5.92c6.81-2.3,15.14-3.74,26.79-3.31l-16.82-3.37
		c10.2-1.75,48.15,0.94,43.81-2.08c4.72,2.23,9.35,6.08,11.48,9.71c3.6,0.35,7.55,0.86,11.97,1.52l22.58-9.99
		c-4.7,1.51-1.79,11.36-2.14,15.82c4.29-1.54,8.88-2.93,14.38-3.9c5.1-4.84,6.08-11.16,0.04-12.36c25.8,7.54,24.99,5.42,38.18,10.49
		c4.28-0.83,7.69-1.13,9.72-0.41c1.66,0.03,3.02,0.13,4.26,0.26c-1.09-3.31-4.98-7.5-8.71-9.67l-17.8,3.72
		c12.73-2.55,12.29-8.25,14.71-13.75c-8.97,0.54-13.25,3.65-19.35,4.37c3.76-2,7.56-4.03,2.87-6.6l-30.26,9.3
		c1.76,0.96,5.21,1.34,8.09,1.6c-7.51,0.04-23.85,3.56-34.52-1.11c1-2.19,4.73-4.21,5.7-6.42c8.91,6.27,14.14,0.96,18.91-3.26
		c-20.77,0.89-5.15-1.47-15.05-5.53c-14.64,0.16-20.79,7.68-17.04,12.46c-16.49-2.23-21.72-3.72-38.71,1.94l3.35-7.71l-15.56,2.38
		l12.76-9.36c-29.66-5.37-5.72,13.21-38.69,8.74l0.04-6.79c-7.2,1.44-11.8,5.71-16.19,7.68
		C2240.44,153.24,2234.69,153.1,2222.36,155.3z"/>
	<path fill="none" d="M2200.29,152.02c-0.64-0.42-0.63-0.91,0.51-1.54c2.16,0.31,3.88,0.49,5.43,0.61
		c-5.13-1.71-11.14-3.09-16.26-3.95c-3.56,1.17-3.37,2.62-1.48,3.91C2192.48,151.27,2196.42,151.6,2200.29,152.02z"/>
	<path fill="none" d="M2140.94,145.31l12.33,0.38c-2.92,0.16-8.24,0.69-12.94,1.54c-0.17,0.5-0.27,0.97-0.31,1.43
		c9.1,0.93,18.23,1.21,27.17,0.28c-3.63,0.76-4.95,2.04-5.64,2.8c5.03-0.61,10.08-0.88,15.1-0.95
		c-12.43-6.15-12.37-17.15-39.83-11.01C2141.22,141.42,2141.45,143.4,2140.94,145.31z"/>
	<path fill="none" d="M2112.94,144.46l5.35,0.16l3.72-3.06c-3.83-0.13-7.99,1.25-11.26,2.48
		C2111.48,144.18,2112.21,144.32,2112.94,144.46z"/>
	<path fill="none" d="M3003,251.88c-2.63,0.93-5.26,1.46-7.89,1.81c1.32,0.52,2.65,1.05,3.93,1.53c1.82-0.45,3.65-0.9,5.49-1.36
		C3004.62,253.2,3004.26,252.55,3003,251.88z"/>
	<path fill="none" d="M2972.01,251.43c-6.24,3.77-8,7.35,3.42,9.89c2.14-0.68,4.88-1.41,7.77-2.15c3.01-1.62,6.42-3.38,9.96-5.23
		C2985.85,254.58,2978.68,253.32,2972.01,251.43z"/>
	<path fill="none" d="M3011.02,261.6l-7.07-1.56c-1.49,0.23-2.97,0.45-4.63,0.71c-0.14-0.58,0.07-1.12,0.38-1.64l-8.63-1.9
		c4.18-0.02,7.41,0.01,10.26,0.1c0.33-0.28,0.64-0.54,0.97-0.81c-1.08-0.42-2.13-0.83-3.26-1.28c-5.67,1.4-11.08,2.72-15.84,3.96
		c-4.18,2.25-7.34,4.25-8.14,5.82c2.05,0.51,3.74,0.96,4.71,1.3c-1.66-0.25-3.26-0.45-4.86-0.66c-0.04,0.75,0.55,1.39,2.15,1.85
		l42.32-4.76c-2.06-0.59-4.62-1.49-7.46-2.54L3011.02,261.6z"/>
	<path fill="none" d="M2794.97,250.96l-4.01,0.24c-1.25,1.23-3.2,2.51-6.13,3.88c5.17-0.33,10.09-0.76,14.89-1.23
		C2798.51,252.79,2796.93,251.82,2794.97,250.96z"/>
	<path fill="none" d="M2462.63,168.93l-3.4-4.7c-4.33,1-11.33,1.96-8.16,3.07c4.5,0.42,10.44,2.98,16.88,6.14l20.15-12.23
		c-1.12,0.16-2.48,0.27-4.43,0.27l7.6-6.18c0.12-0.41,0.33-0.82,0.72-1.23c-5.41-1.12-10.98-1.02-16.53-0.33L2462.63,168.93z"/>
	<path fill="none" d="M2816.52,142.15c-2.23,0.92-4.13,2.88-1.8,4.41c8.87-1.08,16.21-4.8,11.04-8.71l-16.52,4.56
		c-1.88-2.38,9.42-1.62,1.94-4.39c-4.11,1.7-11.78,5.35-16.58,8.24L2816.52,142.15z"/>
	<path fill="none" d="M3059.34,145.14c3.25-1.36,6.74-2.21,10.34-2.73c-3.6-0.86-7.12-2.02-10.41-3.21
		C3057.54,141.43,3054.19,143.46,3059.34,145.14z"/>
	<path fill="none" d="M2928.52,152.67c1.28-0.53,2.43-1.04,3.5-1.51c-1.85-0.91-4.1-1.62-6.87-2.06L2928.52,152.67z"/>
	<path fill="none" d="M3137.14,146.95c12.87-1.58,14.26-4.1,15.4-6.56l-17.91-5.84c-15.73,7.12-18.18,8.06-28.24,10.77
		C3121.81,148.52,3134.43,152,3137.14,146.95z"/>
	<path fill="none" d="M2994.12,152.65c8.63-2.85,14.48-4.76,19.26-6.21c-0.47-0.7-1.96-1.44-5.23-2.22
		c-10.86,2.54-19.56,4.67-27.76,5.84L2994.12,152.65z"/>
	<path fill="none" d="M3054.04,137.29c-6.88-2.47-12.12-3.88-13.83-0.01c-6.92,1.06-8.93,2.89-9.97,4.83
		C3035.78,140.94,3042.85,139.58,3054.04,137.29z"/>
	<path fill="none" d="M3160.8,135.08c-0.61,1.12-1.79,3.35,2.57,3.45l0.43-0.19c0.16-0.15,0.27-0.3,0.49-0.44
		c-1.14-5.28,4.56-11.31,10.63-16.75c-0.91-0.62-1.82-1.27-2.7-1.86c-15.11,6.44-32.3,14.28-19.66,21.03
		C3153.48,138.34,3154.31,136.43,3160.8,135.08z"/>
	<path fill="none" d="M3092.73,142.9c0.06-0.76-0.3-1.49-1.58-2.2c-1.13,0.65-2.29,1.16-3.47,1.58
		C3089.38,142.45,3091.05,142.66,3092.73,142.9z"/>
	<path fill="none" d="M3205.35,132.44c-5.16-1.77-9.84-2.03-13.99-1.49C3197.02,133.54,3202.05,134.66,3205.35,132.44z"/>
	<path fill="none" d="M3267.42,131.9c22.71-1.37,14.12-5.57,8.19-8.88c-8.73,2.17-16.54,4.92-23.69,8.01
		C3256.88,131.12,3261.96,131.35,3267.42,131.9z"/>
	<path fill="none" d="M3290.34,125.4c0.51-1.85,1.7-3.75,4.34-5.89c-3.3,0.37-6.33,0.91-9.38,1.45
		C3286.78,122.48,3288.37,123.99,3290.34,125.4z"/>
	<path fill="none" d="M3183.53,126.72c6.29-5,10.87-10.18,2.29-13.54c-1.23,0.68-2.81,1.41-4.47,2.14
		c-1.94,1.81-4.11,3.73-6.42,5.81C3177.73,123.03,3180.62,124.93,3183.53,126.72z"/>
	<path fill="none" d="M3184.99,107.01l-24.26,4.74c2.73,1.37,6.77,4.24,11.51,7.52c3.26-1.39,6.37-2.71,9.11-3.95
		C3185.38,111.58,3187.88,108.5,3184.99,107.01z"/>
	<path fill="none" d="M3168.41,136.31c-1.69,0.45-3.19,0.97-4.12,1.58c0.01,0.07,0.04,0.14,0.06,0.2L3168.41,136.31z"/>
	<path fill="none" d="M3489.55,130.13c-1.35-0.03-2.72-0.02-4.09,0.02l1.72,4.46c0.4,0.3,0.46,0.55,0.3,0.77l0.97,2.52
		c4.92-1.6,11.31-3.84,16.62-5.94c0.24-9.01-3.77-19.53-1.26-25.39l-22.34,18.49C3483.81,126.2,3486.45,127.84,3489.55,130.13z"/>
	<path fill="none" d="M2599.55,153.34c-0.18-4.25,3.09-9.92-12.92-7.65c-14.98,1.77-13.99,5.14-11.22,8.38
		C2583.6,153.71,2591.76,153.47,2599.55,153.34z"/>
	<path fill="none" d="M2627.79,153.37l-6.09,0.21c-5.28,2.88,9.13,5.04,23.3,4.75c1.23-0.51,2.48-1.07,3.77-1.69l-15.06-5.55
		c6.17-0.71,11.31,0.77,17.93-1.07c-15.46-6.36-30.41-1.56-41.39,3.19C2616.62,153.2,2622.56,153.25,2627.79,153.37z"/>
	<path fill="none" d="M2765.73,148.23c3.14-0.64,3.25-2.83-1.31-3.15l-3.9,0.93C2762.89,146.45,2764.65,147.13,2765.73,148.23z"/>
	<path fill="none" d="M2855.87,145.9c-4.65-1.74-7.82-2.59-11.79,3.38c0.22,0.28,0.52,0.43,0.79,0.63
		C2848.55,148.56,2852.2,147.22,2855.87,145.9z"/>
	<path fill="none" d="M2499.43,167.59c2.87-7.08,32.55-11.05,64.81-12.95l-3.63-2.74c-21.6,6.83-38.01,1.71-55.79-0.22
		C2502.49,155.59,2498.93,166.2,2499.43,167.59z"/>
	<path fill="none" d="M2491.27,155.3c-0.44,1.36,0.29,2.74,0.23,3.85l12.47-7.57c-1.38-0.14-2.76-0.27-4.16-0.36
		c-4.49,0.77-6.71,1.79-7.83,2.85c0.23,0.05,0.46,0.03,0.69,0.09L2491.27,155.3z"/>
	<path fill="none" d="M2707.57,155.8c7.14-0.48,14.39-0.93,20.57-1.68l-1.02-3.58l2.14,3.44c5.42-0.71,9.81-1.74,12.34-3.31
		c-0.93,0.21-1.9,0.42-3.16,0.62l3.47-0.84c1.99-1.37,2.53-3.18,1.14-5.56c-1.9-0.65-4.25-1.23-6.91-1.69
		C2717.65,141.14,2715.31,153.12,2707.57,155.8z"/>
	<path fill="none" d="M3551.73,101.77c-3.57,0.12-1.61,0.86-1.39,2.38C3550.65,103.28,3551.15,102.51,3551.73,101.77z"/>
	<path fill="none" d="M2809.27,149.13c-22.18,2.39-41.81,10.04-54.64,2.76c0.09,6.6,6.42,10.77,3.94,15.7
		c9.49-0.3,19.7-0.16,27.9,0.05c22.28-4.59,39.86-10.89,56.54-17.05C2822.26,147.6,2820.5,161.78,2809.27,149.13z"/>
	<path fill="none" d="M2766.94,151.44l23.1-4.33l-24.27,1.16C2766.53,149.07,2767.03,150.05,2766.94,151.44z"/>
	<path fill="#313B41" d="M5945.61,48.78c0.88,0.33,1.68,0.63,2.58,0.97c0.08-0.35,0.15-0.67,0.25-1.06L5945.61,48.78z"/>
	<path fill="#313B41" d="M5883.66,88.8l30.05-5.15c1.02,1.55-9.54,4.64-0.52,5.64c0.53-5.64,29.67-12.31,57.68-7.73
		c24.81-5.47,2.78-22.8-22.67-31.81c-0.14,2.45,0.48,4.68-25.31,9.32c10.18,2.54,61.19,4.04,40.05,10.19
		c-34.58,4.65-29.52-0.48-47.52-2.52C5931.93,72.87,5873.17,79.06,5883.66,88.8z"/>
	<path fill="#313B41" d="M5999.19,47.71l10.79-1.25c-12.79-0.32-22.37-2.08-40.06-5.57c-17.52,3.64-20.74,5.88-21.49,7.79
		l54.29-1.99L5999.19,47.71z"/>
	<polygon fill="#313B41" points="5943.81,39.38 5921.24,49.65 5939.82,46.04 	"/>
	<polygon fill="#313B41" points="5884.22,44.05 5870.26,48.14 5883.66,49.67 	"/>
	<path fill="#313B41" d="M3522.37,215.55c5.81,1.15,14,2.15,25.41,2.95L3522.37,215.55z"/>
	<path fill="#313B41" d="M5306.72,80.76c-16.65-1.59-29.66-1.96-40.95-1.71C5285.99,81.59,5302.93,86.05,5306.72,80.76z"/>
	<path fill="#313B41" d="M5219.48,81.33c2.98,0.47,5.83,0.64,8.84,1.01c11.46-1.59,23.04-2.98,37.45-3.29
		C5250.84,77.17,5234.1,76.35,5219.48,81.33z"/>
	<path fill="#313B41" d="M5656.14,58.62C5667.99,57.62,5657.85,57.86,5656.14,58.62L5656.14,58.62z"/>
	<path fill="#313B41" d="M5716.78,82.82c0.59-1.5,2.01-2.52,3.98-3.19C5718.4,80.43,5716.7,81.4,5716.78,82.82z"/>
	<path fill="#313B41" d="M5674.87,60.46c-4.69-0.51-10.03-0.87-15.77-1.02C5661.69,59.79,5666.5,60.14,5674.87,60.46z"/>
	<path fill="#313B41" d="M5671.68,57.72c4.19,0.02,7.47,0.04,10.61,0.05C5683.52,56.69,5682.01,56.12,5671.68,57.72z"/>
	<path fill="#313B41" d="M5656.14,58.62c-3.49,0.25-8.41,0.6-16.56,1.18c6.81-0.45,13.26-0.49,19.52-0.36
		C5656.64,59.15,5655.56,58.87,5656.14,58.62z"/>
	<path fill="#313B41" d="M4200.93,193.4c0.55-0.09,0.81-0.26,1.3-0.34c-0.58-0.05-1.3-0.11-1.83-0.15L4200.93,193.4z"/>
	<path fill="#313B41" d="M4954.88,158.94c-8.59-0.59-13.56-1.59-16.97-2.73C4937.87,157.87,4942.01,159.1,4954.88,158.94z"/>
	<path fill="#313B41" d="M5776.44,49.57l2.6-0.32C5777.9,49.33,5777.09,49.44,5776.44,49.57z"/>
	<path fill="#313B41" d="M5777.55,53.36c-0.86-1.33-5.03-3-1.11-3.78l-22.83,2.76C5766.05,51.36,5770.93,52.61,5777.55,53.36z"/>
	<path fill="#313B41" d="M5843.14,71.42c3.18-8.19-15.45-4.59-34-0.99c3.6,5.57,19.34,2.81,37.21,0.83
		C5845.27,71.33,5844.24,71.43,5843.14,71.42z"/>
	<path fill="#313B41" d="M5867.26,69.85c1.25-3.28-6.99-0.32-16.75,1C5856.03,70.29,5861.71,69.86,5867.26,69.85z"/>
	<path fill="#313B41" d="M5618.1,65.29c8.99,1.02,3.46-7.52,8.94-5.47C5634.72,52.11,5572,71.48,5618.1,65.29z"/>
	<polygon fill="#313B41" points="5811.89,87.84 5828.95,88.35 5820.52,81.68 	"/>
	<path fill="#313B41" d="M5684.12,90.53l29.55,0.46c-0.75-1.15,2.75-2.02,7.13-2.78C5702.86,88.89,5682.88,88.5,5684.12,90.53z"/>
	<path fill="#313B41" d="M5720.81,88.22c9.35-0.35,18.17-0.95,23.04-2.36C5738.83,86.19,5728.05,86.97,5720.81,88.22z"/>
	<polygon fill="#313B41" points="5789.84,92.47 5780.86,91.45 5760.23,91.99 	"/>
	<path fill="#313B41" d="M4486.58,190.59c38.45,1.75,6.85-9.19,41.88-6.43c8.03-3.76-28.63-2.26-20.26-5.57
		C4486.33,183.15,4473.93,181.68,4486.58,190.59z"/>
	<path fill="#313B41" d="M4508.2,178.59c3.51-0.72,7.2-1.58,11.08-2.67C4512.91,177.1,4509.98,177.92,4508.2,178.59z"/>
	<path fill="#313B41" d="M3745.9,224.37l11.23-1.56C3751.82,223.29,3748.41,223.81,3745.9,224.37z"/>
	<path fill="#313B41" d="M3664.71,223.86l-2.01,2.74C3666.47,225.1,3668.02,223.99,3664.71,223.86z"/>
	<path fill="#313B41" d="M4189.44,218.58l13.14-6.19C4182.11,212.39,4191.09,215.53,4189.44,218.58z"/>
	<path fill="#313B41" d="M5797.79,226.12c1.17,0.27,2.58,0.41,3.64,0.74C5801.79,226.02,5800.17,225.98,5797.79,226.12z"/>
	<path fill="#313B41" d="M4935.88,241.12c0.69,0.19,1.5,0.31,2.25,0.57C4948.76,239.18,4944.1,239.58,4935.88,241.12z"/>
	<path fill="#313B41" d="M5727.19,226.3l-2.16-0.22C5725.58,226.19,5726.33,226.26,5727.19,226.3z"/>
	<path fill="#27374D" d="M6324.06,244.09c-27.96,11.9-73.33-17.79-119.18-0.77c-10.07-2.77,8.64-4.33,3.27-7.46
		c-11.64,5.75-25.64,6.93-51.55,4.31l2.94-1.43c-72.87,1.3-104.06-4.45-185.88-8.36l6,6.67c-17.58-0.91-21.27-3.01-29.49-4.7
		c-20.27,10.07,49.4,0.65,30.91,11.76c-23.22-13.59-124.03-0.39-139.68-15.83c-27.06-0.13,7.87,7.73-19.18,7.59l-7.14-4.18
		l-6.88,5.36c-17.73-0.91-26.64-6.14-27.27-9.67c4.3,0.43,12.24-0.97,16.86-1.26c-21.36-4.6-59.1,0.71-70.61,0.18l23.82,2.39
		c-73.88,3.79-164-1.83-235.41,6.54l5.39,3.15c-54.53,5.73-43.61-3.52-103.45-0.92l2.18-0.74c-11.99,3.11-28,4.67-44.36,4.29
		c15.13-3.66-28.36-7.19-8.51-11.25c-59.13,6.16-29.26,4.86-68.38,16.49l-8.96-5.24c-13.34,4.71-14.47,7.2-44.35,8.5
		c24.54-4.44-19-7.97,8.49-13.85c-62.59-11.51-93.18,11.37-121.8-5.35c-28.91,14.39,54.18,8.09,38.04,11.16
		c13.46,4.74-23.85,10.76-43.51,9.28c-20.02-0.36-33.9-18.53-84.27-18.33c5.01,0.08,5.36-1.02,10.36-0.94
		c-18.82-3.71-36.98,4.93-60.05-1.09c-13.03,8.72-30.02-0.54-33.85,10.58l46.23-2.51c-26.22,2.88-50.89,15.87-94,9.48
		c3.38-2.23,16.25-5.17,25.08-6.8c-12.59-3.31-24.32,2.13-37.37-1.26c3.82-11.14,56.18-2.33,84.31-10.79
		c-13.5-4.73-53.16,7.98-38.95-4.06c-20.4,15.3-49.62-2.02-83.83,9.65l2.31-6.67c-5.41,1.04-16.62,4.17-26.55,3.99l18.06-8.63
		c-27.68,7.34-53.19-6.55-79.72-2.56c55.47-0.12,12.38,8.06,35.79,12.97c-67.47,8.69-40.12-16.73-112.56-14.53
		c11.96,0.07,34.17,4.44,19.4,7.23c-14.57-1.4-33.8-3.99-42.72-7.52c-50.76,1.32,7.74,6.89-13.9,10.96
		c-17.21-8.16-24.95,3.27-47.21,5.84l-0.1-6.79c-57.79-4.44-15.45,14.12-67.47,8.77l22.08-9.37l-27.16,2.39l5.66-7.71
		c-29.57,5.68-38.76,4.19-67.67,1.98c6.68,4.78-3.88,12.3-29.5,12.48c-17.43-4.05,9.84-6.43-26.48-5.52
		c8.23-4.23,17.25-9.54,33-3.28c1.64-2.21,8.12-4.23,9.8-6.43c-18.78-4.66-47.27-1.12-60.41-1.07c5.06,0.26,11.1,0.63,14.2,1.59
		l-52.71,9.33c-8.26-2.56-1.67-4.6,4.85-6.6c-10.67,0.73-18.07,3.84-33.75,4.39c4.1-5.5,3.18-11.2,25.39-13.76l-50.2,6.05
		c-3.33-2.4-25.68-6.64-19.15-8.65c-27.77-3.28-68.28,10.6-105.11,6.26c-1.92,1.06-5.77,2.08-13.62,2.86
		c-34.63-1.3-65.26-8.11-106.38-0.62l-23.21-9.92c-32.17,2.2,31.43,12.51-22.14,16.15c-37.93,3.1-14.08-8.45-27.35-11.22
		c-18.89,4.95-51.75,15.05-86.51,6.94c11.54-1.84,20.57-0.37,31.34-1.08l-26.49-5.53c32.1-8.97,55.25-5.83,30.4-13.57
		c-3.91,19.1-103.16,1.79-107.01,20.88l-17.46-4.05c5.01,0.19,5.82-0.93,10.78-0.74c-33.94-9.2-25.39,13.77-69.2,10.99
		c-15.26-1.49-25.9-4.27-15.47-6.53l-17.57,2.41c-8.94-5.2-17.02-10.46-17.08-5.17l1.46,4.12c-1.01,0-1.92,0.03-2.73,0.11l2.74-0.08
		l0.74,2.08c2.97-0.24,5.57-0.23,8.02-0.12l-7.69,1.05l-0.33-0.93c-0.8,0.05-1.43,0.01-2.27,0.09c-2.68-0.88-4.41-0.9-5.55-0.45
		c-0.14-0.68,1.4-1.36,4.34-1.64l-47.67,1.33l0.39-0.56c-5.02,2.01-14.31,4.76-22.36,6.94c-4.57,0.42-9.47,0.85-14.25,1.44
		c-2.75-1.43,10.19-1.27,7.42-3.23l-28.79,4.58c-11.67-4.98,12.2-9.74,32.05-9c-26.69-19.11-23.89,4.76-81.74-6.47l27.16-2.38
		c-5.83-3.64-12.1-5.6-18.99-6.88c2.06-0.74,4.55-1.69,7.49-2.73l13.09,9.55l1.82-4.07l64.47,3.75
		c43.02-11.85,79.11-28.16,149.84-35.19c-16.17,8.07-1.21,12.12-0.28,20.83c-21.55-8.35-54.67,6.11-92.23,5.74
		c19.6,0.2,16.23,4.51,11.6,6.13l64.46-10.97c0.06,7.17,15.23,4.74,33.17,6.95c-16.14-13.48,47.32-11.41,73.32-16.83
		c2.71,4.63-2.69,9.72-35.82,9.95c38.61,9.04,43.24-18.43,80.82-10.95c-8.01,0.45-12.49-0.09-15.13,2.44
		c17.82-4.98,64.39-3.57,54.52,0.97l-7.99,0.43c53.67-0.57,162.28-6.69,167.51-18.93c0.89,1.53-3.72,14.65-6.4,17.19l31.36-16.07
		c6.29,0.52,12.43,0.98,18.3,1.3l-18.28,18.61c16.64-8.32,27.29-7.83,41.56-6.81l-12.32-11.41c14.3,0.21,26.34-1.07,34.32-5.63
		c2.07,7.16-0.8,13.74-20.17,17.19c13.02,0.91,29.13,2,55.04-2.8c-8.99-1.07-24.97-13.84-13.36-15.29
		c35.07,9.95,23.93,5.1,66.18,13.03c-13.48-1.61-2.78-18.28,17.82-18.67c-2.64,2.54,5.39,15.74-1.72,17.74l47.34-17.99
		c-12.07,3.39,0.87,13.44,13.33,17.39c-6.02-2.85,44.18-1.67,57.41-3.83l-22.49-2.7c27.23-0.08,40.28-5.49,52.34-11.39
		c18.35,0.41,36.56,0.81,54.64,1.13c3.16,2.92,9.03,5.13,19.19,5.37c1.62-1.22,3.83-2.97,6.47-5.02
		c12.92,0.14,25.77,0.18,38.52,0.11c-5.53,2.11-10.76,4.02-15.46,5.59c22.43,2.7,7.31,5.18,39.49,3.32
		c12.44,3.82-16.03,7.32-25.47,8l75.86-0.53c-5.27-8.68,47.94-11.62,50.58-18.34c1.03,0.34,3.72,0.33,9.44-0.35l2.5,0.01
		c-1,1.36-1.57,2.46-1.19,3.09c1.67-0.97,6.1-2.04,11.72-3.05l25.37,0.12l-5.82-2.83c10.79-1.14,20.74-1.63,23.19-0.71l-21.35,6.08
		c30.5,2.16,45.3-14.71,83.11-7.39c12.43,0.03,39.69,10.4,40.44,4.74c-5.43-2.34-10.23-6.03-14.27-10.38
		c26.56-0.69,49.32-1.51,55.9,0.14c3.08-0.84,6.16-1.56,9.26-2.21c0.53,0.26,0.96,0.52,1.66,0.76c0.01-0.38,0.29-0.78,0.68-1.19
		c6.75-1.29,13.61-2.18,20.68-2.76c0.71,1.94,1.73,3.6,17.93,2.16c0.33-1.41,1.84-2.42,3.91-3.19c6.93-0.12,14.14-0.11,21.74-0.07
		c-1.74-0.37-3.34-1.16-4.48-2.13c8.76-0.19,13.62,0.26-1.47-2.02c-0.25-0.8-0.14-1.62,0.47-2.38c7.02-0.68,12.23-0.65,17.43-0.43
		c-0.51,14.72,48.62,5.12,68.97,17.53c-19-8.65,71.11-3.52,41.43-15.76c21.09,1.15,1.96,7.03,18.28,11.17
		c49.11-8.21,110.27,2.73,171.62-0.85c0.72-2.5-9.97-6.08,2.89-10l33.72,11.76c12.05-1.43,9.8-14.47,32.87-6.3
		c-3.34-2.02-8.33-5.07-0.25-6.01c121.83,9.84,245.59-14.37,370.33,6.02c-17.06-4.49-6.05-5.16,6.61-5.57
		c-8.35-0.99-0.41-6.1-2.36-9.43l52.21,8.37c8.44-9.47,54.94-1.63,59.43-10.62l-16.09,1.9c20.58-10.89-32.51-22.77-30.66-36.29
		c-23.02,12.37-65.51-16.5-103.53,1.3c-9.03-2.59,7.05-4.48,2.06-7.51c-9.5,5.95-21.53,7.37-44.3,5.2l2.41-1.48
		c-5.47,0.22-10.6,0.37-15.58,0.48c3.85-1.45,5.26-2.83,0.73-3.99l-19.65,2.07c-19.94-5.12,35.26-10.29,9.27-11.83
		c25.59-5.63,53.74-13.85,92.29-12.35l9.39,8.2c-1.48-2.46-25.98-3.84-35.85-0.69c14.65-4.6,60.86,8.65,74.99-3.45l-27.99-4.59
		c25.67-5.68,56.34-16.47,90.42-15.46c-17.49-7.68-7.42,1.36-33.82-7.32c23,10.84-77.31,4.38-52.35,13.9
		c-25.36-8.4-41.42-1.88-74.36-9.71c1.75,2.78,12.71,4.84-15.64,4.87c-1.04,0.89-3.74,2.09-5.47,2.8c-0.87-0.03-1.19-0.06-1.95-0.11
		c0.59,0.09,1.04,0.16,1.63,0.26c-1.1,0.49-1.18,0.59,0.6,0.08c7,0.91,12.8,2.11,15.42,3.57c-12.14,7.2-56.71,9.27-70.86,13.4
		c-16.97-0.5,6.08-3.6-3.79-6.15l-21.14,6.17c-3.91-6.16-46.93-8.27-8.77-13.86l-35.3,1.44c-21.68-2.5-50.57-2.52-67.46,0.98
		c-16.97-0.54-40.13,9-26.96,3.37l-54.22,6.59l-0.92-1.54c-54.7,1.86-109.53,15.87-174.77,7.57c-17.95,2.48-36.42,5.34-67.57,5.06
		l-7.37-5.14c-23.07,3.05-72.16-2.13-80.85,4.02c-29.12-13.44-115.2,2.13-157.3,1.46l0.2,7.17c-28.63,0.93-55.5,4.22-90.23,8.71
		l3.72,6.16c-7.57,1.7-16.57,2.45-26.56,2.71c-5-0.75-9.86-2.38-14.81-5.4c-3.67,2.32-4.84,4.03-4.59,5.38
		c-17.9-0.36-37.76-1.36-57.93-1.29c-4.63-0.39-9.66-0.56-15.16-0.42c3.35-0.01,4.27-0.65,6.48-0.96c3.04,0.09,6.13,0.3,8.91,0.62
		c-26.46-4.95-52.38-2.67-77.71,0.87c-0.07-0.01-0.15-0.03-0.23-0.05c3.88-0.68,7.53-1.57,10.74-2.78
		c-4.99-1.83-13.45-0.68-20.98,0.48c-6.15-1.64-11.25-3.45-13.63-4.66c2.1,2.04,4.19,3.91,6.67,5.7c-7.17,0.95-11.35,0.71-6.3-4.9
		c-13.44,13.06-34.6,3.56-57.78,7.17c-0.18-0.05-0.26-0.1-0.45-0.15l-0.82,0.36c-0.57,0.1-1.14,0.17-1.72,0.29
		c-1.58-0.35-3.2-0.82-4.83-1.35c0.26-0.95,0.06-2,0.6-2.89l-5.95,0.87c-3.13-1.33-5.97-2.76-8.02-4l0.66-0.4
		c-0.29,0.1-0.59,0.16-0.89,0.25c-0.96-0.59-1.67-1.1-2.2-1.55c0.36,0.63,0.72,1.26,1.08,1.86c-20.81,5.92-41.86-4.15-62.21-2.43
		c3.28-1.6,9.94-4.2-4.17-5.51c6.58-1.31,12.63-1.88,18.34-2.37c-6.39-0.47-12.6-1.14-18.5-2.02c0.35,0.14,0.59,0.23,0.88,0.34
		l0.16-0.02l-0.02,0.08c1.66,0.7,2.25,1.14,0.47,0.78c-0.1,0.07-0.52,0.11-0.69,0.15c-0.05,0.84-0.53,1.6-1.07,2.33
		c-10.29-0.83-1.92-1.49,1.07-2.33c0.05-0.31,0.26-0.6,0.22-0.93l-0.14-0.06l-33.95,4.7c7.52,0.55,16.67,0.02,32.81-1.34
		c-3.46,4.95-14.73,8.03-13.37,12.11c-3.46-0.28-5.13,0.29-3.91,2.3l0.82,0.67c-6.47-3.2-13.5-6.65-26.73-8.06
		c4.52-1.38,4.94-3.69,9.21-5.52l1.17-0.16c-0.18-0.01-0.34-0.05-0.53-0.06c0.64-0.25,1.24-0.5,2.07-0.72
		c-2.67,0.14-4.59,0.21-6.13,0.23c-1.34-0.19-2.74-0.45-4.08-0.73c1.37-1.31,11.14-4.09-1.04-6.35c5.16-1.02,9.79-1.32,14.16-1.55
		c-4.7-0.75-9.22-1.68-13.47-2.82c0.24,0.14,0.4,0.24,0.59,0.38l0.12-0.01c0,0.03-0.03,0.05-0.03,0.08
		c1.11,0.77,1.48,1.23,0.21,0.79c-0.09,0.07-0.41,0.09-0.55,0.12c-0.19,0.83-0.69,1.57-1.22,2.27c-7.55-1.28-1.16-1.57,1.22-2.27
		c0.09-0.31,0.3-0.59,0.34-0.92c-0.02-0.02-0.06-0.05-0.1-0.07l-26.26,3.23c5.53,0.87,12.47,0.72,24.8,0.07
		c-1.48,2.02-3.95,3.64-6.29,5.16c-3.16-0.92-6.54-1.98-10.72-3.35c-11.57,3.2-13.66,5.35-14.09,7.23l20.18-0.37
		c-1.32,1.4-1.69,2.92-0.4,4.73c-3.69-0.06-7.77,0.01-12.29,0.24c10.61,0.15,28.55,3.96,16.47,6.9c-3.46-0.31-7.22-0.71-11.02-1.18
		c-2.2-1.97-4.63-3.88-7.22-5.65c0.62-0.04,1.17-0.04,1.78-0.07c-0.65-0.01-1.27,0-1.86,0.02c-1.87-1.27-3.79-2.48-5.75-3.57
		c-0.01,1.81,0.22,3.51-6.62,5.9c-2.76-0.68-5.23-1.41-7.16-2.22c-0.19,0.01-0.31,0.02-0.5,0.03c-0.76-1.58-1.67-3.17-2.68-4.73
		l11.27-2.88l2.45-6.53l-13.9,9.13c-2.13-3.22-4.73-6.28-7.52-8.85c-0.45,2.43-0.49,4.67-13.98,7.92
		c2.69,1.77,12.18,3.91,17.49,6.37c-19.16,1.48-8.51,3.74-2.57,6.26c-13.9,1.63-11.84-2.65-19.82-5.41
		c4.85,4.68-7.14,7.61-14.39,12.13c-1.86,0.47-4.15,1.11-6.58,1.51c1.66-0.19,3.34-0.33,5.03-0.44c-1.15,0.86-2.07,1.79-2.68,2.79
		c-0.94,0.2-1.89,0.39-2.91,0.55l-0.8-6.78c-2.1-0.14-3.83-0.2-5.63-0.27c-1.84-0.71-4.62-0.66-8.04-0.11
		c-6.37,0.15-10.22,0.89-12.6,1.95l-0.65-1.47l-5.22,5.66l1.08,0.18c-1.12,1.62-2.46,3.12-6.12,3.97c0.89-0.6,1.7-1.28,2.37-2.14
		l-12.34-3.44l7.72-4.14l-11.05,1.35c8.93-2.87,18.7-6.78,29.22-9.44c2.65-0.22,5.63-0.65,8.74-1c-0.55,0.02-1.07,0.07-1.61-0.01
		c0.08-0.23,0.06-0.37,0.12-0.59c6.48-1.19,13.23-1.75,20.23-1.19c-11.91-8.08-4.91,1.17-22.79-8.12c3.24,2.34,2.86,3.8,0.51,4.77
		c-2.72-0.6-7.38,0.43-12.36,1.73c-6.78,0.35-14.4,0.44-19.55,1.05l-3.33-1.52c13.57-4.28,30.43-13.38,47.14-10.6
		c-7.46-8.54-3.88,0.96-15.6-9.05c10.09,12.44-42.88-0.68-26.54,12.41c-12-11.6-21.06-4.97-36.85-14.9
		c0.44,2.85,5.56,5.47-8.49,4.01c-0.65,0.83-2.17,1.88-3.14,2.5c-0.43-0.07-0.58-0.13-0.95-0.22c0.28,0.11,0.49,0.24,0.77,0.34
		c-0.62,0.43-0.67,0.52,0.29,0.11c3.33,1.27,6.02,2.77,7.09,4.35c-7.11,6.5-29.49,6.22-37.12,9.58c-8.33-1.39,3.56-3.26-0.94-6.3
		l-11.4,5.02c-1-6.31-21.98-10.58-2.24-14.21l-17.7-0.35c-10.36-3.58-24.67-5.04-33.56-2.41c-8.32-1.39-21.23,6.92-13.86,2
		l-27.85,3.81l-0.23-1.57c-27.38-0.9-56.6,10.26-87.71-1.26c-9.26,1.56-18.83,3.48-34.22,1.63l-2.9-5.48
		c-11.88,1.86-35.46-5.6-40.66,0.08c-12.49-14.75-57.42-3.42-78.2-6.1l-0.93,7.13c-14.33-0.45-28.12,1.53-45.97,4.32l0.97,6.3
		c-15.44,5.12-39.36-4.63-63.65-4.06c1.7-2.41,7.84-1.75,12.17-0.28c-28.72-14.36-61.38,10.14-87.47-0.34
		c-6.6,2.28-11.33,1.47-15.89-0.12c0.61-0.02,1.16-0.14,1.63-0.33c-0.67-0.07-1.67-0.1-2.69-0.09c-2.87-1.09-5.83-2.37-9.04-3.38
		c2.72,1.54,5.32,2.81,7.59,3.4c-5.06,0.11-12.74,0.86-20.28,2.42l-3.07-6.78c-0.61,0.09-1.1,0.07-1.74,0.18
		c-7.32-2.52-5.99,3.19-2.15,8.3c-3.8,1.09-7.3,2.43-10.02,4.04c-5.78-10.95-19.78,3.61-27.73-8.07
		c-4.79,5.24-33.09,4.35-40.65,13.66c-8.29-1.38-16.56-2.73-24.08,0.6l-3.39-8.62l-18.51,11.51c-11.01-5.29-15.56-8.36-4.4-14.94
		c-26.84,10.11-21.69,3.76-44.54,13.78l1.21-5.56c-8.1,0.18-21.19,7.6-25.99,2.98c-17.91-10.65-89.61-1.78-135.92-11.8
		c8.71,16.43-21.47-7.41-23.56,5.28c-2.63-3.88-9.07-6.1-1.48-9.43c-23.81,3.71-35.54-6.29-52.13,4.37
		c-2.64-3.9,5.19-5.66,2.82-7.98c-1.92,0.83-7.6,3.35-10.03,1.02c-2.37-2.31,3.54-3.23,7.33-4.91
		c-24.25,0.57-26.94,12.51-28.91,23.71c-12.18-5.35-18.33-4.63-27.34,2.7c-4.21-3.69-11.27-7.55,3.82-8.81
		c-8.46-0.57-51.66-5.56-52.7,3.42c-2.61-2.29-11.83-0.71-14.08,0.32c-19-0.61-20.66-1.43-39.35-0.64l5.15,1.48
		c-7.58,10.82-15.57,2.36-30.64,3.62l0.45-1.1c-34.36-7.96-14.97,3.69-48.85-5.37l1.72,6.76c-3.45,14.5-30.01-8.67-49.87-3.19
		l7.06,3.88c-10.89,4.93-29.79-19.84-40.59-21.7c-2.34-1.27,3.77-2.01,7.09-2.92c-28.21-8.67-3.85,8.81-25.03,10.8
		c-3.81-4.78,5.26-12.11-8.96-13.05c-7.02-3.88-41.58,15.33-60.83,6.12c4.21,3.69,8.39,7.37-1.49,10.09
		c-15.08,1.26-40.44-14.02-54.25-2.49c-1.89-1.02-2.6-1.98-2.66-2.9c-11.57,2.95-37.5,4.83-44.55,11.08
		c-10.19-23.34-71.76,11.08-71.1-10.41l-35.42,1.02l0.97-2.19c-22.6-1.5-30.7,3.62-38.75,8.75c-5.2-1.48-1.34-3.48-0.89-4.6
		c-32.98-4.45-36.28-3.55-64.21,7.06l-2.75-6.99c-7.59,4.03-47.59-11.11-80.17-3.09c0.33-0.8,1.03-2.14,3.63-3.12
		c-36.64,8.05-86.97-19.64-100.83,5.7l-24.2,6.17c31.11,2.08-4.85,11.01,7.88,15.26c-12.28,1.44-31.52-7.77-16.44-9.02l2.33,1.28
		c5.78-13.21-38.62-4.83-37.6-13.84c-61.31,0.45-120.9-7.11-178.3-7.88l6.42,10.31l-20.01-0.66c-5.21-2.41-6.9-8.08,7.38-7.6
		c-7.4-5.86-24.05,4.81-24.51,7.03c-27.89-4.26,11.16-11.96,2.58-12.23l-11.66,0.72l2.6,1.21c-9.52,4.17-10.45,8.63-27.61,8.06
		c-10.83-2.11-5.45-6.37-9.72-6.78c0.04-0.75-1.4-1.09-6.55-0.33l-25.21-0.97l9.93,8.16c-11.26,3.97-23.72-0.51-12.25,8.73
		c-16.82-14.25-94.02-5.43-104.43-9.87c-15.78,5.86-31.23,5.7-50.37,4.91c4.73,1.71,7.4,10.85-9.09,9.68
		c6.4-18.82-30.09-8.29-43.18-21.9c11.76,9.04-47.01,2.05-28.53,14.89c-13.75-1.58-0.7-7.06-11.07-11.53
		c-32.95,7.19-72.21-5-112.81-2.69c-0.68,2.48,6.04,6.28-2.73,9.93l-21.17-12.45c-8.03,1.18-7.65,14.25-22.11,5.61
		c2.03,2.09,5.05,5.23-0.34,6.01c-79.21-12.33-162.52,9.29-242.76-13.64c10.83,4.84,3.54,5.28-4.8,5.43
		c4.35,0.94,1.58,4.32,0.84,7.35c-2.17,0.09-4.6,0.12-7.18,0.12l-26.49-7.44c-1.52,2.22-4.4,3.39-7.93,4.03
		c-0.59-0.46-1.3-0.92-2.31-1.4c-11.92,1.08-23.87,0.72-35.97-0.39l-2.43-8.29l-6.63,7.33c-30.48-3.65-62.14-11.1-97.08-12.25
		c-1.85,2.38,5.17,6.78-7.41,9.51L1101.9,68.2c-10.65,0.37-15.4,13.28-30.3,3.34c1.73,2.26,4.31,5.65-2.83,5.88
		C1021,67.4,968.49,65.77,916.4,62.59c-52.04-3.25-103.75-7.81-149.7-23.25c11.67,5.88,2.26,5.56-8.38,4.84
		c6.35,1.7-2.89,5.98-3.04,9.39l-38.56-12.76c-11.98,8.47-46.1-3.27-54.59,5.08l14.27-0.43c-22.78,8.78,14.64,25.03,5.94,38.02
		c25.56-10,45.37,21.86,86.18,7.91c6.09,3.32-8.18,3.73-5.65,7.13c10.98-4.95,21.66-5.27,39.33-1.14l-2.76,1.23
		c53.5,3.06,73.6,10.69,131.45,19.29l-1.52-6.9c12.4,1.9,14.19,4.18,19.45,6.3c19.04-8.74-35.66-3.46-17.47-13.33
		c11.09,14.69,90.03,7.48,94.91,23.55c19.64,1.67-2.47-8.05,17.15-6.37l3.44,4.52l7.26-4.88c12.52,1.91,16.81,7.57,15.8,11.07
		c-2.95-0.67-9.32,0.25-12.8,0.28c13.63,5.75,43.32,2.68,51.48,3.86l-16.34-3.72c55.33,0.51,118.61,11.24,174.1,6.79l-2.66-3.39
		c42.04-2.68,30.35,5.84,75,6.53l-1.89,0.61c9.98-2.41,22.26-3.08,34.03-1.81c-12.48,2.78,17.81,8.63,1.74,11.54
		c45.53-2.85,23.26-3.2,56.33-12.53l4.46,5.65c7.05-2.39,10.51-4.2,17.16-5.18c3.8,0.42,7.75,0.85,11.99,1.26
		c-3.36,3.2,12.9,7.68-5.12,11.15c41.13,14.8,72.35-6.28,86.77,11.71c26.63-12.7-36.41-10.78-23.45-12.97
		c-6.42-4.31,11.42-7.74,25.81-7.64c0.19,0.26,0.47,0.46,0.63,0.74c2.46,0.02,3.95-0.17,4.91-0.49c1.41,0.12,2.76,0.27,3.96,0.49
		c14.45,1.39,17.6,20.02,54.46,22.42c-3.63-0.33-4.3,0.73-7.92,0.39c12.33,4.63,28.86-2.95,43.42,4.18
		c12.8-7.93,21.71,2.08,28.69-8.69l-34.67,0.09c20.23-1.48,43.09-13.03,72.12-4.5c-3.3,2.03-13.78,4.27-20.84,5.42
		c7.95,3.91,18.54-0.85,26.79,3.17c-6.95,10.79-41.86-0.59-65.58,6.29c8.08,5.36,41.81-5.13,26.92,6.01
		c20.63-14.05,35.48,4.56,64.8-5.2l-4.16,6.46c4.33-0.74,13.68-3.26,20.86-2.57l-16.38,7.58c16.03-4.07,27.46,2.06,40.02,5.21
		c-1.07,0.48-2.14,0.95-3.25,1.39c-9.06-0.33-18.28-1.1-27.28-1.9c-0.2-0.07-0.27-0.08-0.19-0.02c-19.94-1.78-38.75-3.66-52.28-1.23
		c-16.51-0.93-32.56-1.79-52.89-1.46c-3.91-2.25-23.45-4.71-15.65-8.98c-5.58,1.8-10.54,5.15-22.84,5.6
		c-24.65-7.84,27.34-1.78,8.2-11.42c-1.01,5.59-31.11,8.27-48.32,12.07c6.24,8.5,40.71,0.91,57.94-2.88
		c0.82,7.85-11.83,16.17-32.4,22.73c-1.54-0.61-2.44-1.43-2.46-2.54c-41.78,1.42-83.28,0.72-124.13-0.12l-4.89-0.68
		c8.35-2.68,26.21-4.9,36.25-2.9c-17.87-6.46-105.42,0.63-154.12-4.76c-8.3,2.68-22.79,5.58-15.51,8.49l15.11-1.33
		c9.33,3.73-4.62,6.35-10.8,8.41c-3.77-2.56-2.67-6.05,12.38-6.08c-10.73-5.58-31.16,5.66-31.41,7.89
		c-12.94-1.12-15.36-2.93-13.55-4.81c8.12,0.16,14.31,0.16,13.84-1.17l-10.79-0.75c6.35-2.94,18.19-5.58,12.03-5.56l-15.36,1.14
		l3.64,1.12c-2.6,0.98-4.62,1.94-6.49,2.87l-5.38-0.37c0.45,1.17-2.3,1.91-5.7,2.5c2.17,0,4.37,0.03,6.55,0.07
		c-4.95,2.28-10.6,3.93-24.36,3.96c-14.69-1.71-8.22-6.16-13.94-6.41c-0.06-0.75-2.02-1.03-8.75-0.09l-29.13-0.05l0.57-0.46
		l-12.87-1.13l5.66,6.95l4.86-3.92l11.74,6.34c-11.78,3.59-25.47,1.52-20.74,5.56c-1.28,0.04-2.63,0.12-4.05,0.23
		c-14.73-3.41-38.1-3.79-61.26-3.34c9.61-3.81,26.84-7.78,22.4-14.29l-23.33,4.02c-0.6-1.58,7.74-4.27,1.02-5.6
		c-1.02,5.6-23.84,11.17-44.55,5.57c-8.39,1.96-10.38,6.46-8.47,11.73c-7.62,0.05-13.31-0.17-16-0.94
		c-20.06,6.38-40.61,6.74-66.12,6.6c6.53,1.55,11.43,10.58-10.65,9.97c5.73-19-41.16-7.26-60.51-20.4
		c16.92,8.62-62.08,3.63-35.7,15.82c-18.48-1.11-1.95-7.02-16.36-11.14c-11.17,2.18-23.12,3.02-35.61,3.16
		c-2.2-1.26-4.71-2.56-7.75-3.96c-2.81,0.89-4.99,3.36-14.45,2.91c-8.34-1.67-0.25-2.9-0.87-4.89c-4.01,1.25-12.42,3.17-9.75,5.14
		c-26.25-1.24-53.98-3.26-81.65-1.4c-0.56,2.5,8.89,6.08-2.24,10l-29.84-11.75c-10.49,1.43-8.17,14.47-28.57,6.3
		c2.98,2.02,7.43,5.06,0.39,6.01c-21.07-1.92-42.18-2.5-63.33-2.39c0.45-0.19,0.64-0.47,0.5-0.86l-13.47-2.71l-11.07,3.58
		c2.83-0.91,9.45-0.3,15.12,0.09c-83.13,1.17-166.93,12-251.81-3.93c15.01,4.51,5.39,5.17-5.67,5.56c7.32,1,0.47,6.1,2.23,9.43
		L311,238c-7.22,9.46-322.22,4.02-326,13l15,18c-16.54,10.08,285.15-12.08,289.8,0.24c-8.95-0.08-19.54,1.08-30.14,1.95
		c-9.51,0.04-19.03,0.15-28.56,0.32c-0.45-0.05-0.92-0.08-1.35-0.14l-4.27-2.31l-3.82,2.61c-17.62,0.39-35.27,0.95-52.95,1.59
		l14.23-3.62l-20.27,3.46l-0.45,0.39c-22.2,0.82-44.43,1.73-66.71,2.53c-81.35,2.87-163.19,4.42-245.13-5.17
		c22.39,4.33,7.88,5.11-8.79,5.64c10.98,0.91,0.44,6.1,2.95,9.41l-68.59-7.87c-11.29,9.56-72.36,2.16-78.45,11.2l21.22-2.06
		c-27.33,11.1,42.37,22.47,39.69,36.02c30.56-12.6,86.07,15.87,136.49-2.3c11.87,2.51-9.36,4.55-2.83,7.53
		c12.62-6.05,28.49-7.59,58.48-5.63l-3.19,1.5c83.24-3.21,119.67,1.83,213.82,3.48l-7.74-6.49c20.23,0.41,24.72,2.4,34.35,3.85
		c21.88-10.63-56.61,0.76-36.9-10.86c28.34,12.91,141.95-3.13,161.91,11.83c30.99-0.64-10.04-7.49,20.93-8.13l8.73,3.97l7.15-5.55
		c20.41,0.41,31.31,5.38,32.52,8.88c-4.98-0.3-13.88,1.31-19.13,1.74c25.08,3.99,67.55-2.39,80.79-2.19l-27.59-1.71
		c84.02-5.88,187.96-2.78,268.45-13.45l-6.62-2.97c15.68-1.89,26.62-2.67,35.38-2.86c2.58,1.29,4.31,2.44,0,3.53
		c7.9-0.36,15.19-1.47,22.04-2.87c13.23,0.91,27.54,2.11,61.04-0.08l-2.38,0.81c13.27-3.48,31.34-5.53,50.11-5.65
		c-16.77,4.12,33.51,6.3,11.41,10.96c66.73-7.98,32.76-5.76,75.75-18.57l11.03,4.95c12.34-4.34,14.94-6.8,36.17-8.81
		c1.86,0.11,3.43-0.3,6.98,0.56c-10.89,4.11,25.87,6.5-1.33,12.48c73.37,9.59,104.81-14.37,140.13,1.38
		c15.51-7.72-0.61-9.25-18.16-9.33c-1.37-1.65-0.59-2.62,16.59-1.61c1.12-0.83,3.75-1.88,5.42-2.5c0.75,0.07,1.02,0.13,1.66,0.21
		c-0.49-0.11-0.86-0.24-1.36-0.34c1.07-0.43,1.17-0.52-0.51-0.11c-5.85-1.27-10.59-2.76-12.51-4.35c1.95-1.03,4.63-1.88,7.72-2.62
		c1.45-0.01,2.87,0.01,4.21,0.06c13.66-0.19,25.88,5.99,45.64,10.63c-0.43,0.28-0.98,0.35-1.86-0.13c-2.7,2.3,1.42,2.25,6.96,1.25
		c12.57,2.58,28.05,4.38,48.49,3.71c-5.74,0.09-5.97,1.2-11.7,1.29c22.11,3.07,41.51-6.16,68.85-0.93
		c4.34-2.93,9.44-4.02,14.45-4.54c3.22,0.09,6.66-0.19,9.96-0.64c3.03-0.2,5.75-0.53,7.89-1.37c7.26-1.51,11.05-2.87,3.95-0.13
		l48.62-3.84l0.43,1.57c5.51,0.1,11.05,0.03,16.64-0.14c-14.3,6.11-64,1.9-90.77,10.05c16.2,4.26,59.51-9.75,45.2,2.74
		c20.86-15.95,57.08,0.35,94.3-12.45l-1.54,6.73c6.01-1.21,18.32-4.72,29.71-4.87l-19.24,9.21c30.45-8.26,61.93,4.77,91.6-0.2
		c-42.86,1.43-34.87-2.53-33.7-6.52c9.3,1.08,19.13,1,28.72-1.92c-2.48-0.62-4.91-0.93-7.44-1.45c-6.91,0.67-13.92,1.22-21.53,1.41
		c-0.84-1.2-3.28-2.32-9.13-3.19c4-0.59,7.64-1.04,11.1-1.43c6.47,0.79,12.98,1.83,19.56,3.21c7.2-0.7,14.56-1.45,22.84-1.93
		c17.43,4.63,26.58,13.56,77.61,10.59c-11.81,0.31-32.84-2.28-27.89-5.14c12.94-0.05,29.93,1.76,43.38,2.24
		c4.37,0.69,8.27,1.46,11.24,2.34c7.16-0.39,12.38-0.79,16.1-1.19c28.51,9.61,96.59,0.39,129.85,2.82l1.44-7.13
		c25.08,0.44,49.15-1.56,80.31-4.36l-1.86-6.3c6.66-1.27,14.26-1.63,22.56-1.46c-1.52,2.25-8.51,4.5-10.05,6.74
		c22.29,3.96,54.25-0.59,69.27-1.12c-5.83-0.07-12.81-0.23-16.52-1.07l4.96-0.96c13.36,1.14,27.27,2.07,41.23,1.88
		c-2.91,2.41-13.67,1.76-21.28,0.29c35.26,9.99,73.38,1.13,108.79-1.64c7.87,1.68,15.78,3.45,11.5,4.81
		c14.27,0.97,30.76-1.49,48.41-4.29c4.33,0.14,8.27,0.71,12.14,1.48c-1.07,0.02-2.02,0.14-2.85,0.33c1.17,0.07,2.92,0.1,4.71,0.09
		c5.05,1.09,10.26,2.36,15.9,3.38c-4.79-1.54-9.37-2.81-13.37-3.4c8.84-0.12,22.26-0.88,35.42-2.44l5.54,6.78
		c1.07-0.09,1.93-0.07,3.04-0.18c10.19,1.99,10.7-1.18,7.1-5.12c5.08-1,2.71-2.52,1.91-4.24c4.44-0.88,8.62-1.84,11.97-2.99
		c10.39,10.95,34.52-3.63,48.72,8.05c8.16-5.2,56.79-4.4,70.34-13.44c0.36-0.06,0.73-0.13,1.09-0.2c4.05,0.38,8.1,0.74,12.12,1.01
		l21.96,6.95c18.06-1.71,8.74-4.49,2.19-7.57c1.75-0.29,3.47-0.63,5.18-1.07l6.15,8.62l32.09-11.53c1.45,0.39,2.81,0.77,4.12,1.14
		c0.42,1.57,1.65,2.94,5.92,3.54c0.9-0.25,1.86-0.52,2.82-0.79c8.64,3.21,9.27,6.09-3.88,10.72c-14.03-1.45-21.87-4.95-18.27,2.52
		c8.75-0.01,18.41-1.35,27.61-2c-3.18-0.01-6.17-0.19-8.92-0.47c45.12-9.7,36.93-3.61,76.25-13.54l-1.64,4.62
		c-24.09,4.99-36.88,4.65-12.86,10.02c0.39-9.35,28.29-11.03,56.88-12.51c0.35,0.14,0.72,0.26,1.03,0.43
		c31.61,10.64,156.81,1.71,238.08,11.68c-15.64-16.42,37.76,7.4,41.08-5.3c4.71,3.88,16.03,6.09,2.82,9.43
		c41.55-3.73,62.33,6.26,91.09-4.42c4.72,3.9-8.93,5.66-4.72,7.98c3.34-0.84,13.22-3.35,17.52-1.03c4.21,2.31-6.11,3.24-12.69,4.92
		c42.42-0.59,46.81-12.53,49.98-23.74c21.45,5.34,32.18,4.61,47.76-2.73c7.45,3.68,19.9,7.54-6.46,8.82
		c14.82,0.56,90.52,5.52,92.11-3.47c4.63,2.29,20.72,0.7,24.63-0.34c33.26,0.59,36.18,1.41,68.86,0.6l-9.04-1.48
		c6.57-5.48,13.46-6.02,22.07-5.38c-0.67,0.54-1.53,1.01-2.38,1.31l6.77-0.91c7.48,0.75,16.23,1.86,27.06,1.34l-0.76,1.1
		c60.32,7.93,26.1-3.7,85.6,5.33l-3.19-6.76c5.68-14.5,52.71,8.64,87.33,3.14l-1.85-0.57c4.47,0.13,8.98,0.2,13.49,0.22
		c16.66,6.11,35.17,16.94,47.48,18.14c4.12,1.27-6.54,2.01-12.32,2.93c44.97,7.85,13.89-5.77,35.33-9.86l-2.61,2.34
		c2.48-1.26,4.66-2.16,6.73-2.93c1.29-0.14,2.51-0.28,4.07-0.37c6.79,4.78-8.89,12.11,16,13.04c12.37,3.87,72.36-15.37,106.25-6.17
		c-7.46-3.68-14.86-7.36,2.35-10.09c2.05-0.1,4.25-0.07,6.5,0.01c0.65,3.66,3.27,7.65,6.46,10.09c-2.65-3.24,28.39,1.57,37.54,0.41
		l-13.06-4.29c6.88,0.77,12.65,0.52,17.75-0.37c15.05,1.56,29.39,1.61,39.78-3.41c3.34,1.02,4.6,1.98,4.73,2.9
		c2.61-0.38,5.66-0.75,8.99-1.11c0.95,2.96,3.79,5.43,9.87,6.37c2.48-1.8,6.45-4.83,11.45-8.44c19.24-1.83,39.75-4.04,47.35-7.95
		c0.53,0.67,1.14,1.27,1.81,1.85c-15.53,7.07-31.08,13.56-42.33,17.35c13.04,4.28,2.58,5.62,23.51,6.14
		c6.34,4.65-12.91,6.03-19.1,6.01l47.87,4.99c0.05-9.5,39.3-7.76,39.28-15.72l-54.96,7.41c0.07-6.19,15.56-14.96,35.7-19.53
		c10.87-0.01,23.18-1.14,35.22-2.38c6.74,4.34-10.68,16.24-10.7,19.35c5.21-3.05,34.06-4.83,36.69-2.41l-15.74,4.43
		c18.34,4.33,34.08-11.18,55.04-1.24c7.8,0.93,20.99,13.1,23.61,7.59c-4.69-5.02-6.3-14.39-5.74-23.93l36.43-0.62l-1.64,2.19
		c6.91,0.26,12.81,0.25,18.3,0.14c-6.7,5.2-15.18,10.26-9.9,14.53c1.05-2.55,8.97-5.43,12.2-6.32c7.85,2.54-5.21,7.82,13.16,7.41
		c5.12-9.41,36.66,2.33,10.33-7.71c18.3-1.99,18.39,2.76,39.28,3.19c-2.79-3.41,3.89-8.85,13.48-13.53
		c17.27,0.94,28.66,0.81,40.9-0.68c30,2.57,48.29,6.73,78.96,8c2.64,2.43,18.4,5.84,10.6,9.69c5.22-1.51,10.36-4.58,20.85-4.41
		c18.53,9.01-23.56,0.4-10.18,10.92c2.46-5.5,28.6-6.65,44.17-9.55c-2.84-8.75-34.02-2.94-49.64-0.04
		c0.87-4.36,5.34-8.65,12.4-12.55c25.37,2.06,55.07,3.41,81.81-0.38c-0.56,0.8-1.75,2.14-6.26,3.12
		c16.54-2.09,34.74-1.78,53.04-0.63c-8.27,1.84-21.69,2.71-28.82,0.46c13.26,7.26,88.91,4.74,128.51,12.33
		c7.72-2.27,20.72-4.48,15.37-7.71l-13.09,0.61c-0.64-0.39-1.09-0.75-1.41-1.1c9.86-1.47,17.71-4.44,22.66-9.75l42.17-6.19
		c-4.9-0.18-8.82-0.43-11.97-0.71c6.73-0.28,13.71-0.02,21.01,1.29l2.99,8.75c-0.06-2.53-14.96-5.65-22.28-3.27
		c10.84-3.47,35.18,12.9,48.35,2.01l-15.97-6.53c1.83-0.38,3.72-0.81,5.64-1.26c9.96,0.76,22.27,0.87,32.08,1.45
		c-3.5,0.38-7.47,1.03-11.51,1.72c0.29,5.74,11.16,4.16,23.09,3.5c-0.71,0-1.39,0.02-2.08-0.07c1.23-1.96,1.33-3.29,0.59-4.16
		c4.46,0.72,7.2,1.8,6.9,3.56c0.5,0,1,0.01,1.5,0.01c-1.32,0.22-2.72,0.43-4.15,0.56c3.67-0.14,7.38-0.16,10.88,0.23
		c0.2-0.32,0.25-0.54,0.29-0.76c19.59-0.02,39.08,0.22,58.48,0.62c5.77,2.12,8.75,4.35,1.59,6.45c-23.37,2.08-18.4-2.6-29-5.91
		c8.24,7.23-30.88,9.08-27.72,19.43l20.71-2.9c0.1,1.6-7.63,3.88-2.31,5.51c2.32-5.51,22.98-9.98,39-3.45
		c11.03-2.26,12.01-10.49,8.02-18.94c14.76,0.35,29.46,0.77,44.09,1.26c0.43,0.56,0.99,1.14,1.85,1.77
		c7.12,0.09,11.16-0.43,13.93-1.22c46.94,1.64,93.24,3.57,138.73,4.53c2.74,4.59,5.81,8.31,13,13.24c2.59-0.77,5.01-3.12,12.89-2.27
		c6.63,2.02-0.49,2.89-0.44,4.9c5.06-1.46,17.5-3.83,2.9-7.23l-2.52,0.76c-9.74-1.82-21.02-6.64-25.37-9.38
		c11.98,0.25,23.91,0.44,35.77,0.53l-11.49-10.31l35.03,0.64c8.82,2.31,11.95,7.62-10.03,7.62c0.46-1.66,2.12-3.4,8.8-5.41
		c-10.18,3.07-30.9,6.05-12.2,11.75c3.72-1.91,3.04-3.67,3.19-5.5c13.93,3.76,39.53-5.81,40.22-7.91
		c21.89,1.9,20.32,4.49,13.26,6.81l-7.42,1.52l1.93,0.02c-8.67,2.14-18.73,3.77-11.98,3.89l20.39-0.73l-4.58-1.21
		c15.29-3.86,17.79-7.95,41.74-8.11c-0.38,0.08-0.59,0.15-1.01,0.23c1.99-0.04,3.78-0.12,5.47-0.22c0.64,0.01,1.23,0,1.9,0.02
		c18.99,2.1,9.7,6.36,17.18,6.77c-0.05,0.75,2.48,1.09,11.47,0.32l44.14,0.94l-17.58-8.15c19.6-3.98,41.5,0.49,21.21-8.74
		c29.78,14.24,164.62,5.35,182.94,9.78c27.45-5.88,54.5-5.73,88-4.96c-8.31-1.71-13.23-10.84,15.67-9.69
		c-10.72,18.83,52.85,8.26,76.1,21.86c-20.8-9.02,82.18-2.1,49.53-14.92c24.1,1.57,1.41,7.06,19.67,11.52
		c57.46-7.22,126.45,4.94,197.41,2.58c1.13-2.48-10.72-6.27,4.52-9.93l37.36,12.43c14.02-1.19,13.02-14.26,38.55-5.63
		c-3.6-2.09-8.97-5.23,0.44-6.01c138.88,12.26,284.08-9.44,425.04,13.43c-19.08-4.83-6.33-5.28,8.27-5.43
		c-9.48-1.16,0.26-6.11-1.57-9.47l59.01,9.41c10.85-9.29,63.36-0.53,69.6-9.42l-18.73,1.58
		C6379.91,270.48,6320.31,257.55,6324.06,244.09z M2006.16,162.24l1.97-0.63c-0.49,0.29-0.9,0.58-1.25,0.87
		C2006.61,162.41,2006.33,162.34,2006.16,162.24z M2459.01,163.92c-23.26-4.31-18.71,0.26-18.5,5.05l-8.27-0.29
		c-0.51-2.91-0.41-5.71,0.74-8.23c6.34,0.98,13.79-0.51,21.77-2.41L2459.01,163.92z M2692.12,150.99c0.87-0.24,1.89-0.44,2.97-0.63
		l7.5,3.06c-2.86-0.19-3.34,0.93-6.17,0.73c2.33,1.11,4.3,1.74,6.03,2.01c-6.39,0.49-12.38,1.11-16.93,2.17
		c-0.16-0.43-0.2-0.85-0.24-1.28C2688.71,155.82,2691.13,153.88,2692.12,150.99z M2948.59,150.16c0.01,0.03,0.03,0.05,0.05,0.08
		c0.09-0.04,0.11-0.09,0.2-0.13c1.26-0.2,2.73-0.37,4.53-0.47c6.95,1.3,13.15,1.61,19.35,1.23c1.47,1.7,0.72,3.49-1.55,5.31
		c-0.17-0.02-0.35-0.03-0.51-0.05c0.11,0.11,0.14,0.18,0.24,0.29c-1.92,1.46-4.76,2.94-8.21,4.41c-5.1-1.07-10.96-2.41-15.4-2.45
		c-0.25-0.24-0.51-0.48-0.77-0.72c2.15-2.57,3.18-5.09,2.11-7.41c-1.05,0.5-2.62,0.97-4.45,1.4
		C2944.97,151.04,2946.39,150.53,2948.59,150.16z M3381.17,224.66c-0.54-0.06-1.03-0.08-1.56-0.13c6.73-0.49,13.19-1.56,19.01-3.55
		C3398.93,222.73,3395.02,224.18,3381.17,224.66z M1363.17,242.68c-1.05,1.06-3.64,2.32-6.73,3.53l-17.3,0.23
		c-3.21-0.62-5.82-1.54-7.23-2.53l0.11-1.07C1340.8,241.19,1350.86,240.66,1363.17,242.68z M1946.54,192.15
		c0.01,0.33,0.03,0.67,0.04,1c-6.36,1.73-13.54,4.08-22.98,7.21l-4.85-6.86c-1.21,0.56-3.21,0.81-5.82,0.86l1.82-6.84
		c3.16-0.93,6.58-1.72,10.38-2.04l-2.36,6.71C1936.55,194.64,1942.8,193.88,1946.54,192.15z M3182.09,196.13
		c-1.97,1.05-4.74,1.62-8.26,1.76C3176.79,197.34,3179.57,196.76,3182.09,196.13z M3220.42,184.72c1.06,0.16,1.96,0.27,3.1,0.45
		l-1.04-2l12.37-9.36c5.04,0.58,11.01,1.79,17.49,3.1c1.29,3.05,2.58,6.21,3.37,9.27c-15.56-0.58-21.01,0.2-26.08,0.96l-0.51-0.69
		l-0.54,0.84c-3.24,0.48-6.66,0.9-12.76,0.91L3220.42,184.72z M3271.09,187c-0.6-0.04-1.17-0.08-1.75-0.11
		c0.28-0.1,0.55-0.21,0.9-0.26C3270.55,186.76,3270.79,186.87,3271.09,187z M3313.28,188.98c1.26-1.64,2.93-3.12,4.96-4.24
		c2.61,1.22,5.22,2.46,7.79,3.67C3322.22,189.06,3317.99,189.13,3313.28,188.98z M1909.71,189.15l0.83,5.19
		c-6.32-0.12-15.31-1.06-25.89-2.02c-1.2-1.32-0.9-2.56,3.86-3.37C1894.83,194.78,1901.23,192.1,1909.71,189.15z M1801.16,248.59
		c-0.19,0.46-0.33,0.93-0.48,1.39c-1.75-0.22-3.42-0.47-4.98-0.73C1797.38,248.98,1799.15,248.74,1801.16,248.59z M3332.73,221.64
		c-9.21-0.76-18.28-1.67-27-2.8C3312.35,218.79,3321.89,220.17,3332.73,221.64z M3446.94,221.01c-2.77,1.52-5.59,3.09-10.46,4.59
		c-3.55-0.13-6.61-0.42-9.41-0.78C3435.56,223.29,3441.39,222.21,3446.94,221.01z M3505.77,228.21c-0.1-6.8-16.55-5.15-37.11-4.79
		l1.36-8.27c4.09-1.13,8.74-2.44,14.35-4.03l0.52,0.06c3.27,1.56,8.05,1.83,16.61,2.16l-1.18-0.37l22.06,2.57
		c-12.83-2.55-13.12-5.86-6.99-9.42l1.27,0.03c13.94,4.86,54.33,16.17,26.34,20.39C3534.21,225.1,3522.63,224.4,3505.77,228.21z
		 M3520.61,206.24l24.17,0.49c-0.54,0.85-0.87,1.68-0.97,2.49C3536.75,208.53,3529.04,207.73,3520.61,206.24z M4126.53,121.46
		l-3.37,0.77c-3.07-1-3.86-1.94-3.44-2.87c0.01,0,0.02,0,0.03,0C4121.25,120.26,4123.59,120.93,4126.53,121.46z M4121.55,111.02
		c-13.52-2.14-8.7-1.27,0.55-0.36C4121.88,110.78,4121.72,110.87,4121.55,111.02z M4111.46,118.61c-3.78,0.82-8.05,1.57-13.61,1.91
		c0.26-0.49,0.47-0.98,0.68-1.47C4102.13,118.53,4106.37,118.35,4111.46,118.61z M4232.65,108.37c-0.58,0.51-1.49,0.92-2.29,1.37
		c-0.52-0.29-1.3-0.58-2.59-0.87c1.23-0.39,2.49-0.81,3.75-1.22C4231.92,107.88,4232.36,108.12,4232.65,108.37z M4119.88,119.38
		c0.97,0.12,1.83,0.18,2.86,0.33c0.38,0.13,0.66,0.27,1.01,0.4C4122.35,119.97,4121.02,119.75,4119.88,119.38z M3948.17,115.81
		c-1.34-0.07-2.69-0.14-4.03-0.22c1.38-0.45,2.73-0.84,4.03-1.09C3948.02,114.92,3948.12,115.37,3948.17,115.81z M3476.05,136.91
		c-0.96-0.19-1.92-0.31-2.88-0.55c-2.58,0.81-4.97,1.29-7.25,1.56l8.21-6.79c3.25-0.49,6.79-0.81,10.36-0.94l-3.74,5.75
		L3476.05,136.91z M3177.72,135.87l1.05,1.99c-1.44-0.42-2.14-0.84-2.31-1.26C3176.87,136.37,3177.28,136.12,3177.72,135.87z
		 M1924.36,138.63c10.01-2,18-3.67,25.42,1.83C1941.24,139.95,1932.78,139.31,1924.36,138.63z M1109.1,247.73
		c-6.6,1.79-6.29,3.28-4.24,4.77c-6.11-0.2-12.56-0.3-19.2-0.33C1090.04,250.2,1095.6,248.84,1109.1,247.73z M1069.39,252.21
		c-0.29,0-0.58,0.01-0.88,0.01c0.19-0.09,0.33-0.16,0.53-0.24L1069.39,252.21z M1169.29,248.59c0.57-0.23,1.15-0.46,1.8-0.68
		l2.17,0.77c-0.35,0.08-0.71,0.13-1.07,0.2C1171.21,248.78,1170.25,248.69,1169.29,248.59z M2819.89,251.4
		c-2.69,0.4-5.45,0.77-8.25,1.12C2813.16,251.92,2815.87,251.53,2819.89,251.4z M3572.38,224.91c-8.82,7.76-15.55,4.03-28.64,1.77
		C3551.44,225.27,3566.8,220.89,3572.38,224.91z M3552.22,210.06c2.3-0.41,4.81-0.8,7.49-1.11c-1.07,0.61-1.89,1.18-2.52,1.71
		C3555.57,210.44,3553.92,210.24,3552.22,210.06z M3580,199.3c-3.32-0.82-6.56-1.71-9.85-2.57c8.82-2.4,17.32-4.68,15.67-8.43
		l-22.2,4.95c3.25-1.81,6.37-3.54,9.18-5.1c-5.17,1.41-11.04,3-17.19,4.68c1.43,0.4,2.92,0.81,4.4,1.22L3533.4,200
		c-0.11-0.26-0.1-0.55-0.16-0.82c6.95-2.16,14.78-4.3,22.37-6.34c-5.8-1.62-11.05-3.1-15.63-4.31c0.03-0.02,0.06-0.04,0.09-0.07
		c10.1,0.41,19.32-0.54,26.04-4.65c3.01,0.96,4.2,1.9,4.41,2.81c1.93-0.37,4.18-0.74,6.6-1.1c-1.23,0.83-2.68,1.71-4.31,2.64
		c3.13-0.87,6.1-1.72,8.38-2.5C3599.13,188.29,3591.3,193.81,3580,199.3z M3596.7,202.87c8.14-0.88,17.54-1,28.29,0.33
		C3618.94,205.67,3608.62,204.97,3596.7,202.87z M4532.1,113.11l2.2,0.64c-1.19,0.11-2.38,0.18-3.55,0.18L4532.1,113.11z
		 M4646.64,125.26l0.51,0.2c-4.82,1.28-9.92,2.41-15.42,3.23C4636.58,127.33,4641.54,126.14,4646.64,125.26z M4593.19,160.02
		l24.66,0.03c-5.79,2.46-11.48,4.82-16.96,7.01L4593.19,160.02z M4638.53,180.2c-2.79-4.65,7.44-11.83,25.06-17.96
		c10.97,4.02-27.03,10.13-16.22,10.13l17.62-1.08l-4.11-1.13c13.93-4.46,14.77-8.94,40.9-8.91c13.95,1.47,11.01,4.77,13.44,5.99
		L4638.53,180.2z M4720.59,165.16l-6.19-1.66C4727.79,161.29,4724.16,163.13,4720.59,165.16z M4893.8,120.16
		c4.53,0.57,9.21,1.17,13.87,1.81c-1.33,0.27-2.76,0.54-4.42,0.78l-0.01-0.03l-0.01,0.03c-3.89,0.58-8.8,1.08-15.33,1.54
		C4894.45,122.77,4895.17,121.45,4893.8,120.16z M5525.26,105.73c0.43-0.02,0.86-0.03,1.29-0.05c-0.18,0.16-0.24,0.27-0.45,0.44
		C5525.86,105.97,5525.51,105.87,5525.26,105.73z M5526.52,70.65c-0.34,0.13-0.58,0.22-0.85,0.38
		C5505.48,69.35,5512.67,70.06,5526.52,70.65z M5527.05,79.72c18.95,4.06,15.28,9.19,12.59,13.69c-6.74-0.32-13.79-0.62-21.43-0.88
		l5.91,6.56c-15.35-0.61-18.77-2.64-26.09-4.18c-12.4,7.81,17.92,3.79,27.61,6.1c-6.81,0.38-13.1,0.39-18.99,0.16
		c-4.58-0.47-9.57-0.76-14.88-0.91c-10.96-0.87-21.08-1.82-31.73-1.17l14.5,1c-22.84,0.08-46.99,0.8-61.18-2.68
		C5472.2,92.61,5463.61,75.01,5527.05,79.72z M5392.84,98.5c1.35-0.03,2.45-0.11,3.75-0.15c0.48,1.22-1.01,2.19-9.23,2.3l-6.63-4.05
		l-5.41,5.47c-11.45-0.45-18.94-3.34-22.44-6.23c3.91-0.7,7.89-1.37,12.01-2C5407.6,88.79,5385.72,100.54,5392.84,98.5z
		 M4634.47,112.77c0.2,0.12,0.34,0.23,0.54,0.35c-16.34,2.46-32.42,4.98-48.25,6.02C4591.15,112.91,4613.69,114.34,4634.47,112.77z
		 M4552.08,116.19l0.15-0.75c0.19,0.16,0.37,0.32,0.57,0.48C4552.55,116.02,4552.32,116.08,4552.08,116.19z M4546.91,110.28
		l-13.38,1.97l10.26-6.2C4544.71,107.5,4545.74,108.89,4546.91,110.28z M4508.49,116.16c-2.41,0.41-4.49,0.67-6.64,0.96
		c-1.22-0.15-2.38-0.32-3.63-0.46c0.99,0.22,1.9,0.37,2.86,0.57c-14.11,1.86-22.84,1.23-29.41-0.58c10.35-0.99,19-0.79,26.55,0.01
		c-5.26-1.15-10.7-2.5-15.82-3.74l-0.45-2.83c12.38,1.28,9.78-2.6,11.37-5.02l-4.92,0.65c1.09-0.59,2.51-1.16,4.43-1.71
		C4513.95,105.46,4490.92,112.37,4508.49,116.16z M4491.62,103.94c-10.65,0.86-12.56,0.63-11.48-0.16
		C4484.83,103.73,4488.66,103.78,4491.62,103.94z M4478.26,111.24l2.88,1.38c-1.51-0.36-2.99-0.72-4.41-1.05
		C4477.29,111.46,4477.77,111.35,4478.26,111.24z M4275.33,101.45l1.35,3.43c-7.88-2.23-14.94-2-23.64-3.28
		C4259.91,100.37,4267.27,99.95,4275.33,101.45z M4166.14,88.64c-0.19,0.11-0.32,0.19-0.48,0.33
		C4155.91,86.3,4159.37,87.36,4166.14,88.64z M4165.03,97.68c7.24,4.11,6.73,8.18,5.2,11.91c-5.82,0.47-11.04,0.97-14.79,1.06
		c4.42,0.17,9.71,0.44,12.49,1.35l-7.87,1.8c-7.24-2.99-13.58-5.37,2.81-8.41l-23.5,0.62c-3.75-0.77-7.81-1.38-11.97-1.82
		C4138.31,98.86,4144.26,92.36,4165.03,97.68z M4095.7,105.14c-0.41,0.1-0.89,0.17-1.28,0.28c-11.33-0.93-26.49,8.04-17.87,2.74
		l-10.69,1.58c-0.9-0.28-1.78-0.56-2.64-0.84c5.87-2.15,12.4-3.97,19.41-5.34C4091.79,102.35,4094.88,103.52,4095.7,105.14z
		 M3864.24,114.21c-2.57,0.01-5.29-0.05-8.09-0.16l-6.35-2.85l-0.03-1.61l-0.37,1.43l-7.1-3.18c-10.6,1.05-8.89,3.05-5.33,5.37
		c-4.03-0.09-7.69-0.03-10.65,0.33c0.61-5.4,1.88-9.87,3.86-12.21C3831.98,101.96,3853.27,108.84,3864.24,114.21z M3722.24,99.89
		l4.77,4.65l19.55-5.21c-3.23,3.18-8.01,7.3-13.61,11.8c-10.64,1.2-23.76,1.4-35.79,2.04
		C3704.89,107.11,3713.44,102.02,3722.24,99.89z M3660.89,122.78c-0.15,0.14-0.32,0.34-0.48,0.53l-1.99-0.48
		C3659.25,122.81,3660.02,122.75,3660.89,122.78z M3551.73,101.77c-0.59,0.73-1.08,1.51-1.39,2.38
		C3550.12,102.63,3548.16,101.9,3551.73,101.77z M3503.81,106.56c-2.51,5.86,1.5,16.38,1.26,25.39c-5.31,2.11-11.7,4.34-16.62,5.94
		l-0.97-2.52c0.17-0.22,0.11-0.47-0.3-0.77l-1.72-4.46c1.37-0.03,2.74-0.05,4.09-0.02c-3.1-2.29-5.73-3.93-8.08-5.08L3503.81,106.56
		z M3290.34,125.4c-1.97-1.41-3.56-2.93-5.04-4.44c3.04-0.54,6.08-1.08,9.38-1.45C3292.04,121.65,3290.85,123.55,3290.34,125.4z
		 M3275.61,123.03c5.93,3.3,14.52,7.51-8.19,8.88c-5.46-0.55-10.54-0.78-15.5-0.87C3259.07,127.95,3266.88,125.2,3275.61,123.03z
		 M3205.35,132.44c-3.31,2.22-8.34,1.1-13.99-1.49C3195.51,130.41,3200.19,130.67,3205.35,132.44z M3172.24,119.28
		c-4.74-3.28-8.78-6.15-11.51-7.52l24.26-4.74c2.89,1.49,0.4,4.57-3.64,8.32c1.66-0.74,3.24-1.47,4.47-2.14
		c8.58,3.36,4,8.53-2.29,13.54c-2.91-1.79-5.8-3.69-8.6-5.59c-6.07,5.45-11.77,11.48-10.63,16.75c0.93-0.61,2.42-1.12,4.12-1.58
		l-4.06,1.78c-0.02-0.07-0.04-0.14-0.06-0.2c-0.22,0.14-0.33,0.3-0.49,0.44l-0.43,0.19c-4.37-0.1-3.18-2.32-2.57-3.45
		c-6.49,1.35-7.32,3.26-8.23,5.23C3139.93,133.55,3157.12,125.72,3172.24,119.28z M3134.62,134.55l17.91,5.84
		c-1.14,2.46-2.52,4.98-15.4,6.56c-2.71,5.05-15.32,1.56-30.75-1.63C3116.44,142.61,3118.89,141.66,3134.62,134.55z M3092.73,142.9
		c-1.68-0.24-3.36-0.45-5.04-0.62c1.18-0.42,2.34-0.93,3.47-1.58C3092.44,141.4,3092.8,142.14,3092.73,142.9z M3069.68,142.41
		c-3.6,0.52-7.09,1.37-10.34,2.73c-5.15-1.68-1.79-3.71-0.07-5.95C3062.56,140.38,3066.08,141.55,3069.68,142.41z M3040.2,137.29
		c1.71-3.88,6.95-2.46,13.83,0.01c-11.18,2.28-18.25,3.65-23.8,4.82C3031.28,140.18,3033.29,138.35,3040.2,137.29z M3008.15,144.21
		c3.27,0.79,4.76,1.52,5.23,2.22c-4.78,1.45-10.63,3.36-19.26,6.21l-13.73-2.59C2988.59,148.89,2997.29,146.75,3008.15,144.21z
		 M2932.02,151.17c-1.07,0.47-2.22,0.98-3.5,1.51l-3.37-3.57C2927.92,149.55,2930.17,150.25,2932.02,151.17z M2855.87,145.9
		c-3.66,1.31-7.32,2.66-11,4.02c-0.27-0.2-0.58-0.35-0.79-0.63C2848.04,143.31,2851.22,144.16,2855.87,145.9z M2843.01,150.6
		c-16.68,6.16-34.26,12.46-56.54,17.05c-8.21-0.21-18.42-0.35-27.9-0.05c2.48-4.93-3.85-9.09-3.94-15.7
		c12.83,7.27,32.46-0.37,54.64-2.76C2820.5,161.78,2822.26,147.6,2843.01,150.6z M2809.24,142.41l16.52-4.56
		c5.18,3.91-2.17,7.63-11.04,8.71c-2.33-1.53-0.43-3.49,1.8-4.41l-21.93,4.11c4.8-2.89,12.47-6.54,16.58-8.24
		C2818.66,140.79,2807.35,140.03,2809.24,142.41z M2790.04,147.11l-23.1,4.33c0.09-1.4-0.41-2.37-1.17-3.17L2790.04,147.11z
		 M2764.43,145.09c4.56,0.32,4.45,2.5,1.31,3.15c-1.08-1.1-2.85-1.78-5.21-2.22L2764.43,145.09z M2736.13,143.2
		c2.66,0.46,5.01,1.04,6.91,1.69c1.39,2.38,0.85,4.19-1.14,5.56l-3.47,0.84c1.26-0.2,2.23-0.41,3.16-0.62
		c-2.53,1.57-6.92,2.59-12.34,3.31l-2.14-3.44l1.02,3.58c-6.18,0.76-13.44,1.2-20.57,1.68
		C2715.31,153.12,2717.65,141.14,2736.13,143.2z M2651.64,150.03c-6.62,1.84-11.76,0.36-17.93,1.07l15.06,5.55
		c-1.29,0.62-2.54,1.18-3.77,1.69c-14.17,0.28-28.58-1.87-23.3-4.75l6.09-0.21c-5.23-0.12-11.17-0.17-17.54-0.15
		C2621.24,148.47,2636.18,143.67,2651.64,150.03z M2586.63,145.69c16.01-2.27,12.74,3.4,12.92,7.65
		c-7.79,0.13-15.95,0.37-24.15,0.73C2572.63,150.83,2571.64,147.46,2586.63,145.69z M2560.61,151.9l3.63,2.74
		c-32.26,1.9-61.94,5.87-64.81,12.95c-0.5-1.39,3.06-12,5.39-15.91C2522.6,153.61,2539.01,158.73,2560.61,151.9z M2491.99,154.07
		c1.11-1.06,3.33-2.08,7.83-2.85c1.4,0.09,2.78,0.22,4.16,0.36l-12.47,7.57c0.06-1.11-0.67-2.48-0.23-3.85l-7.6,6.18
		c1.95,0,3.31-0.11,4.43-0.27l-20.15,12.23c-6.44-3.17-12.37-5.72-16.88-6.14c-3.17-1.11,3.83-2.07,8.16-3.07l3.4,4.7l12.82-15.19
		C2481.01,153.05,2486.58,152.95,2491.99,154.07z M2249.45,137.91l-0.04,6.79c32.97,4.47,9.04-14.11,38.69-8.74l-12.76,9.36
		l15.56-2.38l-3.35,7.71c16.99-5.66,22.21-4.17,38.71-1.94c-3.75-4.78,2.4-12.3,17.04-12.46c9.91,4.06-5.72,6.43,15.05,5.53
		c-4.77,4.22-10,9.53-18.91,3.26c-0.97,2.21-4.7,4.23-5.7,6.42c10.66,4.67,27,1.15,34.52,1.11c-2.89-0.26-6.34-0.64-8.09-1.6
		l30.26-9.3c4.69,2.57,0.89,4.6-2.87,6.6c6.11-0.72,10.38-3.83,19.35-4.37c-2.43,5.5-1.98,11.2-14.71,13.75l17.8-3.72
		c3.73,2.17,7.62,6.35,8.71,9.67c-1.24-0.13-2.6-0.23-4.26-0.26c-2.03-0.72-5.43-0.42-9.72,0.41c-13.18-5.07-12.38-2.95-38.18-10.49
		c6.04,1.21,5.06,7.53-0.04,12.36c-5.5,0.97-10.09,2.36-14.38,3.9c0.35-4.46-2.56-14.31,2.14-15.82l-22.58,9.99
		c-4.42-0.66-8.36-1.17-11.97-1.52c-2.13-3.62-6.76-7.48-11.48-9.71c4.34,3.03-33.61,0.33-43.81,2.08l16.82,3.37
		c-11.66-0.42-19.98,1.01-26.79,3.31c-7.66-0.9-18.9-3.51-32.13-5.92c12.33-2.2,18.08-2.06,10.9-9.71
		C2237.65,143.62,2242.25,139.35,2249.45,137.91z M2222.38,143.72c0.55,0.46,1.08,0.84,1.59,1.18c-1.86,0.06-3.28,0.24-4.34,0.51
		C2219.92,144.84,2220.72,144.27,2222.38,143.72z M2189.97,147.14c5.13,0.87,11.13,2.24,16.26,3.95c-1.55-0.12-3.28-0.29-5.43-0.61
		c-1.14,0.62-1.16,1.12-0.51,1.54c-3.87-0.42-7.81-0.75-11.8-0.97C2186.59,149.75,2186.41,148.31,2189.97,147.14z M2176.65,150.8
		c-5.03,0.07-10.08,0.34-15.1,0.95c0.68-0.76,2.01-2.04,5.64-2.8c-8.94,0.93-18.07,0.65-27.17-0.28c0.04-0.46,0.14-0.94,0.31-1.43
		c4.7-0.85,10.02-1.38,12.94-1.54l-12.33-0.38c0.5-1.92,0.28-3.9-4.12-5.53C2164.28,133.64,2164.22,144.65,2176.65,150.8z
		 M2118.3,144.62l-5.35-0.16c-0.73-0.14-1.46-0.28-2.19-0.42c3.27-1.23,7.43-2.61,11.26-2.48L2118.3,144.62z M2108.19,138.87
		l-0.95,4.49c-2.21-0.43-4.41-0.87-6.58-1.29C2103.11,141.39,2105.62,140.38,2108.19,138.87z M2001.58,86.48l3.93,1.79
		C1996.53,90.19,1999.07,88.43,2001.58,86.48z M1956.18,122.66c11.44,0.37,19.11,18.55,47.91,18.37c-2.86-0.08-3.08,1.02-5.94,0.94
		c10.7,3.72,21.21-4.91,34.31,1.12c7.58-8.71,17.15,0.56,19.5-10.56l-26.46,2.48c15.03-2.86,29.32-15.84,53.87-9.43
		c-1.97,2.23-9.36,5.16-14.44,6.79c7.15,3.31,13.93-2.12,21.34,1.28c-0.54,2.56-2.58,4.04-5.54,4.94
		c-15.52-2.14-29.17-2.02-39.46,4.36c-1.17,0.41-2.29,0.89-3.35,1.44c0.23,0.14,0.52,0.23,0.79,0.34c-0.67,0.52-1.34,1.04-1.98,1.63
		l-32.91,4.07c15.66,1.88,17.07,3.94,14.2,6.08c-10.77-0.27-19.47,3.48-29.25,5.79c-6.98-2.93-9.21-6.44,2.04-6.42l2.54,1.46
		c11.71-12.46-46.4-8.14-43.29-16.63c0.91,0.7,1.81,1.46,2.7,2.38c16.73-14.38-30.85-8.12-21.58-11.18
		C1923.55,127.18,1944.97,121.17,1956.18,122.66z M1862.79,132.31c7.69-4.7,8.37-7.19,25.48-8.47c-12.02,3.77,4.21,6.92-0.55,11.4
		c-12.49-1.29-24.86-2.68-37.16-4.11c1.83-1.15,4.12-2.48,7.19-4.06L1862.79,132.31z M1232.26,85.75c1.21-0.02,2.38,0.05,3.4,0.33
		C1234.53,85.97,1233.4,85.87,1232.26,85.75z M1780.44,177.8c10.39-1.04,17.51-0.92,22.77-0.08c-1.59,3.83-8.65,8.69-17.46,12.77
		C1772.9,187.44,1792.74,182.65,1780.44,177.8z M1460.42,202.09c-11.26-0.24-22.45-0.45-33.59-0.65c-0.02-0.03-0.03-0.06-0.06-0.09
		C1440.31,199.66,1450.89,200.72,1460.42,202.09z M1253.83,206.44l5.48,1.65C1247.7,210.33,1250.8,208.48,1253.83,206.44z
		 M305.14,271.59c-2.41-0.99-5.27-1.6-8.45-1.95c7.89-1.71,17.55,0.31,28.14,2.66C318.27,272.04,311.71,271.75,305.14,271.59z
		 M1079.14,292.64c-3.95-1.05-4.39-2.27-2.53-3.51c7.14,0.72,14.84,1.61,23.76,4.07C1085.05,293.36,1071.2,294.23,1079.14,292.64z
		 M1898.32,280.45c7.18,0.15,14.9,0.7,22.98,1.39C1915.4,283.23,1908.16,283.35,1898.32,280.45z M1997.85,273.99l1.62-0.31
		c1.22,0.28,2.17,0.55,2.91,0.83l-7.58,1.16C1995.72,275.15,1996.8,274.57,1997.85,273.99z M2198.64,282.85
		c-0.02-0.01-0.03-0.03-0.05-0.04c0.07-0.01,0.14-0.03,0.21-0.04L2198.64,282.85z M2336.98,273.03c0.78-0.14,1.55-0.28,2.33-0.42
		C2339.17,272.81,2338.53,272.96,2336.98,273.03z M2419.3,268.23c0.13-0.17,0.16-0.38,0.27-0.56c0.02,0.14,0.04,0.27,0.05,0.41
		L2419.3,268.23z M2790.96,251.2l4.01-0.24c1.96,0.86,3.54,1.83,4.76,2.9c-4.81,0.47-9.72,0.9-14.89,1.23
		C2787.76,253.71,2789.71,252.43,2790.96,251.2z M2977.05,267.49c-1.6-0.47-2.19-1.1-2.15-1.85c1.6,0.21,3.2,0.41,4.86,0.66
		c-0.96-0.34-2.66-0.79-4.71-1.3c0.8-1.57,3.96-3.57,8.14-5.82c-2.89,0.74-5.63,1.47-7.77,2.15c-11.43-2.54-9.66-6.12-3.42-9.89
		c6.66,1.89,13.83,3.15,21.15,2.52c-3.54,1.84-6.95,3.6-9.96,5.23c4.76-1.24,10.17-2.56,15.84-3.96c-1.28-0.49-2.61-1.01-3.93-1.53
		c2.62-0.35,5.26-0.88,7.89-1.81c1.26,0.68,1.62,1.33,1.53,1.98c-1.83,0.46-3.67,0.91-5.49,1.36c1.13,0.44,2.18,0.85,3.26,1.28
		c-0.33,0.27-0.65,0.54-0.97,0.81c-2.86-0.09-6.08-0.12-10.26-0.1l8.63,1.9c-0.32,0.53-0.52,1.07-0.38,1.64
		c1.66-0.26,3.14-0.48,4.63-0.71l7.07,1.56l0.89-1.42c2.83,1.05,5.4,1.96,7.46,2.54L2977.05,267.49z M5047.87,286.96l-6.91-1.79
		C5056.61,283.24,5052.22,285.01,5047.87,286.96z"/>
	<path fill="#313B41" d="M4694.11,219.34c1.13-0.05,2.17-0.06,3.26-0.1C4696.17,219.23,4695.05,219.25,4694.11,219.34z"/>
	<path fill="#313B41" d="M4187.01,219.72c0.4,0.06,0.8,0.04,1.21,0.08c0.67-0.4,1.02-0.82,1.22-1.23L4187.01,219.72z"/>
	<polygon fill="#313B41" points="3776.95,223.55 3772.72,215.47 3767.76,215.28 	"/>
	<path fill="#313B41" d="M4014.37,205.32c-7.61-0.28-16.25,0.72-24.36,1.03C4007.15,207.13,4016.66,214.43,4014.37,205.32z"/>
	<path fill="#313B41" d="M3983.01,206.41c2.25,0.08,4.61,0.03,7-0.06C3987.8,206.25,3985.47,206.24,3983.01,206.41z"/>
	<path fill="#313B41" d="M5070.48,70.1c7.27,0.2,3.33-5.55,4.16-6.65C5062.99,65.26,5071.14,71.61,5070.48,70.1z"/>
	<path fill="#313B41" d="M4905.31,92.48l3.77,2.15l7.02-8.43c-23.6,2.3-53.41,8.98-70.88,6.91
		C4857.93,102.65,4884.84,89.78,4905.31,92.48z"/>
	<path fill="#313B41" d="M4792.78,73.78c-2.37,0.16-5.65,0.28-11.28,0.26c4.51,3.72-11.96,3.88,13.99,0.62
		C4794.06,74.29,4793.62,74.06,4792.78,73.78z"/>
	<path fill="#313B41" d="M4792.78,73.78C4804.33,73,4784.44,70.85,4792.78,73.78L4792.78,73.78z"/>
	<path fill="#313B41" d="M4739.63,78.26l14.52-4.11c-3.71-2.16-17.45-2.12-12.77-4C4726.12,72.71,4729.86,74.86,4739.63,78.26z"/>
	<path fill="#313B41" d="M4726.76,86.15l7.6-1.8C4732.75,83.45,4730.58,83.19,4726.76,86.15z"/>
	<path fill="#313B41" d="M4741.83,82.92c-0.71,3.01,1.97,0.03,8.65-2.36l-16.12,3.8C4736.94,85.87,4737.9,89.1,4741.83,82.92z"/>
	<path fill="#313B41" d="M4766.24,88.5c28.97-2.61,23.07-9.44-5.89-6.82C4769.43,83.5,4780.83,84.41,4766.24,88.5z"/>
	<path fill="#313B41" d="M4650.46,87.68c6.14,1.96,12.55,3.4,1.71,6.59c21.37-1.25,19.04-7.8-1.02-7.08
		c0.61-0.6,0.61-1.29,0.14-2.02l-16.11,4.35C4644.14,89.4,4648.57,88.7,4650.46,87.68z"/>
	<polygon fill="#313B41" points="4752.59,88.54 4721.18,97.69 4726.52,97.36 	"/>
	<polygon fill="#313B41" points="4586.99,74.12 4571.55,82.27 4578.49,79.44 	"/>
	<path fill="#313B41" d="M4535.84,82.08c6.2-4.37-11.24-6.5-4.29-9.32c-7.55,0.8-14.04,2.79-19.99,5.05l1.82-0.8l7.35-4.92
		l-11.67,6.64c-2.21,0.88-4.34,1.79-6.41,2.67C4511.77,79.25,4522,79.28,4535.84,82.08z"/>
	<path fill="#313B41" d="M4488.62,86.61c4.54-1.17,9.08-3.12,14.03-5.2C4497.8,82.55,4493.13,84.12,4488.62,86.61z"/>
	<path fill="#313B41" d="M4606.14,89.66c-1.59-1.23-4.85-4.49-14.65-5.52l7.97,5.71C4601.49,89.79,4603.8,89.72,4606.14,89.66z"/>
	<path fill="#313B41" d="M4599.73,90.02l-0.28-0.18c-7.26,0.13-12.29,0.22-14.45,0.26C4586.87,90.09,4591.3,90.07,4599.73,90.02z"/>
	<path fill="#313B41" d="M4607.82,89.61c-0.62,0.02-1.07,0.03-1.68,0.05C4606.91,90.22,4607.34,90.4,4607.82,89.61z"/>
	<path fill="#313B41" d="M4673.02,106.26c6.22-4.39-5.91-6.82,7.93-12.47C4671.75,97.54,4651.82,101.98,4673.02,106.26z"/>
	<polygon fill="#313B41" points="4610.96,96.52 4609.36,99.01 4617.74,96.75 	"/>
	<path fill="#313B41" d="M4526.88,95.76c1.01-1.94,4.71-5.49-6.26-4.82c-7.19,2.93-15.63,3.5-25.13,4.31
		C4506.02,96,4516.79,96.2,4526.88,95.76z"/>
	<path fill="#313B41" d="M4559.18,91.02c-0.5,0.16-1.18,0.25-1.65,0.41C4558.7,91.9,4559.59,92.02,4559.18,91.02z"/>
	<path fill="#313B41" d="M4402.78,100.04c0.04-0.35,0.08-0.68,0.13-1.05l-1.88,0.02C4401.62,99.36,4402.18,99.69,4402.78,100.04z"/>
	<path fill="#313B41" d="M4528.85,96.81c1.72,0.18,3.2,0.2,4.61,0.17l-0.59,0.86l4.28-1.21c1.01-0.17,1.97-0.37,2.85-0.63
		l13.11,1.38c-0.21-1.4-1.87-3.36,0.28-4.94c1.43-0.32,2.87-0.63,4.14-1c-1.05-0.38-2.15-0.99-2.97-1.55
		c-3.79,1.03-6.59,2.63-9.44,4.09c1.28-0.19,2.44-0.42,3.66-0.63l-6,1.7c0.8-0.34,1.59-0.69,2.35-1.07
		c-5.65,0.83-11.68,1.47-18.25,1.79C4526.42,96.64,4526.43,97.21,4528.85,96.81z"/>
	<path fill="#313B41" d="M4476.99,93.23c-0.79-0.31-1.75-0.66-2.76-1c5.08,0.74,8.4-0.54,11.51-2.23
		c-4.38,0.58-9.01,0.95-13.98,0.98c-0.09,0.15-0.14,0.28-0.19,0.41c-0.6-0.18-1.18-0.34-1.76-0.49c0.65,0.01,1.32,0.08,1.96,0.08
		c1.11-1.88,4.53-5.26-3.8-5.07c-5.92,2.6-12.34,2.79-19.6,3.19c5.02,0.78,10.12,1.24,15.18,1.54
		C4467.68,91.66,4472.22,92.5,4476.99,93.23z"/>
	<path fill="#313B41" d="M4555.62,89.55c9.85,0.22,11.82-1.43,11.18-3.65l-11.96,3.36c-1.4-0.51-1.44-0.3-0.8,0.22l-0.11,0.03
		c0.06,0,0.1,0,0.15,0c0.15,0.12,0.27,0.22,0.46,0.36c0.37-0.11,0.69-0.23,1.1-0.32C4555.64,89.56,4555.64,89.56,4555.62,89.55z"/>
	<path fill="#313B41" d="M4623.46,104.29c-0.44-0.43-0.89-0.82-1.34-1.27C4621.65,103.21,4622.3,103.69,4623.46,104.29z"/>
	<polygon fill="#313B41" points="4359.92,92.81 4350.73,96.54 4359.72,98.4 	"/>
	<path fill="#313B41" d="M329.64,226.94c3.46-0.46,9.17-0.58,14.55-0.76C341.52,225.81,337.12,225.94,329.64,226.94z"/>
	<polygon fill="#313B41" points="269.84,220.4 253.43,217.73 264.31,222.34 	"/>
	<path fill="#313B41" d="M239.99,231.62l-4.72-9.04l-8.84,8.44C230.03,230.54,237.02,229.62,239.99,231.62z"/>
	<path fill="#313B41" d="M824.16,211.15c1.29,0.51,1.27,0.95,1.41,1.38C828.07,211.74,829,211.22,824.16,211.15z"/>
	<path fill="#313B41" d="M3562.55,190.47c5.85-1.21,8.28-2.5,7.97-3.86C3564.48,187.77,3561.13,189,3562.55,190.47z"/>
	<path fill="#313B41" d="M5777.92,145.42c-3.97,0.46-10.5,0.59-16.65,0.78C5764.31,146.56,5769.34,146.43,5777.92,145.42z"/>
	<path fill="#313B41" d="M1064.02,204.1c-2.81,0.89-6.13,0.2-8.9,1.1l1.1,3.13C1068.53,207.91,1076.89,205.21,1064.02,204.1z"/>
	<path fill="#313B41" d="M1288.27,206.27c-7.12,0-13.87,0.28-17.71,1.5C1274.39,207.63,1282.64,207.24,1288.27,206.27z"/>
	<polygon fill="#313B41" points="1236.41,199.48 1243.11,200.83 1258.8,201.05 	"/>
	<path fill="#313B41" d="M1554.6,202.32l23.98-2.45c2.23-2.46-4.5-3.81-13.41-2.69C1559.54,198.96,1550.66,200.06,1554.6,202.32z"/>
	<path fill="#313B41" d="M1490.66,180.8l-11.07,3.58c6.68,1.34,7.28,2.91,11.19,5.16L1490.66,180.8z"/>
	<path fill="#313B41" d="M1553.72,174.57c-2.22,2.44-26.24,4.9-3.82,6.48C1552.07,178.59,1584.31,173.47,1553.72,174.57z"/>
	<polygon fill="#313B41" points="5864.89,154.53 5852.52,149.93 5846.17,151.88 	"/>
	<path fill="#313B41" d="M5885.73,149.65l10.26-8.45c-4.12,0.48-12.12,1.41-15.49-0.59L5885.73,149.65z"/>
	<path fill="#313B41" d="M1057.11,132.14c-0.74-0.33-1.7-0.55-2.34-0.93C1054.16,132,1055.32,132.14,1057.11,132.14z"/>
	<path fill="#313B41" d="M744.2,43.47c3.51-0.1,8.96,0.36,14.12,0.71C756.01,43.56,751.8,43.24,744.2,43.47z"/>
	<path fill="#313B41" d="M1691.28,164.05c-0.43-0.22-0.97-0.39-1.43-0.68C1681.15,165.3,1684.7,165.16,1691.28,164.05z"/>
	<path fill="#313B41" d="M1108.59,136l1.48,0.34C1109.72,136.2,1109.2,136.09,1108.59,136z"/>
	<polygon fill="#313B41" points="691.47,31.15 677.48,26.92 685.2,32.48 	"/>
	<path fill="#313B41" d="M657.2,39.07l0.53-9.26l-12.97,7.32C648.41,37.03,655.49,36.83,657.2,39.07z"/>
	<path fill="#313B41" d="M4883.23,89.78c5.39,0.53,3.57-5.37,4.4-6.42C4878.56,84.63,4883.42,91.31,4883.23,89.78z"/>
	<polygon fill="#313B41" points="4793.77,102.84 4795.4,100.44 4782.14,106.29 	"/>
	<path fill="#313B41" d="M4755.41,104.54l2.4,2.31l6.86-8.07c-18.09,1.22-41.65,6.5-54.31,3.65
		C4718.06,112.5,4740.62,100.92,4755.41,104.54z"/>
	<path fill="#313B41" d="M4674.8,80.82c-1.8,0.05-4.28,0.03-8.49-0.26c2.67,3.91-9.68,3.32,10.35,1.25
		C4675.66,81.38,4675.38,81.13,4674.8,80.82z"/>
	<path fill="#313B41" d="M4674.8,80.82C4683.59,80.57,4669.11,77.52,4674.8,80.82L4674.8,80.82z"/>
	<path fill="#313B41" d="M4644.92,79.73c2.05,1.76,5.26,3.72,6.38,5.43l10.76-2.92c-6.13-1.22-17.45-2.1-18.91-5.22
		c-0.08,0.38,0.11,0.79,0.4,1.23c-3.73-1.37-9.59-2.01-6.52-3.34c-11.91,1.87-9.51,4.17-2.83,7.99L4644.92,79.73z"/>
	<path fill="#313B41" d="M4623.08,90.2l6.02-1.46C4628.07,87.77,4626.49,87.42,4623.08,90.2z"/>
	<path fill="#313B41" d="M4634.96,87.64c-1.1,2.97,1.47,0.11,6.92-1.97l-12.77,3.07C4630.75,90.36,4630.86,93.62,4634.96,87.64z"/>
	<path fill="#313B41" d="M4562.21,77.45c-0.76,2.14,3.78,5.71,4.59,8.45l8.59-2.43C4571.03,82,4562.73,80.62,4562.21,77.45z"/>
	<path fill="#313B41" d="M4616.75,101.43l4.05-0.1l11.36-4.1l3.85,0.13c-0.17-0.37-0.51-0.78-0.87-1.21l6.81-2.45l-7.05,2.16
		c-1.07-1.3-2.02-2.78,1.21-4.1l-18.37,4.98l12.86,0.44L4616.75,101.43z"/>
	<path fill="#313B41" d="M4480.97,77.76c5.44-4.08-7.22-6.96-1.5-9.46c-8.81,0.7-16.39,4.19-23.22,7.33
		C4463.47,73.89,4471.12,74.37,4480.97,77.76z"/>
	<path fill="#313B41" d="M4456.25,75.63c-3.84,0.93-7.62,2.28-11.45,4.56C4448.41,79.23,4452.16,77.49,4456.25,75.63z"/>
	<path fill="#313B41" d="M4522.24,82.25l4.91,6.03c1.54,0.04,3.27,0.07,5.03,0.11C4531.22,87.09,4529.38,83.7,4522.24,82.25z"/>
	<path fill="#313B41" d="M4527.32,88.47l-0.17-0.19c-5.45-0.16-9.24-0.3-10.86-0.38C4517.68,87.95,4521,88.13,4527.32,88.47z"/>
	<path fill="#313B41" d="M4533.45,88.41c-0.47-0.02-0.81-0.03-1.27-0.03C4532.66,88.98,4532.94,89.17,4533.45,88.41z"/>
	<path fill="#313B41" d="M4579.13,107.84c5.47-4.1-3.15-7.04,8.25-12.06C4579.81,99.11,4564.07,102.65,4579.13,107.84z"/>
	<path fill="#313B41" d="M4496.8,87.68c-0.41,0.14-0.93,0.2-1.31,0.34C4496.28,88.53,4496.92,88.69,4496.8,87.68z"/>
	<path fill="#313B41" d="M4376.99,88.79c0.39,0.33,0.73,0.75,1.12,1.1c0.1-0.34,0.17-0.69,0.29-1.04L4376.99,88.79z"/>
	<path fill="#313B41" d="M4424.83,82.93c3.02,1.27,6.45,2.36,10.05,3.34C4431.95,84.36,4425.94,81.37,4424.83,82.93z"/>
	<path fill="#313B41" d="M4493.55,86.34c0.29-0.09,0.56-0.2,0.88-0.27C4492.54,84.79,4492.76,85.42,4493.55,86.34z"/>
	<path fill="#313B41" d="M4493.55,86.34c-3.02,0.86-5.41,2.33-7.81,3.66c3.56-0.47,6.87-1.1,9.75-1.98
		C4494.77,87.59,4494.06,86.93,4493.55,86.34z"/>
	<path fill="#313B41" d="M4403.68,90.55l5.54-0.67c-6.28-0.99-10.74-3.24-18.96-7.63c-9.24,2.69-11.19,4.75-11.86,6.6l27.18,0.87
		L4403.68,90.55z"/>
	<path fill="#313B41" d="M4542.43,103.7c-0.25-0.45-0.51-0.85-0.77-1.32C4541.28,102.55,4541.68,103.06,4542.43,103.7z"/>
	<polygon fill="#313B41" points="4377.57,79.38 4364.79,88.38 4374.55,85.77 	"/>
	<polygon fill="#313B41" points="4347.34,80.88 4339.79,84.2 4346.18,86.43 	"/>
	<path fill="#313B41" d="M3649.83,84.56c-9.24-5.23-19.51-13.33-18.51-7.06l2.75,6.11C3640.62,82.53,3645.61,83.23,3649.83,84.56z"
		/>
	<path fill="#313B41" d="M3181.35,115.33c-2.74,1.24-5.85,2.56-9.11,3.95c0.88,0.59,1.79,1.23,2.7,1.86
		C3177.24,119.06,3179.41,117.13,3181.35,115.33z"/>
	<path fill="#313B41" d="M4055.75,87.64c-8.01-2.42-14.41-3.44-20.03-3.76C4045.36,87.42,4053.09,92.71,4055.75,87.64z"/>
	<path fill="#313B41" d="M2764.39,85.05c-3.94,1.09-5.64,2.33-5.55,3.69C2762.89,87.72,2765.2,86.56,2764.39,85.05z"/>
	<path fill="#313B41" d="M4035.72,83.88c-7.12-2.62-15.3-4.27-23.27-0.06c1.41,0.62,2.8,0.93,4.23,1.45
		C4022.58,84.27,4028.53,83.47,4035.72,83.88z"/>
	<path fill="#313B41" d="M1305.4,84.41c2.65-0.38,6.95-0.37,11.01-0.43C1314.44,83.55,1311.12,83.58,1305.4,84.41z"/>
	<path fill="#313B41" d="M4232.15,83.36C4238.18,82.98,4233.12,82.69,4232.15,83.36L4232.15,83.36z"/>
	<path fill="#313B41" d="M4241.15,86.17c-2.24-0.75-4.83-1.39-7.66-1.84C4234.73,84.81,4237.05,85.41,4241.15,86.17z"/>
	<path fill="#313B41" d="M4239.99,83.28c2.07,0.28,3.69,0.44,5.24,0.61C4246.01,82.88,4245.35,82.23,4239.99,83.28z"/>
	<path fill="#313B41" d="M4223.77,83.66c3.44-0.09,6.64,0.21,9.72,0.67c-1.17-0.42-1.66-0.76-1.34-0.97
		C4230.39,83.45,4227.9,83.56,4223.77,83.66z"/>
	<path fill="#313B41" d="M2064.93,132.37c-0.39-0.19-0.85-0.32-1.28-0.57C2057.54,134.31,2060.21,133.92,2064.93,132.37z"/>
	<path fill="#313B41" d="M2492.68,154.16c-0.23-0.06-0.46-0.04-0.69-0.09c-0.39,0.4-0.6,0.82-0.72,1.23L2492.68,154.16z"/>
	<path fill="#313B41" d="M4294.46,80.52l-13.07,1.72c6.31-0.31,8.53,1.18,11.69,2.27C4292.82,82.92,4290.38,80.62,4294.46,80.52z"/>
	<path fill="#313B41" d="M4326.49,105.7c2.82-0.25,5.69-0.38,8.44-0.11C4336.06,102.4,4331.52,104.91,4326.49,105.7z"/>
	<path fill="#313B41" d="M4212.3,87.97c4.3,1.48,2.86-7.29,5.26-4.96C4222.54,75.77,4188.53,91.7,4212.3,87.97z"/>
	<polygon fill="#313B41" points="1261.11,76.55 1249.03,73.52 1256.77,78.36 	"/>
</g>
</svg>
